SplineFontDB: 3.0
FontName: a
FullName: Neuton Regular
FamilyName: Neuton
Weight: Regular
Copyright: Copyright (c) 2010, 2011 Brian M Zick (http://21326.info/), \nwith Reserved Font Name 'Neuton'.\n\nThis Font Software is licensed under the SIL Open Font License, Version 1.1.This license is available with a FAQ at: http://scripts.sil.org/OFL\n   WITHOUT WARRANTIES OR CONDITIONS OF ANY KIND, either express or implied.\n   See the License for the specific language governing permissions and\n   limitations under the License.
Version: 1.43
ItalicAngle: 0
UnderlinePosition: -361
UnderlineWidth: 0
Ascent: 1638
Descent: 410
LayerCount: 2
Layer: 0 0 "Back"  1
Layer: 1 0 "Fore"  0
NeedsXUIDChange: 1
FSType: 0
OS2Version: 1
OS2_WeightWidthSlopeOnly: 0
OS2_UseTypoMetrics: 0
CreationTime: 1305772905
ModificationTime: 1317108002
PfmFamily: 17
TTFWeight: 500
TTFWidth: 5
LineGap: 0
VLineGap: 0
OS2TypoAscent: 2106
OS2TypoAOffset: 0
OS2TypoDescent: -485
OS2TypoDOffset: 0
OS2TypoLinegap: 0
OS2WinAscent: 2106
OS2WinAOffset: 0
OS2WinDescent: 485
OS2WinDOffset: 0
HheadAscent: 2106
HheadAOffset: 0
HheadDescent: -485
HheadDOffset: 0
OS2SubXSize: 1095
OS2SubYSize: 1179
OS2SubXOff: 0
OS2SubYOff: 235
OS2SupXSize: 1095
OS2SupYSize: 1179
OS2SupXOff: 0
OS2SupYOff: 809
OS2StrikeYSize: 84
OS2StrikeYPos: 436
OS2Vendor: 'PfEd'
OS2CodePages: a00000b3.00000000
Lookup: 1 0 0 "'sups' Superscript lookup 0"  {"'sups' Superscript lookup 0 subtable" ("superior" ) } ['sups' ('DFLT' <'dflt' > ) ]
Lookup: 258 0 0 "'kern' Horizontal Kerning in Latin lookup 0"  {"'kern' Horizontal Kerning in Latin lookup 0 per glyph data 0"  "'kern' Horizontal Kerning in Latin lookup 0 kerning class 1" [410,0,0] } ['kern' ('latn' <'dflt' > ) ]
MarkAttachClasses: 1
DEI: 91125
KernClass2: 89+ 74 "'kern' Horizontal Kerning in Latin lookup 0 kerning class 1" 
 9 ampersand
 8 asterisk
 2 at
 9 backslash
 5 comma
 10 exclamdown
 4 four
 8 four.osf
 27 guillemotleft guilsinglleft
 29 guillemotright guilsinglright

StartChar: .notdef
Encoding: 65536 -1 0
Width: 563
VWidth: 0
Flags: MW
LayerCount: 2
Fore
SplineSet
41 0 m 1
 41 1105 l 1
 482 1105 l 1
 482 0 l 1
 41 0 l 1
96 55 m 1
 427 55 l 1
 427 1050 l 1
 96 1050 l 1
 96 55 l 1
EndSplineSet
Colour: ffffff
EndChar

StartChar: A
Encoding: 65 65 1
Width: 1278
VWidth: 1691
Flags: MW
LayerCount: 2
Fore
SplineSet
-37 0 m 1
 -28 74 l 1
 121 129 l 1
 559 1237 l 1
 710 1268 l 1
 1100 124 l 1
 1237 80 l 1
 1228 0 l 1
 713 0 l 1
 725 74 l 1
 896 129 l 1
 787 432 l 1
 368 432 l 1
 256 124 l 1
 442 80 l 1
 431 0 l 1
 -37 0 l 1
406 534 m 1
 758 534 l 1
 592 1034 l 1
 406 534 l 1
EndSplineSet
Colour: ffffff
EndChar

StartChar: AE
Encoding: 198 198 2
Width: 383
VWidth: 0
Flags: HMW
LayerCount: 2
Fore
SplineSet
73 92 m 0
 73 156 127 205 191 205 c 0
 257 205 313 154 313 90 c 0
 313 23 257 -31 191 -31 c 0
 125 -31 73 25 73 92 c 0
EndSplineSet
Colour: ffffff
EndChar

StartChar: Aacute
Encoding: 193 193 3
Width: 383
VWidth: 0
Flags: HMW
LayerCount: 2
Fore
SplineSet
73 92 m 0
 73 156 127 205 191 205 c 0
 257 205 313 154 313 90 c 0
 313 23 257 -31 191 -31 c 0
 125 -31 73 25 73 92 c 0
EndSplineSet
Colour: ffffff
EndChar

StartChar: Abreve
Encoding: 258 258 4
Width: 383
VWidth: 0
Flags: HMW
LayerCount: 2
Fore
SplineSet
73 92 m 0
 73 156 127 205 191 205 c 0
 257 205 313 154 313 90 c 0
 313 23 257 -31 191 -31 c 0
 125 -31 73 25 73 92 c 0
EndSplineSet
Colour: ffffff
EndChar

StartChar: Acaron
Encoding: 461 461 5
Width: 383
VWidth: 0
Flags: HMW
LayerCount: 2
Fore
SplineSet
73 92 m 0
 73 156 127 205 191 205 c 0
 257 205 313 154 313 90 c 0
 313 23 257 -31 191 -31 c 0
 125 -31 73 25 73 92 c 0
EndSplineSet
Colour: ffffff
EndChar

StartChar: Acircumflex
Encoding: 194 194 6
Width: 383
VWidth: 0
Flags: HMW
LayerCount: 2
Fore
SplineSet
73 92 m 0
 73 156 127 205 191 205 c 0
 257 205 313 154 313 90 c 0
 313 23 257 -31 191 -31 c 0
 125 -31 73 25 73 92 c 0
EndSplineSet
Colour: ffffff
EndChar

StartChar: Adieresis
Encoding: 196 196 7
Width: 383
VWidth: 0
Flags: HMW
LayerCount: 2
Fore
SplineSet
73 92 m 0
 73 156 127 205 191 205 c 0
 257 205 313 154 313 90 c 0
 313 23 257 -31 191 -31 c 0
 125 -31 73 25 73 92 c 0
EndSplineSet
Colour: ffffff
EndChar

StartChar: Agrave
Encoding: 192 192 8
Width: 383
VWidth: 0
Flags: HMW
LayerCount: 2
Fore
SplineSet
73 92 m 0
 73 156 127 205 191 205 c 0
 257 205 313 154 313 90 c 0
 313 23 257 -31 191 -31 c 0
 125 -31 73 25 73 92 c 0
EndSplineSet
Colour: ffffff
EndChar

StartChar: Amacron
Encoding: 256 256 9
Width: 383
VWidth: 0
Flags: HMW
LayerCount: 2
Fore
SplineSet
73 92 m 0
 73 156 127 205 191 205 c 0
 257 205 313 154 313 90 c 0
 313 23 257 -31 191 -31 c 0
 125 -31 73 25 73 92 c 0
EndSplineSet
Colour: ffffff
EndChar

StartChar: Aogonek
Encoding: 260 260 10
Width: 383
VWidth: 0
Flags: HMW
LayerCount: 2
Fore
SplineSet
73 92 m 0
 73 156 127 205 191 205 c 0
 257 205 313 154 313 90 c 0
 313 23 257 -31 191 -31 c 0
 125 -31 73 25 73 92 c 0
EndSplineSet
Colour: ffffff
EndChar

StartChar: Aring
Encoding: 197 197 11
Width: 383
VWidth: 0
Flags: HMW
LayerCount: 2
Fore
SplineSet
73 92 m 0
 73 156 127 205 191 205 c 0
 257 205 313 154 313 90 c 0
 313 23 257 -31 191 -31 c 0
 125 -31 73 25 73 92 c 0
EndSplineSet
Colour: ffffff
EndChar

StartChar: Atilde
Encoding: 195 195 12
Width: 383
VWidth: 0
Flags: HMW
LayerCount: 2
Fore
SplineSet
73 92 m 0
 73 156 127 205 191 205 c 0
 257 205 313 154 313 90 c 0
 313 23 257 -31 191 -31 c 0
 125 -31 73 25 73 92 c 0
EndSplineSet
Colour: ffffff
EndChar

StartChar: B
Encoding: 66 66 13
Width: 1127
VWidth: 1691
Flags: MW
LayerCount: 2
Fore
SplineSet
50 0 m 1
 61 74 l 1
 228 121 l 1
 228 1104 l 1
 57 1134 l 1
 67 1211 l 1
 212 1232 382 1257 559 1257 c 0
 869 1257 996 1118 996 967 c 0
 996 863 947 736 790 679 c 1
 790 672 l 1
 995 661 1100 512 1100 380 c 0
 1100 192 970 0 568 0 c 2
 50 0 l 1
420 96 m 1
 640 96 l 2
 814 96 904 218 904 347 c 0
 904 471 818 605 643 605 c 2
 420 605 l 1
 420 96 l 1
420 688 m 1
 678 688 l 1
 764 724 808 795 808 909 c 0
 808 1033 743 1171 500 1171 c 0
 476 1171 447 1168 420 1164 c 1
 420 688 l 1
EndSplineSet
Colour: ffffff
EndChar

StartChar: C
Encoding: 67 67 14
Width: 1111
VWidth: 1691
Flags: MW
LayerCount: 2
Fore
SplineSet
61 589 m 0
 61 884 246 1269 704 1269 c 0
 836 1269 970 1242 1066 1169 c 1
 1035 837 l 1
 947 850 l 1
 905 1070 l 1
 859 1129 776 1174 647 1174 c 0
 439 1174 275 980 275 658 c 0
 275 299 491 111 728 111 c 0
 862 111 992 182 1078 261 c 1
 1113 185 l 1
 1034 89 859 -24 651 -24 c 0
 344 -24 61 190 61 589 c 0
EndSplineSet
Colour: ffffff
EndChar

StartChar: Cacute
Encoding: 262 262 15
Width: 383
VWidth: 0
Flags: HMW
LayerCount: 2
Fore
SplineSet
73 92 m 0
 73 156 127 205 191 205 c 0
 257 205 313 154 313 90 c 0
 313 23 257 -31 191 -31 c 0
 125 -31 73 25 73 92 c 0
EndSplineSet
Colour: ffffff
EndChar

StartChar: Ccaron
Encoding: 268 268 16
Width: 383
VWidth: 0
Flags: HMW
LayerCount: 2
Fore
SplineSet
73 92 m 0
 73 156 127 205 191 205 c 0
 257 205 313 154 313 90 c 0
 313 23 257 -31 191 -31 c 0
 125 -31 73 25 73 92 c 0
EndSplineSet
Colour: ffffff
EndChar

StartChar: Ccedilla
Encoding: 199 199 17
Width: 383
VWidth: 0
Flags: HMW
LayerCount: 2
Fore
SplineSet
73 92 m 0
 73 156 127 205 191 205 c 0
 257 205 313 154 313 90 c 0
 313 23 257 -31 191 -31 c 0
 125 -31 73 25 73 92 c 0
EndSplineSet
Colour: ffffff
EndChar

StartChar: Cdotaccent
Encoding: 266 266 18
Width: 383
VWidth: 0
Flags: HMW
LayerCount: 2
Fore
SplineSet
73 92 m 0
 73 156 127 205 191 205 c 0
 257 205 313 154 313 90 c 0
 313 23 257 -31 191 -31 c 0
 125 -31 73 25 73 92 c 0
EndSplineSet
Colour: ffffff
EndChar

StartChar: D
Encoding: 68 68 19
Width: 1327
VWidth: 1691
Flags: MW
LayerCount: 2
Fore
SplineSet
47 0 m 1
 61 74 l 1
 233 129 l 1
 233 1103 l 1
 61 1133 l 1
 70 1209 l 1
 267 1240 438 1258 583 1258 c 0
 1145 1258 1304 961 1304 653 c 0
 1304 311 1053 0 541 0 c 2
 47 0 l 1
424 104 m 1
 569 104 l 2
 924 104 1093 331 1093 598 c 0
 1093 905 914 1155 546 1155 c 0
 506 1155 464 1155 424 1151 c 1
 424 104 l 1
EndSplineSet
Colour: ffffff
EndChar

StartChar: Dcaron
Encoding: 270 270 20
Width: 383
VWidth: 0
Flags: HMW
LayerCount: 2
Fore
SplineSet
73 92 m 0
 73 156 127 205 191 205 c 0
 257 205 313 154 313 90 c 0
 313 23 257 -31 191 -31 c 0
 125 -31 73 25 73 92 c 0
EndSplineSet
Colour: ffffff
EndChar

StartChar: Dcroat
Encoding: 272 272 21
Width: 383
VWidth: 0
Flags: HMW
LayerCount: 2
Fore
SplineSet
73 92 m 0
 73 156 127 205 191 205 c 0
 257 205 313 154 313 90 c 0
 313 23 257 -31 191 -31 c 0
 125 -31 73 25 73 92 c 0
EndSplineSet
Colour: ffffff
EndChar

StartChar: E
Encoding: 69 69 22
Width: 1075
VWidth: 1691
Flags: MW
LayerCount: 2
Fore
SplineSet
50 1168 m 1
 61 1244 l 1
 1056 1244 l 1
 1025 924 l 1
 938 937 l 1
 897 1152 l 1
 426 1152 l 1
 426 676 l 1
 716 676 l 1
 758 796 l 1
 853 810 l 1
 819 421 l 1
 734 408 l 1
 700 583 l 1
 426 583 l 1
 426 96 l 1
 921 96 l 1
 1019 326 l 1
 1102 313 l 1
 1072 0 l 1
 57 0 l 1
 65 74 l 1
 232 121 l 1
 232 1126 l 1
 50 1168 l 1
EndSplineSet
Colour: ffffff
EndChar

StartChar: Eacute
Encoding: 201 201 23
Width: 383
VWidth: 0
Flags: HMW
LayerCount: 2
Fore
SplineSet
73 92 m 0
 73 156 127 205 191 205 c 0
 257 205 313 154 313 90 c 0
 313 23 257 -31 191 -31 c 0
 125 -31 73 25 73 92 c 0
EndSplineSet
Colour: ffffff
EndChar

StartChar: Ecaron
Encoding: 282 282 24
Width: 383
VWidth: 0
Flags: HMW
LayerCount: 2
Fore
SplineSet
73 92 m 0
 73 156 127 205 191 205 c 0
 257 205 313 154 313 90 c 0
 313 23 257 -31 191 -31 c 0
 125 -31 73 25 73 92 c 0
EndSplineSet
Colour: ffffff
EndChar

StartChar: Ecircumflex
Encoding: 202 202 25
Width: 383
VWidth: 0
Flags: HMW
LayerCount: 2
Fore
SplineSet
73 92 m 0
 73 156 127 205 191 205 c 0
 257 205 313 154 313 90 c 0
 313 23 257 -31 191 -31 c 0
 125 -31 73 25 73 92 c 0
EndSplineSet
Colour: ffffff
EndChar

StartChar: Edieresis
Encoding: 203 203 26
Width: 383
VWidth: 0
Flags: HMW
LayerCount: 2
Fore
SplineSet
73 92 m 0
 73 156 127 205 191 205 c 0
 257 205 313 154 313 90 c 0
 313 23 257 -31 191 -31 c 0
 125 -31 73 25 73 92 c 0
EndSplineSet
Colour: ffffff
EndChar

StartChar: Edotaccent
Encoding: 278 278 27
Width: 383
VWidth: 0
Flags: HMW
LayerCount: 2
Fore
SplineSet
73 92 m 0
 73 156 127 205 191 205 c 0
 257 205 313 154 313 90 c 0
 313 23 257 -31 191 -31 c 0
 125 -31 73 25 73 92 c 0
EndSplineSet
Colour: ffffff
EndChar

StartChar: Egrave
Encoding: 200 200 28
Width: 383
VWidth: 0
Flags: HMW
LayerCount: 2
Fore
SplineSet
73 92 m 0
 73 156 127 205 191 205 c 0
 257 205 313 154 313 90 c 0
 313 23 257 -31 191 -31 c 0
 125 -31 73 25 73 92 c 0
EndSplineSet
Colour: ffffff
EndChar

StartChar: Emacron
Encoding: 274 274 29
Width: 383
VWidth: 0
Flags: HMW
LayerCount: 2
Fore
SplineSet
73 92 m 0
 73 156 127 205 191 205 c 0
 257 205 313 154 313 90 c 0
 313 23 257 -31 191 -31 c 0
 125 -31 73 25 73 92 c 0
EndSplineSet
Colour: ffffff
EndChar

StartChar: Eng
Encoding: 330 330 30
Width: 383
VWidth: 0
Flags: HMW
LayerCount: 2
Fore
SplineSet
73 92 m 0
 73 156 127 205 191 205 c 0
 257 205 313 154 313 90 c 0
 313 23 257 -31 191 -31 c 0
 125 -31 73 25 73 92 c 0
EndSplineSet
Colour: ffffff
EndChar

StartChar: Eogonek
Encoding: 280 280 31
Width: 383
VWidth: 0
Flags: HMW
LayerCount: 2
Fore
SplineSet
73 92 m 0
 73 156 127 205 191 205 c 0
 257 205 313 154 313 90 c 0
 313 23 257 -31 191 -31 c 0
 125 -31 73 25 73 92 c 0
EndSplineSet
Colour: ffffff
EndChar

StartChar: Eth
Encoding: 208 208 32
Width: 383
VWidth: 0
Flags: HMW
LayerCount: 2
Fore
SplineSet
73 92 m 0
 73 156 127 205 191 205 c 0
 257 205 313 154 313 90 c 0
 313 23 257 -31 191 -31 c 0
 125 -31 73 25 73 92 c 0
EndSplineSet
Colour: ffffff
EndChar

StartChar: Euro
Encoding: 8364 8364 33
Width: 1161
VWidth: 0
Flags: MW
LayerCount: 2
Back
SplineSet
-43.7471 649.094 m 1
 -41.7129 732.52 l 1
 956.344 732.52 l 1
 940.065 649.094 l 1
 -43.7471 649.094 l 1
-35.6084 868.849 m 1
 -33.5742 951.257 l 1
 1014.33 951.257 l 1
 998.057 868.849 l 1
 -35.6084 868.849 l 1
178.043 732.52 m 0
 178.043 1205.6 394.746 1594.25 861.727 1594.25 c 0
 1028.58 1594.25 1124.21 1560.67 1245.28 1469.11 c 1
 1204.59 1045.87 l 1
 1149.65 1056.05 l 1
 1112 1381.61 l 1
 1062.15 1466.05 998.057 1512.85 856.641 1512.85 c 0
 515.814 1512.85 331.669 1227.99 331.669 772.196 c 0
 331.669 289.956 536.163 53.9219 854.604 53.9219 c 0
 933.961 53.9219 1047.91 100.722 1131.33 215.686 c 1
 1170 542.268 l 1
 1225.95 549.389 l 1
 1265.63 129.209 l 1
 1118.11 24.417 996.022 -31.5391 790.509 -31.5391 c 0
 431.372 -31.5391 178.043 269.607 178.043 732.52 c 0
EndSplineSet
Fore
SplineSet
-14 468 m 1
 -4 567 l 1
 849 567 l 1
 828 468 l 1
 -14 468 l 1
-4 651 m 1
 6 750 l 1
 898 750 l 1
 877 651 l 1
 -4 651 l 1
142 636 m 0
 142 917 347 1269 750 1269 c 0
 882 1269 983 1242 1079 1169 c 1
 1048 837 l 1
 960 850 l 1
 918 1070 l 1
 872 1129 822 1174 693 1174 c 0
 467 1174 354 965 354 666 c 3
 354 343 497 83 750 83 c 0
 812 83 887 108 934 174 c 1
 977 401 l 1
 1065 414 l 1
 1096 111 l 1
 970 12 864 -24 700 -24 c 0
 362 -24 142 234 142 636 c 0
EndSplineSet
Colour: ffffff
EndChar

StartChar: F
Encoding: 70 70 34
Width: 1028
VWidth: 1691
Flags: MW
LayerCount: 2
Fore
SplineSet
50 1168 m 1
 61 1244 l 1
 1054 1244 l 1
 1013 922 l 1
 925 936 l 1
 891 1152 l 1
 426 1152 l 1
 426 670 l 1
 713 670 l 1
 755 790 l 1
 845 804 l 1
 818 412 l 1
 730 398 l 1
 700 578 l 1
 426 578 l 1
 423 122 l 1
 661 83 l 1
 648 0 l 1
 57 0 l 1
 65 74 l 1
 232 121 l 1
 232 1126 l 1
 50 1168 l 1
EndSplineSet
Colour: ffffff
EndChar

StartChar: G
Encoding: 71 71 35
Width: 1276
VWidth: 1691
Flags: MW
LayerCount: 2
Fore
SplineSet
61 578 m 0
 61 1007 385 1260 717 1260 c 0
 894 1260 1040 1222 1139 1163 c 1
 1115 841 l 1
 1028 856 l 1
 992 1047 l 1
 946 1093 824 1161 667 1161 c 0
 470 1161 276 1013 276 647 c 0
 276 350 454 77 771 77 c 0
 851 77 915 103 943 119 c 1
 943 434 l 1
 707 472 l 1
 719 555 l 1
 1275 555 l 1
 1263 480 l 1
 1139 439 l 1
 1139 79 l 1
 1007 0 858 -31 658 -31 c 0
 256 -31 61 237 61 578 c 0
EndSplineSet
Colour: ffffff
EndChar

StartChar: Gbreve
Encoding: 286 286 36
Width: 383
VWidth: 0
Flags: HMW
LayerCount: 2
Fore
SplineSet
73 92 m 0
 73 156 127 205 191 205 c 0
 257 205 313 154 313 90 c 0
 313 23 257 -31 191 -31 c 0
 125 -31 73 25 73 92 c 0
EndSplineSet
Colour: ffffff
EndChar

StartChar: Gcommaaccent
Encoding: 290 290 37
Width: 383
VWidth: 0
Flags: HMW
LayerCount: 2
Fore
SplineSet
73 92 m 0
 73 156 127 205 191 205 c 0
 257 205 313 154 313 90 c 0
 313 23 257 -31 191 -31 c 0
 125 -31 73 25 73 92 c 0
EndSplineSet
Colour: ffffff
EndChar

StartChar: Gdotaccent
Encoding: 288 288 38
Width: 383
VWidth: 0
Flags: HMW
LayerCount: 2
Fore
SplineSet
73 92 m 0
 73 156 127 205 191 205 c 0
 257 205 313 154 313 90 c 0
 313 23 257 -31 191 -31 c 0
 125 -31 73 25 73 92 c 0
EndSplineSet
Colour: ffffff
EndChar

StartChar: Germandbls
Encoding: 7838 7838 39
Width: 1283
VWidth: 0
Flags: MW
LayerCount: 2
Fore
SplineSet
26 0 m 1
 34 73 l 1
 198 119 l 1
 198 751 l 2
 198 1102 393 1250 689 1250 c 0
 874 1250 1169 1208 1169 1032 c 0
 1169 956 1127 923 1049 897 c 1
 1013 1001 976 1112 862 1112 c 0
 778 1112 691 1028 691 928 c 0
 691 637 1232 680 1232 316 c 0
 1232 90 1050 -24 826 -24 c 0
 684 -24 549 30 494 121 c 1
 507 376 l 1
 602 361 l 1
 637 184 l 1
 673 127 757 76 849 76 c 0
 953 76 1050 110 1050 250 c 0
 1050 503 521 468 521 829 c 0
 521 992 621 1123 761 1155 c 1
 763 1158 l 1
 744 1160 695 1161 676 1161 c 0
 481 1161 387 1027 387 774 c 2
 389 0 l 1
 26 0 l 1
EndSplineSet
Colour: ffffff
EndChar

StartChar: Germandbls.alt
Encoding: 65537 -1 40
Width: 1283
VWidth: 0
Flags: MW
LayerCount: 2
Fore
SplineSet
25 0 m 1
 33 73 l 1
 198 119 l 1
 198 678 l 2
 198 1115 392 1250 688 1250 c 0
 851 1250 1076 1232 1134 1213 c 1
 1135 1142 l 1
 835 751 l 1
 922 689 1232 595 1232 332 c 0
 1232 106 1049 -24 825 -24 c 0
 683 -24 548 38 493 129 c 1
 506 392 l 1
 607 377 l 1
 646 192 l 1
 682 135 756 76 848 76 c 0
 952 76 1049 126 1049 266 c 0
 1049 432 772 545 609 639 c 1
 586 687 l 1
 906 1125 l 1
 906 1130 l 1
 864 1148 694 1161 675 1161 c 0
 480 1161 386 1053 386 700 c 1
 388 0 l 1
 25 0 l 1
EndSplineSet
Colour: ffffff
EndChar

StartChar: Germandbls.alt2
Encoding: 65538 -1 41
Width: 1283
VWidth: 0
Flags: MW
LayerCount: 2
Fore
SplineSet
26 0 m 1
 34 73 l 1
 198 119 l 1
 198 751 l 2
 198 1102 393 1250 689 1250 c 0
 874 1250 1051 1211 1145 1151 c 1
 1125 873 l 1
 1028 884 l 1
 1002 1063 l 1
 973 1086 921 1113 853 1113 c 0
 782 1113 691 1045 691 945 c 0
 691 654 1232 680 1232 316 c 0
 1232 90 1050 -24 826 -24 c 0
 684 -24 549 30 494 121 c 1
 507 384 l 1
 608 369 l 1
 647 184 l 1
 683 127 757 76 849 76 c 0
 953 76 1050 110 1050 250 c 0
 1050 503 521 484 521 845 c 0
 521 1008 621 1123 761 1155 c 1
 763 1158 l 1
 744 1160 695 1161 676 1161 c 0
 481 1161 387 1027 387 774 c 2
 389 0 l 1
 26 0 l 1
EndSplineSet
Colour: ffffff
EndChar

StartChar: H
Encoding: 72 72 42
Width: 1416
VWidth: 1691
Flags: MW
LayerCount: 2
Fore
SplineSet
50 1168 m 1
 61 1244 l 1
 605 1244 l 1
 595 1168 l 1
 427 1130 l 1
 427 692 l 1
 1054 692 l 1
 1054 1126 l 1
 871 1168 l 1
 882 1244 l 1
 1428 1244 l 1
 1416 1168 l 1
 1249 1130 l 1
 1249 114 l 1
 1431 80 l 1
 1421 0 l 1
 878 0 l 1
 888 74 l 1
 1054 121 l 1
 1054 589 l 1
 427 589 l 1
 427 114 l 1
 611 80 l 1
 598 0 l 1
 57 0 l 1
 65 74 l 1
 232 121 l 1
 232 1126 l 1
 50 1168 l 1
EndSplineSet
Colour: ffffff
EndChar

StartChar: Hbar
Encoding: 294 294 43
Width: 383
VWidth: 0
Flags: HMW
LayerCount: 2
Fore
SplineSet
73 92 m 0
 73 156 127 205 191 205 c 0
 257 205 313 154 313 90 c 0
 313 23 257 -31 191 -31 c 0
 125 -31 73 25 73 92 c 0
EndSplineSet
Colour: ffffff
EndChar

StartChar: I
Encoding: 73 73 44
Width: 601
VWidth: 1691
Flags: MW
LayerCount: 2
Fore
SplineSet
50 1168 m 1
 61 1244 l 1
 605 1244 l 5
 595 1168 l 1
 426 1130 l 1
 426 114 l 1
 607 80 l 1
 597 0 l 1
 57 0 l 1
 65 74 l 1
 232 121 l 1
 232 1126 l 1
 50 1168 l 1
EndSplineSet
Colour: ffffff
EndChar

StartChar: Iacute
Encoding: 205 205 45
Width: 383
VWidth: 0
Flags: HMW
LayerCount: 2
Fore
SplineSet
73 92 m 0
 73 156 127 205 191 205 c 0
 257 205 313 154 313 90 c 0
 313 23 257 -31 191 -31 c 0
 125 -31 73 25 73 92 c 0
EndSplineSet
Colour: ffffff
EndChar

StartChar: Icaron
Encoding: 463 463 46
Width: 383
VWidth: 0
Flags: HMW
LayerCount: 2
Fore
SplineSet
73 92 m 0
 73 156 127 205 191 205 c 0
 257 205 313 154 313 90 c 0
 313 23 257 -31 191 -31 c 0
 125 -31 73 25 73 92 c 0
EndSplineSet
Colour: ffffff
EndChar

StartChar: Icircumflex
Encoding: 206 206 47
Width: 383
VWidth: 0
Flags: HMW
LayerCount: 2
Fore
SplineSet
73 92 m 0
 73 156 127 205 191 205 c 0
 257 205 313 154 313 90 c 0
 313 23 257 -31 191 -31 c 0
 125 -31 73 25 73 92 c 0
EndSplineSet
Colour: ffffff
EndChar

StartChar: Idieresis
Encoding: 207 207 48
Width: 383
VWidth: 0
Flags: HMW
LayerCount: 2
Fore
SplineSet
73 92 m 0
 73 156 127 205 191 205 c 0
 257 205 313 154 313 90 c 0
 313 23 257 -31 191 -31 c 0
 125 -31 73 25 73 92 c 0
EndSplineSet
Colour: ffffff
EndChar

StartChar: Idotaccent
Encoding: 304 304 49
Width: 383
VWidth: 0
Flags: HMW
LayerCount: 2
Fore
SplineSet
73 92 m 0
 73 156 127 205 191 205 c 0
 257 205 313 154 313 90 c 0
 313 23 257 -31 191 -31 c 0
 125 -31 73 25 73 92 c 0
EndSplineSet
Colour: ffffff
EndChar

StartChar: Igrave
Encoding: 204 204 50
Width: 383
VWidth: 0
Flags: HMW
LayerCount: 2
Fore
SplineSet
73 92 m 0
 73 156 127 205 191 205 c 0
 257 205 313 154 313 90 c 0
 313 23 257 -31 191 -31 c 0
 125 -31 73 25 73 92 c 0
EndSplineSet
Colour: ffffff
EndChar

StartChar: Imacron
Encoding: 298 298 51
Width: 383
VWidth: 0
Flags: HMW
LayerCount: 2
Fore
SplineSet
73 92 m 0
 73 156 127 205 191 205 c 0
 257 205 313 154 313 90 c 0
 313 23 257 -31 191 -31 c 0
 125 -31 73 25 73 92 c 0
EndSplineSet
Colour: ffffff
EndChar

StartChar: Iogonek
Encoding: 302 302 52
Width: 383
VWidth: 0
Flags: HMW
LayerCount: 2
Fore
SplineSet
73 92 m 0
 73 156 127 205 191 205 c 0
 257 205 313 154 313 90 c 0
 313 23 257 -31 191 -31 c 0
 125 -31 73 25 73 92 c 0
EndSplineSet
Colour: ffffff
EndChar

StartChar: J
Encoding: 74 74 53
Width: 592
VWidth: 1691
Flags: MW
LayerCount: 2
Fore
SplineSet
-4 -237 m 1
 151 -90 232 37 232 197 c 2
 233 1126 l 1
 52 1168 l 1
 62 1244 l 1
 607 1244 l 1
 597 1168 l 1
 427 1130 l 1
 426 385 l 2
 425 -24 337 -138 50 -326 c 1
 -4 -237 l 1
EndSplineSet
Colour: ffffff
EndChar

StartChar: K
Encoding: 75 75 54
Width: 1228
VWidth: 1691
Flags: MW
LayerCount: 2
Fore
SplineSet
47 1168 m 1
 61 1244 l 1
 611 1244 l 1
 601 1168 l 1
 429 1121 l 1
 429 124 l 1
 618 80 l 1
 607 0 l 1
 54 0 l 1
 64 74 l 1
 236 129 l 1
 236 1117 l 1
 47 1168 l 1
453 626 m 1
 481 654 574 758 605 798 c 2
 851 1121 l 1
 696 1168 l 1
 704 1244 l 1
 1197 1244 l 1
 1185 1168 l 1
 1008 1121 l 1
 635 653 l 1
 862 385 l 2
 1013 206 1085 123 1213 83 c 2
 1250 70 l 1
 1240 1 l 1
 1194 -15 1149 -21 1109 -21 c 0
 942 -21 820 104 706 261 c 2
 454 605 l 1
 453 626 l 1
EndSplineSet
Colour: ffffff
EndChar

StartChar: Kcommaaccent
Encoding: 310 310 55
Width: 383
VWidth: 0
Flags: HMW
LayerCount: 2
Fore
SplineSet
73 92 m 0
 73 156 127 205 191 205 c 0
 257 205 313 154 313 90 c 0
 313 23 257 -31 191 -31 c 0
 125 -31 73 25 73 92 c 0
EndSplineSet
Colour: ffffff
EndChar

StartChar: L
Encoding: 76 76 56
Width: 1065
VWidth: 1691
Flags: MW
LayerCount: 2
Fore
SplineSet
58 0 m 5
 67 74 l 5
 233 121 l 5
 233 1117 l 5
 45 1168 l 5
 58 1244 l 5
 608 1244 l 5
 598 1168 l 5
 427 1121 l 5
 427 96 l 5
 869 96 l 5
 1000 344 l 5
 1085 331 l 5
 1048 0 l 5
 58 0 l 5
EndSplineSet
Colour: ffffff
EndChar

StartChar: Lacute
Encoding: 313 313 57
Width: 383
VWidth: 0
Flags: HMW
LayerCount: 2
Fore
SplineSet
73 92 m 0
 73 156 127 205 191 205 c 0
 257 205 313 154 313 90 c 0
 313 23 257 -31 191 -31 c 0
 125 -31 73 25 73 92 c 0
EndSplineSet
Colour: ffffff
EndChar

StartChar: Lcaron
Encoding: 317 317 58
Width: 383
VWidth: 0
Flags: HMW
LayerCount: 2
Fore
SplineSet
73 92 m 0
 73 156 127 205 191 205 c 0
 257 205 313 154 313 90 c 0
 313 23 257 -31 191 -31 c 0
 125 -31 73 25 73 92 c 0
EndSplineSet
Colour: ffffff
EndChar

StartChar: Lcommaaccent
Encoding: 315 315 59
Width: 383
VWidth: 0
Flags: HMW
LayerCount: 2
Fore
SplineSet
73 92 m 0
 73 156 127 205 191 205 c 0
 257 205 313 154 313 90 c 0
 313 23 257 -31 191 -31 c 0
 125 -31 73 25 73 92 c 0
EndSplineSet
Colour: ffffff
EndChar

StartChar: Lslash
Encoding: 321 321 60
Width: 383
VWidth: 0
Flags: HMW
LayerCount: 2
Fore
SplineSet
73 92 m 0
 73 156 127 205 191 205 c 0
 257 205 313 154 313 90 c 0
 313 23 257 -31 191 -31 c 0
 125 -31 73 25 73 92 c 0
EndSplineSet
Colour: ffffff
EndChar

StartChar: M
Encoding: 77 77 61
Width: 1664
VWidth: 1691
Flags: MW
LayerCount: 2
Fore
SplineSet
24 0 m 1
 35 74 l 1
 202 121 l 1
 275 1126 l 1
 92 1168 l 1
 102 1244 l 1
 505 1244 l 1
 583 1050 l 1
 845 313 l 1
 1152 1083 l 1
 1223 1244 l 1
 1618 1244 l 1
 1608 1168 l 1
 1440 1130 l 1
 1492 114 l 1
 1674 80 l 1
 1664 0 l 1
 1128 0 l 1
 1139 74 l 1
 1305 121 l 1
 1249 1004 l 1
 868 50 l 1
 740 31 l 1
 397 967 l 1
 334 114 l 1
 517 80 l 1
 504 0 l 1
 24 0 l 1
EndSplineSet
Colour: ffffff
EndChar

StartChar: N
Encoding: 78 78 62
Width: 1337
VWidth: 1691
Flags: MW
LayerCount: 2
Fore
SplineSet
50 1168 m 1
 61 1244 l 1
 411 1244 l 1
 1054 274 l 1
 1054 1126 l 1
 869 1168 l 1
 881 1244 l 1
 1356 1244 l 1
 1343 1168 l 1
 1176 1130 l 1
 1176 1 l 1
 1023 -30 l 1
 360 961 l 1
 360 114 l 1
 543 80 l 1
 532 0 l 1
 57 0 l 1
 65 74 l 1
 232 121 l 1
 232 1117 l 1
 50 1168 l 1
EndSplineSet
Colour: ffffff
EndChar

StartChar: Nacute
Encoding: 323 323 63
Width: 383
VWidth: 0
Flags: HMW
LayerCount: 2
Fore
SplineSet
73 92 m 0
 73 156 127 205 191 205 c 0
 257 205 313 154 313 90 c 0
 313 23 257 -31 191 -31 c 0
 125 -31 73 25 73 92 c 0
EndSplineSet
Colour: ffffff
EndChar

StartChar: Ncaron
Encoding: 327 327 64
Width: 383
VWidth: 0
Flags: HMW
LayerCount: 2
Fore
SplineSet
73 92 m 0
 73 156 127 205 191 205 c 0
 257 205 313 154 313 90 c 0
 313 23 257 -31 191 -31 c 0
 125 -31 73 25 73 92 c 0
EndSplineSet
Colour: ffffff
EndChar

StartChar: Ncommaaccent
Encoding: 325 325 65
Width: 383
VWidth: 0
Flags: HMW
LayerCount: 2
Fore
SplineSet
73 92 m 0
 73 156 127 205 191 205 c 0
 257 205 313 154 313 90 c 0
 313 23 257 -31 191 -31 c 0
 125 -31 73 25 73 92 c 0
EndSplineSet
Colour: ffffff
EndChar

StartChar: Ntilde
Encoding: 209 209 66
Width: 383
VWidth: 0
Flags: HMW
LayerCount: 2
Fore
SplineSet
73 92 m 0
 73 156 127 205 191 205 c 0
 257 205 313 154 313 90 c 0
 313 23 257 -31 191 -31 c 0
 125 -31 73 25 73 92 c 0
EndSplineSet
Colour: ffffff
EndChar

StartChar: O
Encoding: 79 79 67
Width: 1322
VWidth: 1691
Flags: MW
LayerCount: 2
Fore
SplineSet
61 619 m 0
 61 1004 308 1272 706 1272 c 0
 1068 1272 1284 970 1284 619 c 0
 1284 274 1051 -27 636 -27 c 0
 291 -27 61 257 61 619 c 0
283 676 m 0
 283 382 398 79 686 79 c 0
 990 79 1062 330 1062 573 c 0
 1062 856 945 1176 658 1176 c 0
 358 1176 283 937 283 676 c 0
EndSplineSet
Colour: ffffff
EndChar

StartChar: OE
Encoding: 338 338 68
Width: 383
VWidth: 0
Flags: HMW
LayerCount: 2
Fore
SplineSet
73 92 m 0
 73 156 127 205 191 205 c 0
 257 205 313 154 313 90 c 0
 313 23 257 -31 191 -31 c 0
 125 -31 73 25 73 92 c 0
EndSplineSet
Colour: ffffff
EndChar

StartChar: Oacute
Encoding: 211 211 69
Width: 383
VWidth: 0
Flags: HMW
LayerCount: 2
Fore
SplineSet
73 92 m 0
 73 156 127 205 191 205 c 0
 257 205 313 154 313 90 c 0
 313 23 257 -31 191 -31 c 0
 125 -31 73 25 73 92 c 0
EndSplineSet
Colour: ffffff
EndChar

StartChar: Ocaron
Encoding: 465 465 70
Width: 383
VWidth: 0
Flags: HMW
LayerCount: 2
Fore
SplineSet
73 92 m 0
 73 156 127 205 191 205 c 0
 257 205 313 154 313 90 c 0
 313 23 257 -31 191 -31 c 0
 125 -31 73 25 73 92 c 0
EndSplineSet
Colour: ffffff
EndChar

StartChar: Ocircumflex
Encoding: 212 212 71
Width: 383
VWidth: 0
Flags: HMW
LayerCount: 2
Fore
SplineSet
73 92 m 0
 73 156 127 205 191 205 c 0
 257 205 313 154 313 90 c 0
 313 23 257 -31 191 -31 c 0
 125 -31 73 25 73 92 c 0
EndSplineSet
Colour: ffffff
EndChar

StartChar: Odieresis
Encoding: 214 214 72
Width: 383
VWidth: 0
Flags: HMW
LayerCount: 2
Fore
SplineSet
73 92 m 0
 73 156 127 205 191 205 c 0
 257 205 313 154 313 90 c 0
 313 23 257 -31 191 -31 c 0
 125 -31 73 25 73 92 c 0
EndSplineSet
Colour: ffffff
EndChar

StartChar: Ograve
Encoding: 210 210 73
Width: 383
VWidth: 0
Flags: HMW
LayerCount: 2
Fore
SplineSet
73 92 m 0
 73 156 127 205 191 205 c 0
 257 205 313 154 313 90 c 0
 313 23 257 -31 191 -31 c 0
 125 -31 73 25 73 92 c 0
EndSplineSet
Colour: ffffff
EndChar

StartChar: Ohungarumlaut
Encoding: 336 336 74
Width: 383
VWidth: 0
Flags: HMW
LayerCount: 2
Fore
SplineSet
73 92 m 0
 73 156 127 205 191 205 c 0
 257 205 313 154 313 90 c 0
 313 23 257 -31 191 -31 c 0
 125 -31 73 25 73 92 c 0
EndSplineSet
Colour: ffffff
EndChar

StartChar: Omacron
Encoding: 332 332 75
Width: 383
VWidth: 0
Flags: HMW
LayerCount: 2
Fore
SplineSet
73 92 m 0
 73 156 127 205 191 205 c 0
 257 205 313 154 313 90 c 0
 313 23 257 -31 191 -31 c 0
 125 -31 73 25 73 92 c 0
EndSplineSet
Colour: ffffff
EndChar

StartChar: Oslash
Encoding: 216 216 76
Width: 383
VWidth: 0
Flags: HMW
LayerCount: 2
Fore
SplineSet
73 92 m 0
 73 156 127 205 191 205 c 0
 257 205 313 154 313 90 c 0
 313 23 257 -31 191 -31 c 0
 125 -31 73 25 73 92 c 0
EndSplineSet
Colour: ffffff
EndChar

StartChar: Otilde
Encoding: 213 213 77
Width: 383
VWidth: 0
Flags: HMW
LayerCount: 2
Fore
SplineSet
73 92 m 0
 73 156 127 205 191 205 c 0
 257 205 313 154 313 90 c 0
 313 23 257 -31 191 -31 c 0
 125 -31 73 25 73 92 c 0
EndSplineSet
Colour: ffffff
EndChar

StartChar: P
Encoding: 80 80 78
Width: 1009
VWidth: 1691
Flags: MW
LayerCount: 2
Fore
SplineSet
50 0 m 1
 61 74 l 1
 228 121 l 1
 228 1104 l 1
 57 1134 l 1
 67 1211 l 1
 196 1230 372 1255 543 1255 c 0
 804 1255 1045 1184 1045 892 c 0
 1045 655 827 494 584 494 c 0
 548 494 515 496 484 497 c 1
 466 580 l 1
 519 581 l 2
 734 587 838 678 838 856 c 0
 838 1027 750 1172 522 1172 c 0
 482 1172 420 1166 420 1166 c 1
 420 122 l 1
 657 83 l 1
 643 0 l 1
 50 0 l 1
EndSplineSet
Colour: ffffff
EndChar

StartChar: Q
Encoding: 81 81 79
Width: 1334
VWidth: 1691
Flags: MW
LayerCount: 2
Fore
SplineSet
61 608 m 0
 61 994 325 1272 721 1272 c 0
 1078 1272 1299 980 1299 629 c 0
 1299 335 1122 68 818 -6 c 1
 877 -141 963 -228 1250 -275 c 1
 1250 -299 1247 -333 1241 -351 c 1
 1179 -381 1121 -385 1065 -385 c 0
 884 -385 721 -249 703 -21 c 1
 693 -24 653 -27 638 -27 c 0
 293 -27 61 246 61 608 c 0
263 679 m 0
 263 439 369 88 749 67 c 1
 1019 134 1092 336 1092 563 c 0
 1092 857 928 1168 664 1168 c 0
 413 1168 263 989 263 679 c 0
EndSplineSet
Colour: ffffff
EndChar

StartChar: R
Encoding: 82 82 80
Width: 1213
VWidth: 1691
Flags: MW
LayerCount: 2
Fore
SplineSet
50 0 m 1
 61 74 l 1
 228 121 l 1
 228 1100 l 1
 57 1130 l 1
 67 1207 l 1
 214 1230 375 1253 523 1253 c 0
 820 1253 1025 1176 1025 943 c 0
 1025 814 926 666 738 599 c 1
 738 598 l 1
 918 349 l 2
 1035 187 1087 114 1211 77 c 2
 1244 67 l 1
 1229 -1 l 1
 1186 -16 1146 -21 1109 -21 c 0
 950 -21 840 98 753 253 c 2
 594 537 l 1
 420 537 l 1
 420 126 l 1
 608 83 l 1
 598 0 l 1
 50 0 l 1
420 628 m 1
 618 628 l 1
 717 661 818 745 818 887 c 0
 818 1051 717 1169 540 1169 c 0
 470 1169 420 1164 420 1164 c 1
 420 628 l 1
EndSplineSet
Colour: ffffff
EndChar

StartChar: Racute
Encoding: 340 340 81
Width: 383
VWidth: 0
Flags: HMW
LayerCount: 2
Fore
SplineSet
73 92 m 0
 73 156 127 205 191 205 c 0
 257 205 313 154 313 90 c 0
 313 23 257 -31 191 -31 c 0
 125 -31 73 25 73 92 c 0
EndSplineSet
Colour: ffffff
EndChar

StartChar: Rcaron
Encoding: 344 344 82
Width: 383
VWidth: 0
Flags: HMW
LayerCount: 2
Fore
SplineSet
73 92 m 0
 73 156 127 205 191 205 c 0
 257 205 313 154 313 90 c 0
 313 23 257 -31 191 -31 c 0
 125 -31 73 25 73 92 c 0
EndSplineSet
Colour: ffffff
EndChar

StartChar: Rcommaaccent
Encoding: 342 342 83
Width: 383
VWidth: 0
Flags: HMW
LayerCount: 2
Fore
SplineSet
73 92 m 0
 73 156 127 205 191 205 c 0
 257 205 313 154 313 90 c 0
 313 23 257 -31 191 -31 c 0
 125 -31 73 25 73 92 c 0
EndSplineSet
Colour: ffffff
EndChar

StartChar: S
Encoding: 83 83 84
Width: 863
VWidth: 1691
Flags: MW
LayerCount: 2
Fore
SplineSet
66 122 m 5
 79 389 l 5
 181 375 l 5
 220 187 l 5
 256 130 333 77 426 77 c 4
 531 77 663 139 663 287 c 4
 663 547 90 544 90 916 c 4
 90 1143 282 1269 479 1269 c 4
 587 1269 682 1235 761 1169 c 5
 761 1161 739 887 739 887 c 5
 640 899 l 5
 615 1090 l 5
 597 1126 525 1185 445 1185 c 4
 345 1185 263 1126 263 995 c 4
 263 708 847 730 847 354 c 4
 847 124 630 -24 402 -24 c 4
 258 -24 130 43 66 122 c 5
EndSplineSet
Colour: ffffff
EndChar

StartChar: Sacute
Encoding: 346 346 85
Width: 383
VWidth: 0
Flags: HMW
LayerCount: 2
Fore
SplineSet
73 92 m 0
 73 156 127 205 191 205 c 0
 257 205 313 154 313 90 c 0
 313 23 257 -31 191 -31 c 0
 125 -31 73 25 73 92 c 0
EndSplineSet
Colour: ffffff
EndChar

StartChar: Scaron
Encoding: 352 352 86
Width: 383
VWidth: 0
Flags: HMW
LayerCount: 2
Fore
SplineSet
73 92 m 0
 73 156 127 205 191 205 c 0
 257 205 313 154 313 90 c 0
 313 23 257 -31 191 -31 c 0
 125 -31 73 25 73 92 c 0
EndSplineSet
Colour: ffffff
EndChar

StartChar: Scedilla
Encoding: 350 350 87
Width: 383
VWidth: 0
Flags: HMW
LayerCount: 2
Fore
SplineSet
73 92 m 0
 73 156 127 205 191 205 c 0
 257 205 313 154 313 90 c 0
 313 23 257 -31 191 -31 c 0
 125 -31 73 25 73 92 c 0
EndSplineSet
Colour: ffffff
EndChar

StartChar: Scommaaccent
Encoding: 536 536 88
Width: 383
VWidth: 0
Flags: HMW
LayerCount: 2
Fore
SplineSet
73 92 m 0
 73 156 127 205 191 205 c 0
 257 205 313 154 313 90 c 0
 313 23 257 -31 191 -31 c 0
 125 -31 73 25 73 92 c 0
EndSplineSet
Colour: ffffff
EndChar

StartChar: T
Encoding: 84 84 89
Width: 1119
VWidth: 1691
Flags: MW
LayerCount: 2
Fore
SplineSet
23 1244 m 1
 1134 1244 l 1
 1100 906 l 1
 1005 921 l 1
 967 1152 l 1
 662 1152 l 1
 662 114 l 1
 847 80 l 1
 833 0 l 1
 294 0 l 1
 301 74 l 1
 470 121 l 1
 470 1152 l 1
 175 1152 l 1
 122 909 l 1
 31 922 l 1
 23 1244 l 1
EndSplineSet
Colour: ffffff
EndChar

StartChar: Tbar
Encoding: 358 358 90
Width: 383
VWidth: 0
Flags: HMW
LayerCount: 2
Fore
SplineSet
73 92 m 0
 73 156 127 205 191 205 c 0
 257 205 313 154 313 90 c 0
 313 23 257 -31 191 -31 c 0
 125 -31 73 25 73 92 c 0
EndSplineSet
Colour: ffffff
EndChar

StartChar: Tcaron
Encoding: 356 356 91
Width: 383
VWidth: 0
Flags: HMW
LayerCount: 2
Fore
SplineSet
73 92 m 0
 73 156 127 205 191 205 c 0
 257 205 313 154 313 90 c 0
 313 23 257 -31 191 -31 c 0
 125 -31 73 25 73 92 c 0
EndSplineSet
Colour: ffffff
EndChar

StartChar: Tcedilla
Encoding: 354 354 92
Width: 383
VWidth: 0
Flags: HMW
LayerCount: 2
Fore
SplineSet
73 92 m 0
 73 156 127 205 191 205 c 0
 257 205 313 154 313 90 c 0
 313 23 257 -31 191 -31 c 0
 125 -31 73 25 73 92 c 0
EndSplineSet
Colour: ffffff
EndChar

StartChar: Tcommaaccent
Encoding: 538 538 93
Width: 383
VWidth: 0
Flags: HMW
LayerCount: 2
Fore
SplineSet
73 92 m 0
 73 156 127 205 191 205 c 0
 257 205 313 154 313 90 c 0
 313 23 257 -31 191 -31 c 0
 125 -31 73 25 73 92 c 0
EndSplineSet
Colour: ffffff
EndChar

StartChar: Thorn
Encoding: 222 222 94
Width: 383
VWidth: 0
Flags: HMW
LayerCount: 2
Fore
SplineSet
73 92 m 0
 73 156 127 205 191 205 c 0
 257 205 313 154 313 90 c 0
 313 23 257 -31 191 -31 c 0
 125 -31 73 25 73 92 c 0
EndSplineSet
Colour: ffffff
EndChar

StartChar: U
Encoding: 85 85 95
Width: 1369
VWidth: 1691
Flags: MW
LayerCount: 2
Fore
SplineSet
22 1168 m 1
 35 1244 l 1
 577 1244 l 1
 568 1168 l 1
 399 1130 l 1
 399 510 l 2
 399 225 542 105 747 105 c 0
 949 105 1071 221 1072 482 c 2
 1075 1126 l 1
 892 1168 l 1
 902 1244 l 1
 1380 1244 l 1
 1369 1168 l 1
 1203 1130 l 1
 1198 515 l 2
 1195 155 1044 -27 697 -27 c 0
 466 -27 206 48 206 469 c 2
 206 1126 l 1
 22 1168 l 1
EndSplineSet
Colour: ffffff
EndChar

StartChar: Uacute
Encoding: 218 218 96
Width: 383
VWidth: 0
Flags: HMW
LayerCount: 2
Fore
SplineSet
73 92 m 0
 73 156 127 205 191 205 c 0
 257 205 313 154 313 90 c 0
 313 23 257 -31 191 -31 c 0
 125 -31 73 25 73 92 c 0
EndSplineSet
Colour: ffffff
EndChar

StartChar: Ucaron
Encoding: 467 467 97
Width: 383
VWidth: 0
Flags: HMW
LayerCount: 2
Fore
SplineSet
73 92 m 0
 73 156 127 205 191 205 c 0
 257 205 313 154 313 90 c 0
 313 23 257 -31 191 -31 c 0
 125 -31 73 25 73 92 c 0
EndSplineSet
Colour: ffffff
EndChar

StartChar: Ucircumflex
Encoding: 219 219 98
Width: 383
VWidth: 0
Flags: HMW
LayerCount: 2
Fore
SplineSet
73 92 m 0
 73 156 127 205 191 205 c 0
 257 205 313 154 313 90 c 0
 313 23 257 -31 191 -31 c 0
 125 -31 73 25 73 92 c 0
EndSplineSet
Colour: ffffff
EndChar

StartChar: Udieresis
Encoding: 220 220 99
Width: 383
VWidth: 0
Flags: HMW
LayerCount: 2
Fore
SplineSet
73 92 m 0
 73 156 127 205 191 205 c 0
 257 205 313 154 313 90 c 0
 313 23 257 -31 191 -31 c 0
 125 -31 73 25 73 92 c 0
EndSplineSet
Colour: ffffff
EndChar

StartChar: Udieresisacute
Encoding: 471 471 100
Width: 383
VWidth: 0
Flags: HMW
LayerCount: 2
Fore
SplineSet
73 92 m 0
 73 156 127 205 191 205 c 0
 257 205 313 154 313 90 c 0
 313 23 257 -31 191 -31 c 0
 125 -31 73 25 73 92 c 0
EndSplineSet
Colour: ffffff
EndChar

StartChar: Udieresiscaron
Encoding: 473 473 101
Width: 383
VWidth: 0
Flags: HMW
LayerCount: 2
Fore
SplineSet
73 92 m 0
 73 156 127 205 191 205 c 0
 257 205 313 154 313 90 c 0
 313 23 257 -31 191 -31 c 0
 125 -31 73 25 73 92 c 0
EndSplineSet
Colour: ffffff
EndChar

StartChar: Udieresisgrave
Encoding: 475 475 102
Width: 383
VWidth: 0
Flags: HMW
LayerCount: 2
Fore
SplineSet
73 92 m 0
 73 156 127 205 191 205 c 0
 257 205 313 154 313 90 c 0
 313 23 257 -31 191 -31 c 0
 125 -31 73 25 73 92 c 0
EndSplineSet
Colour: ffffff
EndChar

StartChar: Udieresismacron
Encoding: 469 469 103
Width: 383
VWidth: 0
Flags: HMW
LayerCount: 2
Fore
SplineSet
73 92 m 0
 73 156 127 205 191 205 c 0
 257 205 313 154 313 90 c 0
 313 23 257 -31 191 -31 c 0
 125 -31 73 25 73 92 c 0
EndSplineSet
Colour: ffffff
EndChar

StartChar: Ugrave
Encoding: 217 217 104
Width: 383
VWidth: 0
Flags: HMW
LayerCount: 2
Fore
SplineSet
73 92 m 0
 73 156 127 205 191 205 c 0
 257 205 313 154 313 90 c 0
 313 23 257 -31 191 -31 c 0
 125 -31 73 25 73 92 c 0
EndSplineSet
Colour: ffffff
EndChar

StartChar: Uhungarumlaut
Encoding: 368 368 105
Width: 383
VWidth: 0
Flags: HMW
LayerCount: 2
Fore
SplineSet
73 92 m 0
 73 156 127 205 191 205 c 0
 257 205 313 154 313 90 c 0
 313 23 257 -31 191 -31 c 0
 125 -31 73 25 73 92 c 0
EndSplineSet
Colour: ffffff
EndChar

StartChar: Umacron
Encoding: 362 362 106
Width: 383
VWidth: 0
Flags: HMW
LayerCount: 2
Fore
SplineSet
73 92 m 0
 73 156 127 205 191 205 c 0
 257 205 313 154 313 90 c 0
 313 23 257 -31 191 -31 c 0
 125 -31 73 25 73 92 c 0
EndSplineSet
Colour: ffffff
EndChar

StartChar: Uogonek
Encoding: 370 370 107
Width: 383
VWidth: 0
Flags: HMW
LayerCount: 2
Fore
SplineSet
73 92 m 0
 73 156 127 205 191 205 c 0
 257 205 313 154 313 90 c 0
 313 23 257 -31 191 -31 c 0
 125 -31 73 25 73 92 c 0
EndSplineSet
Colour: ffffff
EndChar

StartChar: Uring
Encoding: 366 366 108
Width: 383
VWidth: 0
Flags: HMW
LayerCount: 2
Fore
SplineSet
73 92 m 0
 73 156 127 205 191 205 c 0
 257 205 313 154 313 90 c 0
 313 23 257 -31 191 -31 c 0
 125 -31 73 25 73 92 c 0
EndSplineSet
Colour: ffffff
EndChar

StartChar: V
Encoding: 86 86 109
Width: 1284
VWidth: 1691
Flags: MW
LayerCount: 2
Fore
SplineSet
-21 1168 m 1
 -11 1244 l 1
 527 1244 l 1
 517 1168 l 1
 347 1130 l 1
 660 251 l 1
 980 1126 l 1
 798 1168 l 1
 805 1244 l 1
 1260 1244 l 1
 1253 1168 l 1
 1121 1130 l 1
 696 4 l 1
 544 -24 l 1
 126 1126 l 1
 -21 1168 l 1
EndSplineSet
Colour: ffffff
EndChar

StartChar: W
Encoding: 87 87 110
Width: 1844
VWidth: 1691
Flags: MW
LayerCount: 2
Fore
SplineSet
-11 1168 m 1
 -2 1244 l 1
 512 1244 l 1
 497 1168 l 1
 330 1130 l 1
 572 271 l 1
 853 1194 l 1
 1029 1219 l 1
 1277 287 l 1
 1538 1126 l 1
 1357 1168 l 1
 1368 1244 l 1
 1817 1244 l 1
 1806 1168 l 1
 1683 1130 l 1
 1318 4 l 1
 1164 -24 l 1
 902 951 l 1
 617 4 l 1
 454 -24 l 1
 129 1126 l 1
 -11 1168 l 1
EndSplineSet
Colour: ffffff
EndChar

StartChar: Wacute
Encoding: 7810 7810 111
Width: 1789
VWidth: 0
Flags: MW
LayerCount: 2
Fore
SplineSet
-11 1168 m 1
 -2 1244 l 1
 512 1244 l 1
 497 1168 l 1
 330 1130 l 1
 572 271 l 1
 853 1194 l 1
 1029 1219 l 1
 1277 287 l 1
 1538 1126 l 1
 1357 1168 l 1
 1368 1244 l 1
 1817 1244 l 1
 1806 1168 l 1
 1683 1130 l 1
 1318 4 l 1
 1164 -24 l 1
 902 951 l 1
 617 4 l 1
 454 -24 l 1
 129 1126 l 1
 -11 1168 l 1
902 1385 m 1
 1025 1710 l 1
 1136 1670 l 1
 953 1354 l 1
 902 1385 l 1
EndSplineSet
Colour: ffffff
EndChar

StartChar: Wcircumflex
Encoding: 372 372 112
Width: 383
VWidth: 0
Flags: HMW
LayerCount: 2
Fore
SplineSet
73 92 m 0
 73 156 127 205 191 205 c 0
 257 205 313 154 313 90 c 0
 313 23 257 -31 191 -31 c 0
 125 -31 73 25 73 92 c 0
EndSplineSet
Colour: ffffff
EndChar

StartChar: Wdieresis
Encoding: 7812 7812 113
Width: 1789
VWidth: 0
Flags: MW
LayerCount: 2
Fore
SplineSet
-11 1168 m 1
 -2 1244 l 1
 512 1244 l 1
 497 1168 l 1
 330 1130 l 1
 572 271 l 1
 853 1194 l 1
 1029 1219 l 1
 1277 287 l 1
 1538 1126 l 1
 1357 1168 l 1
 1368 1244 l 1
 1817 1244 l 1
 1806 1168 l 1
 1683 1130 l 1
 1318 4 l 1
 1164 -24 l 1
 902 951 l 1
 617 4 l 1
 454 -24 l 1
 129 1126 l 1
 -11 1168 l 1
722 1453 m 0
 722 1500 767 1530 807 1530 c 0
 851 1530 892 1499 892 1453 c 0
 892 1404 851 1373 807 1373 c 0
 764 1373 722 1404 722 1453 c 0
989 1453 m 0
 989 1500 1035 1530 1075 1530 c 0
 1119 1530 1163 1499 1163 1453 c 0
 1163 1404 1119 1373 1075 1373 c 0
 1032 1373 989 1404 989 1453 c 0
EndSplineSet
Colour: ffffff
EndChar

StartChar: Wgrave
Encoding: 7808 7808 114
Width: 1789
VWidth: 0
Flags: MW
LayerCount: 2
Fore
SplineSet
-11 1168 m 1
 -2 1244 l 1
 512 1244 l 1
 497 1168 l 1
 330 1130 l 1
 572 271 l 1
 853 1194 l 1
 1029 1219 l 1
 1277 287 l 1
 1538 1126 l 1
 1357 1168 l 1
 1368 1244 l 1
 1817 1244 l 1
 1806 1168 l 1
 1683 1130 l 1
 1318 4 l 1
 1164 -24 l 1
 902 951 l 1
 617 4 l 1
 454 -24 l 1
 129 1126 l 1
 -11 1168 l 1
721 1664 m 1
 836 1702 l 1
 968 1368 l 1
 910 1334 l 1
 721 1664 l 1
EndSplineSet
Colour: ffffff
EndChar

StartChar: X
Encoding: 88 88 115
Width: 1202
VWidth: 1691
Flags: MW
LayerCount: 2
Fore
SplineSet
-1 0 m 1
 11 76 l 1
 138 121 l 1
 504 615 l 1
 165 1123 l 1
 28 1166 l 1
 40 1244 l 1
 553 1244 l 1
 543 1166 l 1
 386 1121 l 1
 633 750 l 1
 904 1126 l 1
 734 1166 l 1
 747 1244 l 1
 1182 1244 l 1
 1174 1168 l 1
 1047 1130 l 1
 709 657 l 1
 1050 114 l 1
 1185 80 l 1
 1172 0 l 1
 669 0 l 1
 682 74 l 1
 842 121 l 1
 580 529 l 1
 288 117 l 1
 454 83 l 1
 439 0 l 1
 -1 0 l 1
EndSplineSet
Colour: ffffff
EndChar

StartChar: Y
Encoding: 89 89 116
Width: 1210
VWidth: 1691
Flags: MW
LayerCount: 2
Fore
SplineSet
-21 1168 m 1
 -8 1244 l 1
 500 1244 l 1
 488 1168 l 1
 330 1130 l 1
 607 640 l 1
 871 1126 l 1
 688 1168 l 1
 698 1244 l 1
 1143 1244 l 1
 1133 1168 l 1
 1008 1130 l 1
 663 529 l 1
 663 114 l 1
 826 80 l 1
 816 0 l 1
 310 0 l 1
 320 74 l 1
 470 121 l 1
 470 504 l 1
 117 1126 l 1
 -21 1168 l 1
EndSplineSet
Colour: ffffff
EndChar

StartChar: Yacute
Encoding: 221 221 117
Width: 383
VWidth: 0
Flags: HMW
LayerCount: 2
Fore
SplineSet
73 92 m 0
 73 156 127 205 191 205 c 0
 257 205 313 154 313 90 c 0
 313 23 257 -31 191 -31 c 0
 125 -31 73 25 73 92 c 0
EndSplineSet
Colour: ffffff
EndChar

StartChar: Ycircumflex
Encoding: 374 374 118
Width: 383
VWidth: 0
Flags: HMW
LayerCount: 2
Fore
SplineSet
73 92 m 0
 73 156 127 205 191 205 c 0
 257 205 313 154 313 90 c 0
 313 23 257 -31 191 -31 c 0
 125 -31 73 25 73 92 c 0
EndSplineSet
Colour: ffffff
EndChar

StartChar: Ydieresis
Encoding: 376 376 119
Width: 383
VWidth: 0
Flags: HMW
LayerCount: 2
Fore
SplineSet
73 92 m 0
 73 156 127 205 191 205 c 0
 257 205 313 154 313 90 c 0
 313 23 257 -31 191 -31 c 0
 125 -31 73 25 73 92 c 0
EndSplineSet
Colour: ffffff
EndChar

StartChar: Z
Encoding: 90 90 121
Width: 1009
VWidth: 1691
Flags: MW
LayerCount: 2
Fore
SplineSet
47 104 m 1
 792 1149 l 1
 255 1149 l 1
 178 903 l 1
 88 921 l 1
 98 1244 l 1
 1026 1244 l 1
 1026 1168 l 1
 262 100 l 1
 832 100 l 1
 955 351 l 1
 1048 335 l 1
 991 0 l 1
 55 0 l 1
 47 104 l 1
EndSplineSet
Colour: ffffff
EndChar

StartChar: Zacute
Encoding: 377 377 122
Width: 383
VWidth: 0
Flags: HMW
LayerCount: 2
Fore
SplineSet
73 92 m 0
 73 156 127 205 191 205 c 0
 257 205 313 154 313 90 c 0
 313 23 257 -31 191 -31 c 0
 125 -31 73 25 73 92 c 0
EndSplineSet
Colour: ffffff
EndChar

StartChar: Zcaron
Encoding: 381 381 123
Width: 383
VWidth: 0
Flags: HMW
LayerCount: 2
Fore
SplineSet
73 92 m 0
 73 156 127 205 191 205 c 0
 257 205 313 154 313 90 c 0
 313 23 257 -31 191 -31 c 0
 125 -31 73 25 73 92 c 0
EndSplineSet
Colour: ffffff
EndChar

StartChar: Zdotaccent
Encoding: 379 379 124
Width: 383
VWidth: 0
Flags: HMW
LayerCount: 2
Fore
SplineSet
73 92 m 0
 73 156 127 205 191 205 c 0
 257 205 313 154 313 90 c 0
 313 23 257 -31 191 -31 c 0
 125 -31 73 25 73 92 c 0
EndSplineSet
Colour: ffffff
EndChar

StartChar: a
Encoding: 97 97 125
Width: 830
VWidth: 0
Flags: MW
LayerCount: 2
Fore
SplineSet
47 168 m 4
 47 315 182 462 508 485 c 5
 508 540 l 6
 508 675 469 807 331 807 c 4
 235 807 234 756 220 592 c 5
 167 592 81 596 81 695 c 4
 81 804 285 900 423 900 c 4
 601 900 670 804 670 593 c 6
 670 230 l 6
 670 138 689 111 782 96 c 6
 832 87 l 5
 819 1 l 5
 772 -5 742 -18 683 -18 c 4
 567 -18 528 57 528 116 c 6
 528 131 l 5
 517 131 l 5
 490 78 407 -24 243 -24 c 4
 138 -24 47 46 47 168 c 4
222 215 m 4
 222 165 260 99 334 99 c 4
 404 99 475 151 508 188 c 5
 508 428 l 5
 290 385 222 311 222 215 c 4
EndSplineSet
Colour: ffffff
EndChar

StartChar: aacute
Encoding: 225 225 126
Width: 383
VWidth: 0
Flags: HMW
LayerCount: 2
Fore
SplineSet
73 92 m 0
 73 156 127 205 191 205 c 0
 257 205 313 154 313 90 c 0
 313 23 257 -31 191 -31 c 0
 125 -31 73 25 73 92 c 0
EndSplineSet
Colour: ffffff
EndChar

StartChar: abreve
Encoding: 259 259 127
Width: 383
VWidth: 0
Flags: HMW
LayerCount: 2
Fore
SplineSet
73 92 m 0
 73 156 127 205 191 205 c 0
 257 205 313 154 313 90 c 0
 313 23 257 -31 191 -31 c 0
 125 -31 73 25 73 92 c 0
EndSplineSet
Colour: ffffff
EndChar

StartChar: acaron
Encoding: 462 462 128
Width: 383
VWidth: 0
Flags: HMW
LayerCount: 2
Fore
SplineSet
73 92 m 0
 73 156 127 205 191 205 c 0
 257 205 313 154 313 90 c 0
 313 23 257 -31 191 -31 c 0
 125 -31 73 25 73 92 c 0
EndSplineSet
Colour: ffffff
EndChar

StartChar: acircumflex
Encoding: 226 226 129
Width: 383
VWidth: 0
Flags: HMW
LayerCount: 2
Fore
SplineSet
73 92 m 0
 73 156 127 205 191 205 c 0
 257 205 313 154 313 90 c 0
 313 23 257 -31 191 -31 c 0
 125 -31 73 25 73 92 c 0
EndSplineSet
Colour: ffffff
EndChar

StartChar: acute
Encoding: 180 180 130
Width: 383
VWidth: 0
Flags: HMW
LayerCount: 2
Fore
SplineSet
73 92 m 0
 73 156 127 205 191 205 c 0
 257 205 313 154 313 90 c 0
 313 23 257 -31 191 -31 c 0
 125 -31 73 25 73 92 c 0
EndSplineSet
Colour: ffffff
EndChar

StartChar: adieresis
Encoding: 228 228 131
Width: 383
VWidth: 0
Flags: HMW
LayerCount: 2
Fore
SplineSet
73 92 m 0
 73 156 127 205 191 205 c 0
 257 205 313 154 313 90 c 0
 313 23 257 -31 191 -31 c 0
 125 -31 73 25 73 92 c 0
EndSplineSet
Colour: ffffff
EndChar

StartChar: ae
Encoding: 230 230 132
Width: 383
VWidth: 0
Flags: HMW
LayerCount: 2
Fore
SplineSet
73 92 m 0
 73 156 127 205 191 205 c 0
 257 205 313 154 313 90 c 0
 313 23 257 -31 191 -31 c 0
 125 -31 73 25 73 92 c 0
EndSplineSet
Colour: ffffff
EndChar

StartChar: agrave
Encoding: 224 224 133
Width: 383
VWidth: 0
Flags: HMW
LayerCount: 2
Fore
SplineSet
73 92 m 0
 73 156 127 205 191 205 c 0
 257 205 313 154 313 90 c 0
 313 23 257 -31 191 -31 c 0
 125 -31 73 25 73 92 c 0
EndSplineSet
Colour: ffffff
EndChar

StartChar: amacron
Encoding: 257 257 134
Width: 383
VWidth: 0
Flags: HMW
LayerCount: 2
Fore
SplineSet
73 92 m 0
 73 156 127 205 191 205 c 0
 257 205 313 154 313 90 c 0
 313 23 257 -31 191 -31 c 0
 125 -31 73 25 73 92 c 0
EndSplineSet
Colour: ffffff
EndChar

StartChar: ampersand
Encoding: 38 38 135
Width: 1281
VWidth: 0
Flags: MW
LayerCount: 2
Back
SplineSet
1232 723 m 1
 966 353 l 1
 1017 287 1164 105 1250 79 c 2
 1282 69 l 1
 1255 0 l 1
 1210 -15 1169 -20 1131 -20 c 0
 1020 -20 922 92 826 218 c 1
 745 126 603 -20 378 -20 c 0
 157 -20 40 136 68 314 c 0
 99 509 282 631 419 702 c 1
 368 752 299 855 317 974 c 0
 340 1123 508 1272 680 1272 c 0
 840 1272 989 1209 958 1011 c 0
 937 881 791 783 672 717 c 1
 670 705 l 1
 907 423 l 1
 1121 720 l 1
 960 761 l 1
 981 837 l 1
 1430 837 l 1
 1409 761 l 1
 1232 723 l 1
472 629 m 1
 457 631 l 1
 383 585 286 500 269 393 c 0
 248 254 305 106 457 106 c 0
 607 106 739 244 765 282 c 1
 472 629 l 1
613 773 m 1
 717 836 769 892 784 988 c 0
 801 1094 753 1187 647 1187 c 0
 556 1187 498 1100 486 1024 c 0
 471 928 559 824 613 773 c 1
EndSplineSet
Fore
SplineSet
33 313 m 0
 33 468 125 596 310 701 c 1
 246 755 178 860 178 974 c 0
 178 1130 334 1271 494 1271 c 0
 675 1271 786 1192 786 1011 c 0
 786 909 707 808 556 716 c 1
 556 705 l 1
 787 449 l 1
 964 719 l 1
 813 761 l 1
 823 837 l 1
 1255 837 l 1
 1245 761 l 1
 1075 722 l 1
 859 380 l 1
 1027 199 1143 97 1202 79 c 2
 1235 70 l 1
 1220 0 l 1
 1183 -13 1143 -19 1100 -19 c 0
 989 -19 903 66 844 128 c 2
 756 218 l 1
 664 84 569 -19 380 -19 c 0
 175 -19 33 111 33 313 c 0
221 393 m 0
 221 242 288 105 439 105 c 0
 556 105 646 205 685 282 c 1
 372 629 l 1
 355 632 l 1
 287 585 221 503 221 393 c 0
338 1024 m 0
 338 924 427 820 488 773 c 1
 566 826 616 872 616 988 c 0
 616 1098 579 1188 474 1188 c 0
 389 1188 338 1107 338 1024 c 0
EndSplineSet
Colour: ffffff
EndChar

StartChar: aogonek
Encoding: 261 261 136
Width: 383
VWidth: 0
Flags: HMW
LayerCount: 2
Fore
SplineSet
73 92 m 0
 73 156 127 205 191 205 c 0
 257 205 313 154 313 90 c 0
 313 23 257 -31 191 -31 c 0
 125 -31 73 25 73 92 c 0
EndSplineSet
Colour: ffffff
EndChar

StartChar: approxequal
Encoding: 8776 8776 137
Width: 921
VWidth: 0
Flags: MW
LayerCount: 2
Back
SplineSet
3.39062 725 m 5
 -18.6094 925 63.3906 1146 339.391 1079 c 6
 681.391 996 l 6
 750.391 980 787.391 1085 787.391 1085 c 5
 961.391 1067 l 5
 959.391 789 832.391 675 587.391 739 c 6
 272.391 821 l 6
 189.391 843 181.391 715 181.391 715 c 5
 3.39062 725 l 5
3.39062 322 m 5
 -18.6094 522 63.3906 743 339.391 676 c 6
 681.391 593 l 6
 750.391 577 787.391 682 787.391 682 c 5
 961.391 664 l 5
 959.391 386 832.391 272 587.391 336 c 6
 272.391 418 l 6
 189.391 440 181.391 312 181.391 312 c 5
 3.39062 322 l 5
EndSplineSet
Fore
SplineSet
70 383 m 0
 64 469 130 595 260 582 c 2
 709 538 l 2
 746 534 780 552 792 598 c 1
 856 597 l 1
 858 480 787 382 658 395 c 2
 208 440 l 2
 159 445 132 387 126 370 c 1
 70 383 l 0
70 700 m 1
 64 808 127.896 910.945 260 898 c 2
 709 854 l 2
 760.485 848.277 783 880 792 915 c 1
 856 913 l 1
 861 793 804 698 658 712 c 2
 208 756 l 2
 140.859 762.564 126 687 126 687 c 1
 70 700 l 1
EndSplineSet
Colour: ffffff
EndChar

StartChar: aring
Encoding: 229 229 138
Width: 383
VWidth: 0
Flags: HMW
LayerCount: 2
Fore
SplineSet
73 92 m 0
 73 156 127 205 191 205 c 0
 257 205 313 154 313 90 c 0
 313 23 257 -31 191 -31 c 0
 125 -31 73 25 73 92 c 0
EndSplineSet
Colour: ffffff
EndChar

StartChar: asciicircum
Encoding: 94 94 139
Width: 720
VWidth: 0
Flags: MW
LayerCount: 2
Fore
SplineSet
42 826 m 1
 331 1237 l 1
 386 1250 l 1
 681 824 l 1
 624 787 l 1
 353 1073 l 1
 343 1073 l 1
 92 793 l 1
 42 826 l 1
EndSplineSet
Colour: ffffff
EndChar

StartChar: asciitilde
Encoding: 126 126 140
Width: 947
VWidth: 0
Flags: MW
LayerCount: 2
Fore
SplineSet
83 412 m 2
 83 412 142 624 274 611 c 2
 724 566 l 2
 761 563 806 628 806 628 c 1
 870 626 l 2
 870 626 808 409 672 424 c 2
 222 469 l 2
 182 473 138 399 138 399 c 1
 83 412 l 2
EndSplineSet
Colour: ffffff
EndChar

StartChar: asterisk
Encoding: 42 42 141
Width: 808
VWidth: 0
Flags: MW
LayerCount: 2
Fore
SplineSet
328 1292 m 1
 464 1279 l 1
 438 988 l 1
 727 1119 l 1
 756 989 l 1
 471 921 l 1
 690 692 l 1
 572 623 l 1
 419 870 l 1
 264 593 l 1
 162 685 l 1
 355 904 l 1
 43 964 l 1
 98 1091 l 1
 365 977 l 1
 328 1292 l 1
EndSplineSet
Colour: ffffff
EndChar

StartChar: at
Encoding: 64 64 142
Width: 1367
VWidth: 0
Flags: MW
LayerCount: 2
Fore
SplineSet
54 325 m 0
 54 723 356 1044 787 1044 c 0
 1067 1044 1306 863 1306 589 c 0
 1306 319 1106 70 832 70 c 0
 764 70 735 117 738 187 c 1
 728 187 l 1
 688 128 617 59 541 59 c 0
 436 59 360 155 360 326 c 0
 360 611 590 789 758 789 c 0
 811 789 867 786 924 773 c 1
 943 751 l 1
 902 385 l 2
 892.534 300.5 866.279 168 914 168 c 0
 1065 168 1173 346 1173 549 c 0
 1173 810 987 955 751 955 c 0
 422 955 209 665 209 351 c 0
 209 56 399 -135 727 -135 c 0
 877 -135 1032 -59 1079 -19 c 1
 1115 -83 l 1
 1026 -136 906 -228 691 -228 c 0
 387 -228 54 -77 54 325 c 0
516 368 m 0
 516 217 551 181 601 181 c 0
 654 181 705 214 739 254 c 1
 792 692 l 1
 773 696 735 703 704 703 c 0
 588 703 516 522 516 368 c 0
EndSplineSet
Colour: ffffff
EndChar

StartChar: atilde
Encoding: 227 227 143
Width: 383
VWidth: 0
Flags: HMW
LayerCount: 2
Fore
SplineSet
73 92 m 0
 73 156 127 205 191 205 c 0
 257 205 313 154 313 90 c 0
 313 23 257 -31 191 -31 c 0
 125 -31 73 25 73 92 c 0
EndSplineSet
Colour: ffffff
EndChar

StartChar: b
Encoding: 98 98 144
Width: 955
VWidth: 0
Flags: MW
LayerCount: 2
Fore
SplineSet
-15 1161 m 1
 -2 1237 l 1
 275 1258 l 1
 299 1235 l 1
 299 849 l 1
 285 744 l 1
 296 744 l 1
 375 833 468 899 581 899 c 0
 775 899 904 725 904 472 c 0
 904 155 671 -23 411 -23 c 0
 321 -23 216 -1 136 49 c 1
 136 1108 l 1
 -15 1161 l 1
299 155 m 1
 339 115 423 87 510 87 c 0
 624 87 725 185 725 408 c 0
 725 556 684 768 513 768 c 0
 457 768 378 755 299 672 c 1
 299 155 l 1
EndSplineSet
Colour: ffffff
EndChar

StartChar: backslash
Encoding: 92 92 145
Width: 677
VWidth: 0
Flags: MW
LayerCount: 2
Fore
SplineSet
37 1274 m 1
 171 1266 l 1
 632 -376 l 1
 504 -368 l 1
 37 1274 l 1
EndSplineSet
Colour: ffffff
EndChar

StartChar: bar
Encoding: 124 124 146
Width: 331
VWidth: 0
Flags: MW
LayerCount: 2
Fore
SplineSet
109 -366 m 1
 109 1260 l 1
 224 1248 l 1
 224 -380 l 1
 109 -366 l 1
EndSplineSet
Colour: ffffff
EndChar

StartChar: braceleft
Encoding: 123 123 147
Width: 551
VWidth: 0
Flags: MW
LayerCount: 2
Fore
SplineSet
4 389 m 1
 4 488 l 1
 53 497 l 1
 345 547 17 1255 426 1255 c 2
 527 1255 l 1
 518 1155 l 1
 436 1149 l 2
 368 1143 364 1044 364 921 c 2
 364 862 l 2
 364 687 356 491 194 445 c 1
 194 438 l 1
 492 352 265 -259 449 -271 c 2
 523 -277 l 1
 531 -378 l 1
 429 -378 l 2
 14 -378 343 335 56 381 c 2
 4 389 l 1
EndSplineSet
Colour: ffffff
EndChar

StartChar: braceright
Encoding: 125 125 148
Width: 553
VWidth: 0
Flags: MW
LayerCount: 2
Fore
SplineSet
22 -378 m 1
 31 -277 l 1
 105 -271 l 2
 289 -259 62 352 360 438 c 1
 360 445 l 1
 62 515 292 1134 117 1149 c 2
 35 1155 l 1
 28 1255 l 1
 129 1255 l 2
 538 1255 208 547 500 497 c 1
 549 488 l 1
 549 389 l 1
 497 381 l 2
 210 335 541 -378 126 -378 c 2
 22 -378 l 1
EndSplineSet
Colour: ffffff
EndChar

StartChar: bracketleft
Encoding: 91 91 149
Width: 474
VWidth: 0
Flags: MW
LayerCount: 2
Fore
SplineSet
109 -376 m 1
 109 1255 l 1
 463 1255 l 1
 474 1166 l 1
 260 1146 l 1
 260 -260 l 1
 476 -279 l 1
 466 -375 l 1
 109 -376 l 1
EndSplineSet
Colour: ffffff
EndChar

StartChar: bracketright
Encoding: 93 93 150
Width: 474
VWidth: 0
Flags: MW
LayerCount: 2
Fore
SplineSet
0 -279 m 1
 217 -260 l 1
 217 1146 l 1
 1 1166 l 1
 13 1255 l 1
 366 1255 l 1
 368 -376 l 1
 10 -375 l 1
 0 -279 l 1
EndSplineSet
Colour: ffffff
EndChar

StartChar: breve
Encoding: 728 728 151
Width: 383
VWidth: 0
Flags: HMW
LayerCount: 2
Fore
SplineSet
73 92 m 0
 73 156 127 205 191 205 c 0
 257 205 313 154 313 90 c 0
 313 23 257 -31 191 -31 c 0
 125 -31 73 25 73 92 c 0
EndSplineSet
Colour: ffffff
EndChar

StartChar: brokenbar
Encoding: 166 166 152
Width: 383
VWidth: 0
Flags: HMW
LayerCount: 2
Back
SplineSet
177 -350 m 1
 301 431 l 1
 410 419 l 1
 286 -363 l 1
 177 -350 l 1
319 540 m 1
 431 1255 l 1
 540 1244 l 1
 423 528 l 1
 319 540 l 1
EndSplineSet
Fore
SplineSet
73 92 m 0
 73 156 127 205 191 205 c 0
 257 205 313 154 313 90 c 0
 313 23 257 -31 191 -31 c 0
 125 -31 73 25 73 92 c 0
EndSplineSet
Colour: ffffff
EndChar

StartChar: bullet
Encoding: 8226 8226 153
Width: 494
VWidth: 0
Flags: MW
LayerCount: 2
Fore
SplineSet
71 575 m 0
 71 668 153 741 246 741 c 0
 342 741 423 666 423 573 c 0
 423 474 342 395 246 395 c 0
 150 395 71 476 71 575 c 0
EndSplineSet
Colour: ffffff
EndChar

StartChar: c
Encoding: 99 99 154
Width: 778
VWidth: 0
Flags: MW
LayerCount: 2
Fore
SplineSet
50 415 m 0
 50 712 258 900 475 900 c 0
 642 900 716 826 716 747 c 0
 716 688 672 648 589 642 c 1
 561 709 515 806 428 806 c 0
 309 806 231 688 231 507 c 0
 231 340 320 90 528 90 c 0
 627 90 683 121 730 151 c 1
 755 93 l 1
 702 29 574 -30 445 -30 c 0
 205 -30 50 175 50 415 c 0
EndSplineSet
Colour: ffffff
EndChar

StartChar: cacute
Encoding: 263 263 155
Width: 383
VWidth: 0
Flags: HMW
LayerCount: 2
Fore
SplineSet
73 92 m 0
 73 156 127 205 191 205 c 0
 257 205 313 154 313 90 c 0
 313 23 257 -31 191 -31 c 0
 125 -31 73 25 73 92 c 0
EndSplineSet
Colour: ffffff
EndChar

StartChar: caron
Encoding: 711 711 156
Width: 383
VWidth: 0
Flags: HMW
LayerCount: 2
Fore
SplineSet
73 92 m 0
 73 156 127 205 191 205 c 0
 257 205 313 154 313 90 c 0
 313 23 257 -31 191 -31 c 0
 125 -31 73 25 73 92 c 0
EndSplineSet
Colour: ffffff
EndChar

StartChar: ccaron
Encoding: 269 269 157
Width: 383
VWidth: 0
Flags: HMW
LayerCount: 2
Fore
SplineSet
73 92 m 0
 73 156 127 205 191 205 c 0
 257 205 313 154 313 90 c 0
 313 23 257 -31 191 -31 c 0
 125 -31 73 25 73 92 c 0
EndSplineSet
Colour: ffffff
EndChar

StartChar: ccedilla
Encoding: 231 231 158
Width: 383
VWidth: 0
Flags: HMW
LayerCount: 2
Fore
SplineSet
73 92 m 0
 73 156 127 205 191 205 c 0
 257 205 313 154 313 90 c 0
 313 23 257 -31 191 -31 c 0
 125 -31 73 25 73 92 c 0
EndSplineSet
Colour: ffffff
EndChar

StartChar: cdotaccent
Encoding: 267 267 159
Width: 383
VWidth: 0
Flags: HMW
LayerCount: 2
Fore
SplineSet
73 92 m 0
 73 156 127 205 191 205 c 0
 257 205 313 154 313 90 c 0
 313 23 257 -31 191 -31 c 0
 125 -31 73 25 73 92 c 0
EndSplineSet
Colour: ffffff
EndChar

StartChar: cedilla
Encoding: 184 184 160
Width: 383
VWidth: 0
Flags: HMW
LayerCount: 2
Fore
SplineSet
73 92 m 0
 73 156 127 205 191 205 c 0
 257 205 313 154 313 90 c 0
 313 23 257 -31 191 -31 c 0
 125 -31 73 25 73 92 c 0
EndSplineSet
Colour: ffffff
EndChar

StartChar: cent
Encoding: 162 162 161
Width: 383
VWidth: 0
Flags: HMW
LayerCount: 2
Fore
SplineSet
73 92 m 0
 73 156 127 205 191 205 c 0
 257 205 313 154 313 90 c 0
 313 23 257 -31 191 -31 c 0
 125 -31 73 25 73 92 c 0
EndSplineSet
Colour: ffffff
EndChar

StartChar: circumflex
Encoding: 710 710 162
Width: 383
VWidth: 0
Flags: HMW
LayerCount: 2
Fore
SplineSet
73 92 m 0
 73 156 127 205 191 205 c 0
 257 205 313 154 313 90 c 0
 313 23 257 -31 191 -31 c 0
 125 -31 73 25 73 92 c 0
EndSplineSet
Colour: ffffff
EndChar

StartChar: colon
Encoding: 58 58 163
Width: 422
VWidth: 0
Flags: MW
LayerCount: 2
Back
SplineSet
439 1235 m 21
 571 1244 l 13
 106 -355 l 21
 -23 -363 l 13
 439 1235 l 21
EndSplineSet
Fore
SplineSet
99 119 m 0
 99 178 151 224 212 224 c 0
 273 224 325 176 325 117 c 0
 325 53 273 1 212 1 c 0
 150 1 99 55 99 119 c 0
99 747 m 0
 99 808 151 853 212 853 c 0
 273 853 325 805 325 744 c 0
 325 680 273 629 212 629 c 0
 150 629 99 683 99 747 c 0
EndSplineSet
Colour: ffffff
EndChar

StartChar: comma
Encoding: 44 44 164
Width: 434
VWidth: 0
Flags: MW
LayerCount: 2
Back
SplineSet
-18 -244 m 1
 117 -209 192 -125 192 -61 c 0
 192 -7 162 36 91 36 c 0
 81 36 73 33 61 30 c 1
 56 51 54 61 54 84 c 0
 54 167 147 218 198 218 c 0
 267 218 345 183 345 31 c 0
 345 -65 267 -245 -7 -314 c 1
 -18 -244 l 1
EndSplineSet
Fore
SplineSet
54 -244 m 1
 185 -210 236 -134 236 -70 c 0
 236 -14 190 36 120 36 c 0
 110 36 100 35 90 34 c 1
 82 55 76 74 76 97 c 0
 76 177 148 218 198 218 c 0
 268 218 372 161 372 10 c 0
 372 -83 340 -243 77 -313 c 1
 54 -244 l 1
EndSplineSet
Colour: ffffff
EndChar

StartChar: commaaccent
Encoding: 806 806 165
Width: 383
VWidth: 0
Flags: HMW
LayerCount: 2
Fore
SplineSet
73 92 m 0
 73 156 127 205 191 205 c 0
 257 205 313 154 313 90 c 0
 313 23 257 -31 191 -31 c 0
 125 -31 73 25 73 92 c 0
EndSplineSet
Colour: ffffff
EndChar

StartChar: copyright
Encoding: 169 169 166
Width: 383
VWidth: 0
Flags: HMW
LayerCount: 2
Back
SplineSet
874 1191 m 0
 568 1191 268 948 268 509 c 0
 268 273 388 68 694 68 c 0
 1008 68 1311 309 1311 743 c 0
 1311 971 1186 1191 874 1191 c 0
1425 765 m 0
 1425 248 1055 -26 670 -26 c 0
 305 -26 152 229 152 492 c 0
 152 974 516 1282 888 1282 c 0
 1266 1282 1425 1023 1425 765 c 0
EndSplineSet
Fore
SplineSet
73 92 m 0
 73 156 127 205 191 205 c 0
 257 205 313 154 313 90 c 0
 313 23 257 -31 191 -31 c 0
 125 -31 73 25 73 92 c 0
EndSplineSet
Colour: ffffff
EndChar

StartChar: currency
Encoding: 164 164 167
Width: 383
VWidth: 0
Flags: HMW
LayerCount: 2
Fore
SplineSet
73 92 m 0
 73 156 127 205 191 205 c 0
 257 205 313 154 313 90 c 0
 313 23 257 -31 191 -31 c 0
 125 -31 73 25 73 92 c 0
EndSplineSet
Colour: ffffff
EndChar

StartChar: d
Encoding: 100 100 168
Width: 987
VWidth: 0
Flags: MW
LayerCount: 2
Fore
SplineSet
54 399 m 0
 54 690 285 900 491 900 c 0
 557 900 630 880 663 856 c 1
 670 856 l 1
 658 984 l 1
 658 1111 l 1
 506 1166 l 1
 520 1241 l 1
 798 1265 l 1
 819 1241 l 1
 819 215 l 2
 819 110 862 104 928 89 c 2
 973 79 l 1
 962 -4 l 1
 903 -19 877 -23 815 -23 c 0
 715 -23 666 41 666 124 c 2
 666 131 l 1
 657 131 l 1
 601 54 518 -21 380 -21 c 0
 203 -21 54 124 54 399 c 0
230 462 m 0
 230 225 325 105 451 105 c 0
 534 105 623 157 657 197 c 1
 657 666 l 1
 604 753 510 802 443 802 c 0
 286 802 230 653 230 462 c 0
EndSplineSet
Colour: ffffff
EndChar

StartChar: dagger
Encoding: 8224 8224 169
Width: 797
VWidth: 0
Flags: MW
LayerCount: 2
Fore
SplineSet
37 712 m 1
 45 827 l 1
 342 819 l 1
 334 1255 l 1
 467 1244 l 1
 458 819 l 1
 764 827 l 1
 756 705 l 1
 458 716 l 1
 473 -363 l 1
 328 -351 l 1
 342 718 l 1
 37 712 l 1
EndSplineSet
Colour: ffffff
EndChar

StartChar: daggerdbl
Encoding: 8225 8225 170
Width: 829
VWidth: 0
Flags: MW
LayerCount: 2
Fore
SplineSet
52 712 m 1
 59 827 l 1
 354 819 l 1
 347 1255 l 1
 480 1244 l 1
 470 819 l 1
 774 827 l 1
 768 705 l 1
 470 716 l 1
 461 429 l 1
 464 174 l 1
 777 181 l 1
 771 64 l 1
 464 73 l 1
 473 -363 l 1
 340 -352 l 1
 350 73 l 1
 62 64 l 1
 70 187 l 1
 350 175 l 1
 357 498 l 1
 354 718 l 1
 52 712 l 1
EndSplineSet
Colour: ffffff
EndChar

StartChar: dcaron
Encoding: 271 271 171
Width: 383
VWidth: 0
Flags: HMW
LayerCount: 2
Fore
SplineSet
73 92 m 0
 73 156 127 205 191 205 c 0
 257 205 313 154 313 90 c 0
 313 23 257 -31 191 -31 c 0
 125 -31 73 25 73 92 c 0
EndSplineSet
Colour: ffffff
EndChar

StartChar: dcroat
Encoding: 273 273 172
Width: 383
VWidth: 0
Flags: HMW
LayerCount: 2
Fore
SplineSet
73 92 m 0
 73 156 127 205 191 205 c 0
 257 205 313 154 313 90 c 0
 313 23 257 -31 191 -31 c 0
 125 -31 73 25 73 92 c 0
EndSplineSet
Colour: ffffff
EndChar

StartChar: degree
Encoding: 176 176 173
Width: 383
VWidth: 0
Flags: HMW
LayerCount: 2
Fore
SplineSet
73 92 m 0
 73 156 127 205 191 205 c 0
 257 205 313 154 313 90 c 0
 313 23 257 -31 191 -31 c 0
 125 -31 73 25 73 92 c 0
EndSplineSet
Colour: ffffff
EndChar

StartChar: dieresis
Encoding: 168 168 174
Width: 383
VWidth: 0
Flags: HMW
LayerCount: 2
Back
SplineSet
720 1542 m 0
 765 1542 801 1511 794 1465 c 0
 786 1415 740 1384 695 1384 c 0
 652 1384 615 1415 623 1465 c 0
 631 1513 679 1542 720 1542 c 0
453 1542 m 0
 498 1542 532 1511 525 1465 c 0
 517 1415 473 1384 428 1384 c 0
 385 1384 347 1415 355 1465 c 0
 363 1513 412 1542 453 1542 c 0
540 1255 m 0
EndSplineSet
Fore
SplineSet
73 92 m 0
 73 156 127 205 191 205 c 0
 257 205 313 154 313 90 c 0
 313 23 257 -31 191 -31 c 0
 125 -31 73 25 73 92 c 0
EndSplineSet
Colour: ffffff
EndChar

StartChar: dieresiscomb
Encoding: 776 776 175
Width: 383
VWidth: 0
Flags: HMW
LayerCount: 2
Fore
SplineSet
73 92 m 0
 73 156 127 205 191 205 c 0
 257 205 313 154 313 90 c 0
 313 23 257 -31 191 -31 c 0
 125 -31 73 25 73 92 c 0
EndSplineSet
Colour: ffffff
EndChar

StartChar: divide
Encoding: 247 247 176
Width: 383
VWidth: 0
Flags: HMW
LayerCount: 2
Fore
SplineSet
73 92 m 0
 73 156 127 205 191 205 c 0
 257 205 313 154 313 90 c 0
 313 23 257 -31 191 -31 c 0
 125 -31 73 25 73 92 c 0
EndSplineSet
Colour: ffffff
EndChar

StartChar: dollar
Encoding: 36 36 177
Width: 859
VWidth: 0
Flags: MW
LayerCount: 2
Back
SplineSet
888 885 m 1
 814 902 l 1
 796 1093 l 2
 794 1110 753 1151 697 1171 c 1
 628 730 l 1
 772 636 937 541 907 353 c 0
 876 153 692 20 495 -15 c 1
 479 -111 l 1
 380 -111 l 1
 395 -25 l 1
 390 -25 l 2
 245 -25 135 30 71 122 c 1
 126 390 l 1
 206 377 l 1
 228 187 l 1
 263 123 333 77 411 74 c 1
 484 527 l 1
 345 615 204 730 235 930 c 0
 268 1140 434 1247 611 1267 c 1
 624 1343 l 1
 723 1343 l 1
 712 1268 l 1
 791 1261 885 1235 951 1166 c 1
 949 1158 888 885 888 885 c 1
537 781 m 1
 599 1182 l 1
 513 1172 449 1119 431 1002 c 0
 416 910 453 827 537 781 c 1
576 494 m 1
 512 86 l 1
 600 107 688 167 708 291 c 0
 720 367 660 438 576 494 c 1
EndSplineSet
Fore
SplineSet
66 122 m 1
 79 389 l 1
 181 375 l 1
 220 187 l 1
 256 130 333 77 426 77 c 0
 531 77 663 139 663 287 c 0
 663 547 90 544 90 916 c 0
 90 1143 282 1269 479 1269 c 0
 587 1269 682 1235 761 1169 c 1
 761 1161 739 887 739 887 c 1
 640 899 l 1
 615 1090 l 1
 597 1126 525 1185 445 1185 c 0
 345 1185 263 1126 263 995 c 0
 263 708 847 730 847 354 c 0
 847 124 630 -24 402 -24 c 0
 258 -24 130 43 66 122 c 1
367 -179 m 1
 379 9 l 1
 416 54 l 1
 416 631 l 1
 421 700 l 1
 421 1207 l 1
 385 1242 l 1
 370 1394 l 1
 535 1409 l 1
 518 1242 l 1
 483 1202 l 1
 483 666 l 1
 486 582 l 1
 486 54 l 1
 527 20 l 1
 540 -164 l 1
 367 -179 l 1
EndSplineSet
Colour: ffffff
EndChar

StartChar: dotaccent
Encoding: 729 729 178
Width: 383
VWidth: 0
Flags: HMW
LayerCount: 2
Fore
SplineSet
73 92 m 0
 73 156 127 205 191 205 c 0
 257 205 313 154 313 90 c 0
 313 23 257 -31 191 -31 c 0
 125 -31 73 25 73 92 c 0
EndSplineSet
Colour: ffffff
EndChar

StartChar: dotaccentcomb
Encoding: 775 775 179
Width: 383
VWidth: 0
Flags: HMW
LayerCount: 2
Fore
SplineSet
73 92 m 0
 73 156 127 205 191 205 c 0
 257 205 313 154 313 90 c 0
 313 23 257 -31 191 -31 c 0
 125 -31 73 25 73 92 c 0
EndSplineSet
Colour: ffffff
EndChar

StartChar: dotbelowcomb
Encoding: 803 803 180
Width: 383
VWidth: 0
Flags: HMW
LayerCount: 2
Fore
SplineSet
73 92 m 0
 73 156 127 205 191 205 c 0
 257 205 313 154 313 90 c 0
 313 23 257 -31 191 -31 c 0
 125 -31 73 25 73 92 c 0
EndSplineSet
Colour: ffffff
EndChar

StartChar: dotlessi
Encoding: 305 305 181
Width: 383
VWidth: 0
Flags: HMW
LayerCount: 2
Fore
SplineSet
73 92 m 0
 73 156 127 205 191 205 c 0
 257 205 313 154 313 90 c 0
 313 23 257 -31 191 -31 c 0
 125 -31 73 25 73 92 c 0
EndSplineSet
Colour: ffffff
EndChar

StartChar: e
Encoding: 101 101 182
Width: 802
VWidth: 0
Flags: MW
LayerCount: 2
Fore
SplineSet
53 428 m 0
 53 728 270 899 464 899 c 0
 609 899 731 792 731 581 c 0
 731 550 723 485 715 451 c 1
 231 445 l 1
 239 288 323 102 510 102 c 0
 582.547 102 634.143 101.457 737 157 c 1
 758 104 l 1
 679 21 561 -30 429 -30 c 0
 241 -30 53 124 53 428 c 0
233 523 m 1
 547 546 l 1
 551 562 553 599 553 615 c 0
 553 734 511 801 415 801 c 0
 335 801 243 717 233 523 c 1
EndSplineSet
Colour: ffffff
EndChar

StartChar: eacute
Encoding: 233 233 183
Width: 383
VWidth: 0
Flags: HMW
LayerCount: 2
Fore
SplineSet
73 92 m 0
 73 156 127 205 191 205 c 0
 257 205 313 154 313 90 c 0
 313 23 257 -31 191 -31 c 0
 125 -31 73 25 73 92 c 0
EndSplineSet
Colour: ffffff
EndChar

StartChar: ecaron
Encoding: 283 283 184
Width: 383
VWidth: 0
Flags: HMW
LayerCount: 2
Fore
SplineSet
73 92 m 0
 73 156 127 205 191 205 c 0
 257 205 313 154 313 90 c 0
 313 23 257 -31 191 -31 c 0
 125 -31 73 25 73 92 c 0
EndSplineSet
Colour: ffffff
EndChar

StartChar: ecircumflex
Encoding: 234 234 185
Width: 383
VWidth: 0
Flags: HMW
LayerCount: 2
Fore
SplineSet
73 92 m 0
 73 156 127 205 191 205 c 0
 257 205 313 154 313 90 c 0
 313 23 257 -31 191 -31 c 0
 125 -31 73 25 73 92 c 0
EndSplineSet
Colour: ffffff
EndChar

StartChar: edieresis
Encoding: 235 235 186
Width: 383
VWidth: 0
Flags: HMW
LayerCount: 2
Fore
SplineSet
73 92 m 0
 73 156 127 205 191 205 c 0
 257 205 313 154 313 90 c 0
 313 23 257 -31 191 -31 c 0
 125 -31 73 25 73 92 c 0
EndSplineSet
Colour: ffffff
EndChar

StartChar: edotaccent
Encoding: 279 279 187
Width: 383
VWidth: 0
Flags: HMW
LayerCount: 2
Fore
SplineSet
73 92 m 0
 73 156 127 205 191 205 c 0
 257 205 313 154 313 90 c 0
 313 23 257 -31 191 -31 c 0
 125 -31 73 25 73 92 c 0
EndSplineSet
Colour: ffffff
EndChar

StartChar: egrave
Encoding: 232 232 188
Width: 383
VWidth: 0
Flags: HMW
LayerCount: 2
Fore
SplineSet
73 92 m 0
 73 156 127 205 191 205 c 0
 257 205 313 154 313 90 c 0
 313 23 257 -31 191 -31 c 0
 125 -31 73 25 73 92 c 0
EndSplineSet
Colour: ffffff
EndChar

StartChar: eight
Encoding: 56 56 189
Width: 982
VWidth: 1651
Flags: MW
LayerCount: 2
Back
SplineSet
494 542 m 1xe8
 463 517 463 517 433 492 c 0
 413 475 394 458 377 438 c 0
 360 418 349 394 339 368 c 0
 329 342 324 310 324 274 c 0
 324 248 327 222 337 197 c 0
 347 172 360 149 377 129 c 0
 394 109 412 95 433 83 c 0
 454 71 477 64 502 64 c 0
 586 64 646 84 684 122 c 0
 722 160 740 209 740 272 c 0
 740 297 733 321 718 344 c 0
 703 367 685 392 662 413 c 0
 639 434 615 458 585 479 c 0
 542 512 540 511 494 542 c 1xe8
159 236 m 0
 159 304 183 365 231 419 c 0
 279 473 349 525 443 576 c 1
 444 585 l 1
 429 595 411 607 393 624 c 0
 375 641 357 659 340 680 c 0
 323 701 311 727 301 753 c 0
 291 779 286 806 286 836 c 0
 286 879 296 921 317 961 c 0
 338 1001 365 1036 400 1067 c 0
 435 1098 476 1123 522 1143 c 0
 568 1163 616 1173 667 1173 c 0
 710 1173 748 1166 781 1153 c 0
 814 1140 842 1124 865 1103 c 0
 888 1082 905 1055 917 1027 c 0
 929 999 935 968 935 935 c 0xd4
 935 904 929 870 917 839 c 0
 905 808 889 779 869 751 c 0
 849 723 824 700 796 679 c 0
 768 658 738 643 707 631 c 1
 704 621 l 1
 763 580 813 534 849 484 c 0
 885 434 903 381 903 327 c 0
 903 281 893 238 872 195 c 0
 851 152 819 114 779 81 c 0
 739 48 692 23 636 3 c 0
 580 -17 517 -26 446 -26 c 0
 405 -26 367 -20 332 -8 c 0
 297 4 266 20 241 43 c 0
 216 66 197 93 182 126 c 0
 167 159 159 195 159 236 c 0
646 661 m 1
 671 674 692 689 710 704 c 0
 728 719 743 736 755 756 c 0
 767 776 776 797 781 822 c 0
 786 847 789 876 789 907 c 0
 789 965 775 1010 745 1045 c 0
 715 1080 678 1098 633 1098 c 0
 602 1098 575 1092 552 1080 c 0
 529 1068 509 1055 492 1037 c 0
 475 1019 464 999 456 978 c 0
 448 957 443 934 443 913 c 0
 443 863 461 817 499 776 c 0
 537 735 587 697 646 661 c 1
EndSplineSet
Fore
SplineSet
54 280 m 0
 54 393 127 482 287 575 c 1
 287 584 l 1
 191 648 100 732 100 879 c 0
 100 1047 257 1201 451 1201 c 0
 641 1201 770 1077 770 926 c 0
 770 809 680 679 567 639 c 1
 564 629 l 1
 712 521 798 449 798 300 c 0
 798 116 662 -27 396 -27 c 0
 212 -27 54 89 54 280 c 0
243 304 m 0
 243 142 352 61 461 61 c 0
 556 61 628 115 628 236 c 0
 628 349 473 459 354 533 c 1
 288 474 243 442 243 304 c 0
266 955 m 0
 266 862 352 761 497 678 c 1
 571 721 601 771 601 890 c 0
 601 1031 531 1124 426 1124 c 0
 312 1124 266 1035 266 955 c 0
EndSplineSet
Substitution2: "'sups' Superscript lookup 0 subtable" eight.superior
Colour: ffffff
EndChar

StartChar: eight.osf
Encoding: 65539 -1 190
Width: 804
VWidth: 0
Flags: MW
LayerCount: 2
Fore
SplineSet
55 280 m 0
 55 393 127 499 271 589 c 1
 271 598 l 1
 197 642 100 753 100 887 c 0
 100 1055 242 1201 417 1201 c 0
 589 1201 700 1094 700 943 c 0
 700 826 650 731 534 645 c 1
 534 636 l 1
 681 544 752 430 752 308 c 0
 752 124 590 -27 360 -27 c 0
 176 -27 55 89 55 280 c 0
220 304 m 0
 220 185 301 66 406 66 c 0
 519 66 594 132 594 266 c 0
 594 374 475 465 330 555 c 1
 277 515 220 409 220 304 c 0
249 977 m 0
 249 868 325 756 466 676 c 1
 506 720 552 778 552 906 c 0
 552 1014 495 1124 390 1124 c 0
 311 1124 249 1057 249 977 c 0
EndSplineSet
Colour: ffffff
EndChar

StartChar: ellipsis
Encoding: 8230 8230 191
Width: 1301
VWidth: 0
Flags: MW
LayerCount: 2
Fore
SplineSet
74 92 m 0
 74 156 129 205 193 205 c 0
 259 205 313 154 313 90 c 0
 313 23 259 -31 193 -31 c 0
 127 -31 74 25 74 92 c 0
519 92 m 0
 519 156 574 205 638 205 c 0
 704 205 759 154 759 90 c 0
 759 23 704 -31 638 -31 c 0
 572 -31 519 25 519 92 c 0
991 92 m 0
 991 156 1045 205 1109 205 c 0
 1175 205 1231 154 1231 90 c 0
 1231 23 1175 -31 1109 -31 c 0
 1043 -31 991 25 991 92 c 0
EndSplineSet
Colour: ffffff
EndChar

StartChar: emacron
Encoding: 275 275 192
Width: 383
VWidth: 0
Flags: HMW
LayerCount: 2
Fore
SplineSet
73 92 m 0
 73 156 127 205 191 205 c 0
 257 205 313 154 313 90 c 0
 313 23 257 -31 191 -31 c 0
 125 -31 73 25 73 92 c 0
EndSplineSet
Colour: ffffff
EndChar

StartChar: emdash
Encoding: 8212 8212 193
Width: 1306
VWidth: 0
Flags: MW
LayerCount: 2
Fore
SplineSet
87 409 m 1
 102 513 l 1
 1223 520 l 1
 1207 415 l 1
 87 409 l 1
EndSplineSet
Colour: ffffff
EndChar

StartChar: emptyset
Encoding: 8709 8709 194
Width: 1038
VWidth: 0
Flags: MW
LayerCount: 2
Back
SplineSet
65.1133 108.86 m 5
 222.808 229.93 l 5
 247.225 243.156 l 5
 1035.7 950.239 l 5
 1056.05 977.709 l 5
 1183.22 1115.06 l 5
 1246.3 1019.42 l 5
 1101.83 906.492 l 5
 1083.52 901.405 l 5
 285.886 186.182 l 5
 268.59 159.73 l 5
 128.19 12.209 l 5
 65.1133 108.86 l 5
90.5469 557.527 m 4
 90.5469 875.971 373.382 1166.94 666.389 1166.94 c 4
 1017.39 1166.94 1236.12 896.317 1236.12 556.511 c 4
 1236.12 233.999 1015.35 -46.7998 667.406 -46.7998 c 4
 347.946 -46.7998 90.5469 191.269 90.5469 557.527 c 4
200.426 556.511 m 4
 200.426 215.686 437.477 34.5918 668.424 34.5918 c 4
 932.943 34.5918 1125.23 208.564 1125.23 557.527 c 4
 1125.23 897.335 907.509 1080.46 666.389 1080.46 c 4
 401.867 1080.46 200.426 874.953 200.426 556.511 c 4
EndSplineSet
Fore
SplineSet
38 105 m 1
 164 196 l 1
 208 205 l 1
 836 768 l 1
 830 797 l 1
 928 906 l 1
 1013 785 l 1
 898 698 l 1
 873 705 l 1
 238 136 l 1
 230 100 l 1
 123 -17 l 1
 38 105 l 1
72 444 m 0
 72 697 297 929 530 929 c 0
 809 929 984 713 984 443 c 0
 984 186 808 -37 531 -37 c 0
 277 -37 72 152 72 444 c 0
215 443 m 0
 215 194 375 77 531 77 c 0
 710 77 841 188 841 444 c 0
 841 693 693 811 530 811 c 0
 351 811 215 676 215 443 c 0
EndSplineSet
Colour: ffffff
EndChar

StartChar: endash
Encoding: 8211 8211 195
Width: 795
VWidth: 0
Flags: MW
LayerCount: 2
Fore
SplineSet
87 409 m 1
 102 513 l 1
 713 520 l 1
 697 415 l 1
 87 409 l 1
EndSplineSet
Colour: ffffff
EndChar

StartChar: eng
Encoding: 331 331 196
Width: 383
VWidth: 0
Flags: HMW
LayerCount: 2
Fore
SplineSet
73 92 m 0
 73 156 127 205 191 205 c 0
 257 205 313 154 313 90 c 0
 313 23 257 -31 191 -31 c 0
 125 -31 73 25 73 92 c 0
EndSplineSet
Colour: ffffff
EndChar

StartChar: eogonek
Encoding: 281 281 197
Width: 383
VWidth: 0
Flags: HMW
LayerCount: 2
Fore
SplineSet
73 92 m 0
 73 156 127 205 191 205 c 0
 257 205 313 154 313 90 c 0
 313 23 257 -31 191 -31 c 0
 125 -31 73 25 73 92 c 0
EndSplineSet
Colour: ffffff
EndChar

StartChar: equal
Encoding: 61 61 198
Width: 809
VWidth: 0
Flags: MW
LayerCount: 2
Back
SplineSet
162 424 m 1
 776 424 l 1
 748 319 l 1
 134 319 l 1
 162 424 l 1
203 664 m 1
 817 664 l 1
 789 558 l 1
 175 558 l 1
 203 664 l 1
EndSplineSet
Fore
SplineSet
92 319 m 1
 102 424 l 1
 717 424 l 1
 706 319 l 1
 92 319 l 1
95 559 m 1
 105 663 l 1
 721 663 l 1
 709 559 l 1
 95 559 l 1
EndSplineSet
Colour: ffffff
EndChar

StartChar: eth
Encoding: 240 240 199
Width: 383
VWidth: 0
Flags: HMW
LayerCount: 2
Fore
SplineSet
73 92 m 0
 73 156 127 205 191 205 c 0
 257 205 313 154 313 90 c 0
 313 23 257 -31 191 -31 c 0
 125 -31 73 25 73 92 c 0
EndSplineSet
Colour: ffffff
EndChar

StartChar: exclam
Encoding: 33 33 200
Width: 412
VWidth: 0
Flags: MW
LayerCount: 2
Back
SplineSet
345 363 m 1xa0
 344 357 l 1
 258 377 l 1
 258 380 l 1
 284 702 327 1141 344 1250 c 2
 344 1253 l 1
 357 1281 446 1293 482 1293 c 0
 508 1293 545 1284 540 1253 c 0
 514 1085 423 685 345 363 c 1xa0
383 91 m 0xc0
 371 20 307 -36 238 -36 c 0
 169 -36 122 21 134 92 c 0
 144 160 210 210 276 210 c 0
 344 210 393 159 383 91 c 0xc0
EndSplineSet
Fore
SplineSet
83 92 m 0
 83 159 140 210 206 210 c 0
 273 210 331 157 331 90 c 0
 331 20 276 -36 206 -36 c 0
 136 -36 83 22 83 92 c 0
109 1245 m 0
 109 1282 197 1292 240 1292 c 0
 267 1292 304 1284 304 1253 c 0
 304 1084.02 273 675 249 357 c 1
 162 376 l 1
 147 669 109 1072 109 1245 c 0
EndSplineSet
Colour: ffffff
EndChar

StartChar: exclamdown
Encoding: 161 161 201
Width: 383
VWidth: 0
Flags: HMW
LayerCount: 2
Back
SplineSet
284 533 m 1xc0
 286 540 l 1
 372 520 l 1
 372 517 l 1
 346 195 299 -266 282 -375 c 2
 282 -378 l 1
 269 -406 180 -418 144 -418 c 0
 118 -418 81 -409 86 -378 c 0
 112 -210 206 211 284 533 c 1xc0
243 784 m 0xa0
 255 855 319 912 388 912 c 0
 457 912 504 854 492 783 c 0
 482 715 416 666 350 666 c 0
 282 666 233 716 243 784 c 0xa0
EndSplineSet
Fore
SplineSet
73 92 m 0
 73 156 127 205 191 205 c 0
 257 205 313 154 313 90 c 0
 313 23 257 -31 191 -31 c 0
 125 -31 73 25 73 92 c 0
EndSplineSet
Colour: ffffff
EndChar

StartChar: f
Encoding: 102 102 202
Width: 694
VWidth: 0
Flags: MW
LayerCount: 2
Fore
SplineSet
35 0 m 1
 47 73 l 1
 199 116 l 1
 199 784 l 1
 50 784 l 1
 62 857 l 1
 200 879 l 1
 233 1167 433 1304 575 1304 c 0
 680 1304 762 1269 762 1189 c 0
 762 1140 706 1090 673 1077 c 1
 633 1126 559 1198 497 1198 c 0
 423 1198 372 1153 368 981 c 1
 366 873 l 1
 623 873 l 1
 611 784 l 1
 366 784 l 1
 366 121 l 1
 611 83 l 1
 604 0 l 1
 35 0 l 1
EndSplineSet
Colour: ffffff
EndChar

StartChar: five
Encoding: 53 53 203
Width: 982
VWidth: 1651
Flags: MW
LayerCount: 2
Back
SplineSet
266 41 m 1
 416 56 531 91 614 145 c 0
 697 199 740 270 740 358 c 0
 740 441 708 505 644 555 c 0
 580 605 474 634 327 644 c 1
 522 1141 l 1
 960 1169 l 1
 915 1016 l 1
 553 997 l 1
 471 784 l 1
 545 779 611 768 669 748 c 0
 727 728 775 701 813 670 c 0
 851 639 878 605 898 562 c 0
 918 519 928 473 928 423 c 0
 928 369 914 314 888 261 c 0
 862 208 823 159 770 116 c 0
 717 73 648 37 565 7 c 0
 482 -23 385 -41 271 -48 c 1
 266 41 l 1
EndSplineSet
Fore
SplineSet
-19 74 m 1
 7 387 l 1
 92 368 l 1
 113 155 l 1
 153 93 222 67 304 67 c 0
 431 67 513 156 513 290 c 0
 513 494 357 582 57 602 c 1
 176 1169 l 1
 645 1198 l 1
 619 1016 l 1
 232 1000 l 1
 196 762 l 1
 582 740 689 564 689 354 c 0
 689 156 505 -25 260 -25 c 0
 151 -25 55 -3 -19 74 c 1
EndSplineSet
Substitution2: "'sups' Superscript lookup 0 subtable" five.superior
Colour: ffffff
EndChar

StartChar: five.osf
Encoding: 65540 -1 204
Width: 700
VWidth: 0
Flags: MW
LayerCount: 2
Fore
SplineSet
-66 -159 m 0
 -66 -86 -25 -37 34 -26 c 1
 68 -96 146 -206 255 -206 c 0
 384 -206 479 -117 479 80 c 0
 479 278 347 395 76 426 c 1
 179 934 l 1
 623 974 l 1
 598 811 l 1
 240 788 l 1
 209 570 l 1
 516 540 663 376 663 145 c 0
 663 -60 466 -297 202 -297 c 0
 12 -297 -66 -217 -66 -159 c 0
EndSplineSet
Colour: ffffff
EndChar

StartChar: four
Encoding: 52 52 205
Width: 982
VWidth: 1651
Flags: MW
LayerCount: 2
Back
SplineSet
585 348 m 1
 109 348 l 1
 97 421 l 1
 806 1166 l 1
 865 1148 l 1
 860 1120 856 1086 849 1050 c 0
 839 994 839 994 829 931 c 0
 819 868 819 869 809 801 c 0
 802 756 796 712 791 667 c 2
 763 467 l 1
 1009 467 l 1
 976 345 l 1
 745 345 l 1
 700 15 l 1
 532 -12 l 1
 585 348 l 1
657 888 m 1
 269 467 l 1
 598 467 l 1
 657 888 l 1
EndSplineSet
Fore
SplineSet
-21 431 m 1
 621 1194 l 1
 686 1176 l 1
 680 1057 676 864 676 683 c 2
 676 479 l 1
 931 479 l 1
 915 346 l 1
 676 346 l 1
 676 105 l 1
 865 73 l 1
 855 0 l 1
 274 0 l 1
 281 66 l 1
 496 111 l 1
 496 349 l 1
 2 349 l 1
 -21 431 l 1
164 479 m 1
 493 479 l 1
 493 912 l 1
 164 479 l 1
EndSplineSet
Substitution2: "'sups' Superscript lookup 0 subtable" four.superior
Colour: ffffff
EndChar

StartChar: four.osf
Encoding: 65541 -1 206
Width: 940
VWidth: 0
Flags: MW
LayerCount: 2
Fore
SplineSet
-9 164 m 1
 618 986 l 1
 683 968 l 1
 677 849 673 613 673 432 c 2
 673 211 l 1
 927 211 l 1
 910 86 l 1
 675 86 l 1
 675 -267 l 1
 500 -304 l 1
 500 89 l 1
 14 89 l 1
 -9 164 l 1
169 211 m 1
 499 211 l 1
 499 676 l 1
 169 211 l 1
EndSplineSet
Colour: ffffff
EndChar

StartChar: fraction
Encoding: 8260 8260 207
Width: 1736
VWidth: 0
Flags: MW
LayerCount: 2
Fore
SplineSet
123 -10 m 1
 530 588 l 1
 921 1210 l 1
 1087 1207 l 1
 1085 1178 l 1
 684 591 l 1
 313 -32 l 1
 123 -10 l 1
EndSplineSet
Colour: ffffff
EndChar

StartChar: g
Encoding: 103 103 208
Width: 890
VWidth: 0
Flags: MW
LayerCount: 2
Fore
SplineSet
24 -162 m 0
 24 -70 135 -10 184 18 c 1
 184 27 l 1
 122 57 88 107 88 164 c 0
 88 218 181 298 255 328 c 1
 255 335 l 1
 205 348 92 454 92 589 c 0
 92 754 258 896 426 896 c 0
 518 896 586 869 636 833 c 1
 651 833 851 849 851 849 c 1
 871 826 l 1
 832 715 l 1
 816 715 l 1
 693 755 l 1
 693 738 l 1
 706 710 727 649 727 599 c 0
 727 415 540 301 389 301 c 0
 349 301 310 308 299 311 c 1
 276 287 249 254 249 223 c 0
 249 183 276 151 432 151 c 2
 568 151 l 2
 716 151 845 124 845 -50 c 0
 845 -224 614 -386 386 -386 c 0
 202 -386 24 -334 24 -162 c 0
200 -108 m 0
 200 -242 311 -279 440 -279 c 0
 571 -279 676 -232 676 -100 c 0
 676 -11 607 3 426 3 c 2
 252 3 l 1
 252 3 200 -16 200 -108 c 0
252 608 m 0
 252 470 344 380 417 380 c 0
 506 380 564 439 564 580 c 0
 564 688 507 823 402 823 c 0
 300 823 252 739 252 608 c 0
EndSplineSet
Colour: ffffff
EndChar

StartChar: gbreve
Encoding: 287 287 209
Width: 383
VWidth: 0
Flags: HMW
LayerCount: 2
Fore
SplineSet
73 92 m 0
 73 156 127 205 191 205 c 0
 257 205 313 154 313 90 c 0
 313 23 257 -31 191 -31 c 0
 125 -31 73 25 73 92 c 0
EndSplineSet
Colour: ffffff
EndChar

StartChar: gcommaaccent
Encoding: 291 291 210
Width: 383
VWidth: 0
Flags: HMW
LayerCount: 2
Fore
SplineSet
73 92 m 0
 73 156 127 205 191 205 c 0
 257 205 313 154 313 90 c 0
 313 23 257 -31 191 -31 c 0
 125 -31 73 25 73 92 c 0
EndSplineSet
Colour: ffffff
EndChar

StartChar: gdotaccent
Encoding: 289 289 211
Width: 383
VWidth: 0
Flags: HMW
LayerCount: 2
Fore
SplineSet
73 92 m 0
 73 156 127 205 191 205 c 0
 257 205 313 154 313 90 c 0
 313 23 257 -31 191 -31 c 0
 125 -31 73 25 73 92 c 0
EndSplineSet
Colour: ffffff
EndChar

StartChar: germandbls
Encoding: 223 223 212
Width: 383
VWidth: 0
Flags: HMW
LayerCount: 2
Fore
SplineSet
73 92 m 0
 73 156 127 205 191 205 c 0
 257 205 313 154 313 90 c 0
 313 23 257 -31 191 -31 c 0
 125 -31 73 25 73 92 c 0
EndSplineSet
Colour: ffffff
EndChar

StartChar: grave
Encoding: 96 96 213
Width: 535
VWidth: 0
Flags: MW
LayerCount: 2
Fore
SplineSet
122 1659 m 1
 237 1697 l 1
 369 1364 l 1
 313 1329 l 1
 122 1659 l 1
EndSplineSet
Colour: ffffff
EndChar

StartChar: greater
Encoding: 62 62 214
Width: 727
VWidth: 0
Flags: MW
LayerCount: 2
Back
SplineSet
718 428 m 1
 83 -83 l 1
 31 -13 l 1
 487 454 l 1
 195 902 l 1
 263 973 l 1
 722 456 l 1
 718 428 l 1
EndSplineSet
Fore
SplineSet
59 -13 m 1
 519 434 l 1
 79 900 l 1
 135 973 l 1
 755 472 l 1
 756 415 l 1
 122 -83 l 1
 59 -13 l 1
EndSplineSet
Colour: ffffff
EndChar

StartChar: greaterequal
Encoding: 8805 8805 215
Width: 729
VWidth: 0
Flags: MW
LayerCount: 2
Fore
SplineSet
44 -267 m 1
 61 -164 l 1
 670 -157 l 1
 654 -261 l 1
 44 -267 l 1
77 -13 m 1
 458 454 l 1
 96 900 l 1
 153 973 l 1
 693 455 l 1
 694 428 l 1
 138 -83 l 1
 77 -13 l 1
EndSplineSet
Colour: ffffff
EndChar

StartChar: guillemotleft
Encoding: 171 171 216
Width: 383
VWidth: 0
Flags: HMW
LayerCount: 2
Back
SplineSet
401 469 m 1
 725 821 l 1
 760 761 l 1
 547 461 l 1
 664 140 l 1
 601 78 l 1
 400 449 l 1
 401 469 l 1
154 469 m 1
 477 821 l 1
 512 761 l 1
 299 461 l 1
 416 140 l 1
 353 78 l 1
 152 449 l 1
 154 469 l 1
EndSplineSet
Fore
SplineSet
73 92 m 0
 73 156 127 205 191 205 c 0
 257 205 313 154 313 90 c 0
 313 23 257 -31 191 -31 c 0
 125 -31 73 25 73 92 c 0
EndSplineSet
Colour: ffffff
EndChar

StartChar: guillemotright
Encoding: 187 187 217
Width: 383
VWidth: 0
Flags: HMW
LayerCount: 2
Fore
SplineSet
73 92 m 0
 73 156 127 205 191 205 c 0
 257 205 313 154 313 90 c 0
 313 23 257 -31 191 -31 c 0
 125 -31 73 25 73 92 c 0
EndSplineSet
Colour: ffffff
EndChar

StartChar: guilsinglleft
Encoding: 8249 8249 218
Width: 396
VWidth: 0
Flags: MW
LayerCount: 2
Fore
SplineSet
23 469 m 1
 292 820 l 1
 335 761 l 1
 171 461 l 1
 338 141 l 1
 286 77 l 1
 24 449 l 5
 23 469 l 1
EndSplineSet
Colour: ffffff
EndChar

StartChar: guilsinglright
Encoding: 8250 8250 219
Width: 397
VWidth: 0
Flags: MW
LayerCount: 2
Fore
SplineSet
61 141 m 1
 228 461 l 1
 64 761 l 1
 108 820 l 1
 376 469 l 1
 374 449 l 1
 113 77 l 1
 61 141 l 1
EndSplineSet
Colour: ffffff
EndChar

StartChar: h
Encoding: 104 104 220
Width: 1029
VWidth: 0
Flags: MW
LayerCount: 2
Fore
SplineSet
10 0 m 1
 21 79 l 1
 175 116 l 1
 175 1117 l 1
 15 1171 l 1
 27 1247 l 1
 316 1269 l 1
 341 1245 l 1
 341 850 l 1
 325 744 l 1
 335 744 l 1
 418 836 516 900 629 900 c 0
 767 900 872 842 872 599 c 2
 872 114 l 1
 1017 79 l 1
 1005 0 l 1
 556 0 l 1
 568 74 l 1
 703 114 l 1
 706 580 l 2
 706 722 613 764 534 764 c 0
 477 764 411 748 341 675 c 1
 341 116 l 1
 487 80 l 1
 475 0 l 1
 10 0 l 1
EndSplineSet
Colour: ffffff
EndChar

StartChar: hbar
Encoding: 295 295 221
Width: 383
VWidth: 0
Flags: HMW
LayerCount: 2
Fore
SplineSet
73 92 m 0
 73 156 127 205 191 205 c 0
 257 205 313 154 313 90 c 0
 313 23 257 -31 191 -31 c 0
 125 -31 73 25 73 92 c 0
EndSplineSet
Colour: ffffff
EndChar

StartChar: hungarumlaut
Encoding: 733 733 222
Width: 383
VWidth: 0
Flags: HMW
LayerCount: 2
Fore
SplineSet
73 92 m 0
 73 156 127 205 191 205 c 0
 257 205 313 154 313 90 c 0
 313 23 257 -31 191 -31 c 0
 125 -31 73 25 73 92 c 0
EndSplineSet
Colour: ffffff
EndChar

StartChar: hyphen
Encoding: 45 45 223
Width: 581
VWidth: 0
Flags: MW
LayerCount: 2
Back
SplineSet
170 499 m 1xa0
 580 517 l 1
 553 416 l 1x60
 142 398 l 1
 170 499 l 1xa0
EndSplineSet
Fore
SplineSet
81 398 m 1
 92 498 l 1
 500 517 l 1
 489 415 l 1
 81 398 l 1
EndSplineSet
Colour: ffffff
EndChar

StartChar: i
Encoding: 105 105 224
Width: 539
VWidth: 0
Flags: MW
LayerCount: 2
Fore
SplineSet
37 0 m 1
 49 79 l 1
 200 116 l 1
 200 731 l 1
 49 786 l 1
 62 862 l 1
 343 885 l 1
 368 860 l 1
 368 116 l 1
 528 80 l 1
 517 0 l 1
 37 0 l 1
156 1194 m 0
 156 1258 213 1306 275 1306 c 0
 341 1306 397 1256 397 1192 c 0
 397 1125 341 1070 275 1070 c 0
 209 1070 156 1127 156 1194 c 0
EndSplineSet
Colour: ffffff
EndChar

StartChar: iacute
Encoding: 237 237 225
Width: 383
VWidth: 0
Flags: HMW
LayerCount: 2
Fore
SplineSet
73 92 m 0
 73 156 127 205 191 205 c 0
 257 205 313 154 313 90 c 0
 313 23 257 -31 191 -31 c 0
 125 -31 73 25 73 92 c 0
EndSplineSet
Colour: ffffff
EndChar

StartChar: icaron
Encoding: 464 464 226
Width: 383
VWidth: 0
Flags: HMW
LayerCount: 2
Fore
SplineSet
73 92 m 0
 73 156 127 205 191 205 c 0
 257 205 313 154 313 90 c 0
 313 23 257 -31 191 -31 c 0
 125 -31 73 25 73 92 c 0
EndSplineSet
Colour: ffffff
EndChar

StartChar: icircumflex
Encoding: 238 238 227
Width: 383
VWidth: 0
Flags: HMW
LayerCount: 2
Fore
SplineSet
73 92 m 0
 73 156 127 205 191 205 c 0
 257 205 313 154 313 90 c 0
 313 23 257 -31 191 -31 c 0
 125 -31 73 25 73 92 c 0
EndSplineSet
Colour: ffffff
EndChar

StartChar: idieresis
Encoding: 239 239 228
Width: 383
VWidth: 0
Flags: HMW
LayerCount: 2
Fore
SplineSet
73 92 m 0
 73 156 127 205 191 205 c 0
 257 205 313 154 313 90 c 0
 313 23 257 -31 191 -31 c 0
 125 -31 73 25 73 92 c 0
EndSplineSet
Colour: ffffff
EndChar

StartChar: igrave
Encoding: 236 236 229
Width: 383
VWidth: 0
Flags: HMW
LayerCount: 2
Fore
SplineSet
73 92 m 0
 73 156 127 205 191 205 c 0
 257 205 313 154 313 90 c 0
 313 23 257 -31 191 -31 c 0
 125 -31 73 25 73 92 c 0
EndSplineSet
Colour: ffffff
EndChar

StartChar: imacron
Encoding: 299 299 230
Width: 383
VWidth: 0
Flags: HMW
LayerCount: 2
Fore
SplineSet
73 92 m 0
 73 156 127 205 191 205 c 0
 257 205 313 154 313 90 c 0
 313 23 257 -31 191 -31 c 0
 125 -31 73 25 73 92 c 0
EndSplineSet
Colour: ffffff
EndChar

StartChar: infinity
Encoding: 8734 8734 231
Width: 1361
VWidth: 0
Flags: MW
LayerCount: 2
Fore
SplineSet
62 497 m 0
 62 718 209 873 384 873 c 0
 503 873 600 823 690 676 c 1
 700 679 l 1
 793 805 897 869 1023 869 c 0
 1185 869 1302 740 1302 552 c 0
 1302 364 1148 205 964 205 c 0
 820 205 728 316 675 406 c 1
 666 406 l 1
 576 262 465 203 357 203 c 0
 172 203 62 320 62 497 c 0
151 540 m 0
 151 438 266 362 380 362 c 0
 482 362 592 411 632 464 c 1
 533 606 445 721 343 721 c 0
 214 721 151 648 151 540 c 0
734 608 m 1
 821 454 942 362 1059 362 c 0
 1148 362 1219 439 1219 525 c 0
 1219 638 1099 709 983 709 c 0
 845 709 781 652 734 608 c 1
EndSplineSet
Colour: ffffff
EndChar

StartChar: integral
Encoding: 8747 8747 232
Width: 879
VWidth: 0
Flags: MW
LayerCount: 2
Fore
SplineSet
-55 -270 m 1
 -54 -221 1 -170 34 -157 c 1
 74 -206 147 -279 209 -279 c 0
 283 -279 336 -233 340 -61 c 1
 344 786 l 2
 346 1164 577 1304 719 1304 c 0
 824 1304 906 1269 906 1189 c 0
 906 1140 849 1090 816 1077 c 1
 776 1126 703 1198 641 1198 c 0
 567 1198 516 1153 510 981 c 1
 508 117 l 2
 507 -268 274 -385 132 -385 c 0
 27 -385 -55 -350 -55 -270 c 1
EndSplineSet
Colour: ffffff
EndChar

StartChar: iogonek
Encoding: 303 303 233
Width: 383
VWidth: 0
Flags: HMW
LayerCount: 2
Fore
SplineSet
73 92 m 0
 73 156 127 205 191 205 c 0
 257 205 313 154 313 90 c 0
 313 23 257 -31 191 -31 c 0
 125 -31 73 25 73 92 c 0
EndSplineSet
Colour: ffffff
EndChar

StartChar: j
Encoding: 106 106 234
Width: 463
VWidth: 0
Flags: MW
LayerCount: 2
Fore
SplineSet
-34 -295 m 1
 74 -215 187 -98 187 172 c 2
 187 731 l 1
 37 786 l 1
 52 866 l 1
 331 887 l 1
 356 862 l 1
 356 151 l 2
 356 -131 212 -274 61 -359 c 2
 15 -383 l 1
 -34 -295 l 1
139 1189 m 0
 139 1256 196 1308 263 1308 c 0
 329 1308 384 1254 384 1188 c 0
 384 1121 329 1063 262 1063 c 0
 195 1063 139 1122 139 1189 c 0
EndSplineSet
Colour: ffffff
EndChar

StartChar: k
Encoding: 107 107 235
Width: 972
VWidth: 0
Flags: MW
LayerCount: 2
Fore
SplineSet
10 0 m 1
 21 79 l 1
 174 116 l 1
 174 1108 l 1
 16 1161 l 1
 28 1237 l 1
 316 1260 l 1
 341 1235 l 1
 341 116 l 1
 500 80 l 1
 488 0 l 1
 10 0 l 1
365 432 m 1
 365 452 l 1
 624 777 l 1
 491 817 l 1
 501 893 l 1
 927 893 l 1
 913 819 l 1
 764 777 l 1
 527 487 l 1
 606 386 l 2
 753 199 805 99 931 83 c 2
 971 77 l 1
 960 0 l 1
 945 -4 885 -19 841 -19 c 0
 709 -19 634 66 470 287 c 1
 365 432 l 1
EndSplineSet
Colour: ffffff
EndChar

StartChar: kcommaaccent
Encoding: 311 311 236
Width: 383
VWidth: 0
Flags: HMW
LayerCount: 2
Fore
SplineSet
73 92 m 0
 73 156 127 205 191 205 c 0
 257 205 313 154 313 90 c 0
 313 23 257 -31 191 -31 c 0
 125 -31 73 25 73 92 c 0
EndSplineSet
Colour: ffffff
EndChar

StartChar: l
Encoding: 108 108 237
Width: 510
VWidth: 0
Flags: MW
LayerCount: 2
Fore
SplineSet
10 0 m 1
 21 79 l 1
 174 116 l 1
 174 1117 l 1
 16 1171 l 1
 28 1247 l 1
 316 1269 l 1
 341 1245 l 1
 341 116 l 1
 500 80 l 1
 488 0 l 1
 10 0 l 1
EndSplineSet
Colour: ffffff
EndChar

StartChar: lacute
Encoding: 314 314 238
Width: 383
VWidth: 0
Flags: HMW
LayerCount: 2
Fore
SplineSet
73 92 m 0
 73 156 127 205 191 205 c 0
 257 205 313 154 313 90 c 0
 313 23 257 -31 191 -31 c 0
 125 -31 73 25 73 92 c 0
EndSplineSet
Colour: ffffff
EndChar

StartChar: lcaron
Encoding: 318 318 239
Width: 383
VWidth: 0
Flags: HMW
LayerCount: 2
Fore
SplineSet
73 92 m 0
 73 156 127 205 191 205 c 0
 257 205 313 154 313 90 c 0
 313 23 257 -31 191 -31 c 0
 125 -31 73 25 73 92 c 0
EndSplineSet
Colour: ffffff
EndChar

StartChar: lcommaaccent
Encoding: 316 316 240
Width: 383
VWidth: 0
Flags: HMW
LayerCount: 2
Fore
SplineSet
73 92 m 0
 73 156 127 205 191 205 c 0
 257 205 313 154 313 90 c 0
 313 23 257 -31 191 -31 c 0
 125 -31 73 25 73 92 c 0
EndSplineSet
Colour: ffffff
EndChar

StartChar: lessequal
Encoding: 8804 8804 242
Width: 729
VWidth: 0
Flags: MW
LayerCount: 2
Fore
SplineSet
37 428 m 1
 40 455 l 1
 578 973 l 1
 636 900 l 1
 274 454 l 1
 655 -13 l 1
 593 -83 l 1
 37 428 l 1
61 -267 m 1
 77 -164 l 1
 688 -157 l 1
 672 -261 l 1
 61 -267 l 1
EndSplineSet
Colour: ffffff
EndChar

StartChar: logicalnot
Encoding: 172 172 243
Width: 383
VWidth: 0
Flags: HMW
LayerCount: 2
Back
SplineSet
200 664 m 1
 945 664 l 1
 897 350 l 1
 788 332 l 1
 824 558 l 1
 172 558 l 1
 200 664 l 1
EndSplineSet
Fore
SplineSet
73 92 m 0
 73 156 127 205 191 205 c 0
 257 205 313 154 313 90 c 0
 313 23 257 -31 191 -31 c 0
 125 -31 73 25 73 92 c 0
EndSplineSet
Colour: ffffff
EndChar

StartChar: lozenge
Encoding: 9674 9674 244
Width: 943
VWidth: 0
Flags: MW
LayerCount: 2
Fore
SplineSet
148 474 m 1
 472 799 l 1
 796 472 l 1
 474 135 l 1
 148 474 l 1
EndSplineSet
Colour: ffffff
EndChar

StartChar: lslash
Encoding: 322 322 245
Width: 383
VWidth: 0
Flags: HMW
LayerCount: 2
Fore
SplineSet
73 92 m 0
 73 156 127 205 191 205 c 0
 257 205 313 154 313 90 c 0
 313 23 257 -31 191 -31 c 0
 125 -31 73 25 73 92 c 0
EndSplineSet
Colour: ffffff
EndChar

StartChar: m
Encoding: 109 109 246
Width: 1584
VWidth: 0
Flags: MW
LayerCount: 2
Fore
SplineSet
43 0 m 1
 53 74 l 1
 203 114 l 1
 203 719 l 1
 43 770 l 1
 53 845 l 1
 357 887 l 1
 375 866 l 1
 357 740 l 1
 366 740 l 1
 430 819 540 896 666 896 c 0
 756 896 856 853 887 731 c 1
 899 731 l 1
 963 814 1068 888 1194 888 c 0
 1361 888 1430 783 1430 609 c 2
 1430 116 l 1
 1568 80 l 1
 1555 1 l 1
 1130 1 l 1
 1137 74 l 1
 1262 114 l 1
 1262 585 l 2
 1262 681 1202 760 1094 760 c 0
 1005 760 949 709 903 660 c 1
 903 114 l 1
 1051 79 l 1
 1041 0 l 1
 598 0 l 1
 609 74 l 1
 740 114 l 1
 740 585 l 2
 740 690 665 760 569 760 c 0
 495 760 422 730 372 673 c 1
 372 114 l 1
 515 79 l 1
 504 0 l 1
 43 0 l 1
EndSplineSet
Colour: ffffff
EndChar

StartChar: macron
Encoding: 175 175 247
Width: 383
VWidth: 0
Flags: HMW
LayerCount: 2
Fore
SplineSet
73 92 m 0
 73 156 127 205 191 205 c 0
 257 205 313 154 313 90 c 0
 313 23 257 -31 191 -31 c 0
 125 -31 73 25 73 92 c 0
EndSplineSet
Colour: ffffff
EndChar

StartChar: minus
Encoding: 8722 8722 248
Width: 821
VWidth: 0
Flags: MW
LayerCount: 2
Fore
SplineSet
99 409 m 1
 116 513 l 1
 726 520 l 1
 709 415 l 1
 99 409 l 1
EndSplineSet
Colour: ffffff
EndChar

StartChar: mu
Encoding: 956 956 249
Width: 1008
VWidth: 0
Flags: MW
LayerCount: 2
Fore
SplineSet
28 790 m 1
 40 870 l 1
 309 892 l 1
 334 866 l 1
 334 314 l 2
 334 163 397 105 487 105 c 0
 577 105 625 148 675 188 c 1
 675 731 l 1
 513 773 l 1
 523 863 l 1
 818 892 l 1
 839 866 l 1
 839 213 l 2
 839 108 882 102 948 87 c 2
 993 77 l 1
 985 -6 l 1
 923 -21 891 -24 832 -24 c 0
 732 -24 686 38 686 121 c 2
 686 129 l 1
 675 129 l 1
 585 29 500 -24 387 -24 c 0
 325 -24 277 -3 246 37 c 1
 239 37 l 1
 242 19 249 -22 253 -86 c 2
 271 -388 l 1
 138 -362 l 1
 139 -335 165 202 165 494 c 2
 165 736 l 1
 28 790 l 1
EndSplineSet
Colour: ffffff
EndChar

StartChar: multiply
Encoding: 215 215 250
Width: 383
VWidth: 0
Flags: HMW
LayerCount: 2
Fore
SplineSet
73 92 m 0
 73 156 127 205 191 205 c 0
 257 205 313 154 313 90 c 0
 313 23 257 -31 191 -31 c 0
 125 -31 73 25 73 92 c 0
EndSplineSet
Colour: ffffff
EndChar

StartChar: n
Encoding: 110 110 251
Width: 1060
VWidth: 0
Flags: MW
LayerCount: 2
Fore
SplineSet
37 0 m 1
 47 73 l 1
 198 114 l 1
 198 721 l 1
 44 773 l 1
 54 849 l 1
 352 888 l 1
 369 869 l 1
 352 741 l 1
 362 741 l 1
 429 821 537 899 663 899 c 0
 820 899 904 794 904 616 c 2
 904 114 l 1
 1048 79 l 1
 1038 0 l 1
 589 0 l 1
 599 73 l 1
 737 114 l 1
 737 577 l 2
 737 706 662 761 563 761 c 0
 490 761 416 731 366 675 c 1
 366 114 l 1
 515 79 l 1
 501 0 l 1
 37 0 l 1
EndSplineSet
Colour: ffffff
EndChar

StartChar: nacute
Encoding: 324 324 252
Width: 383
VWidth: 0
Flags: HMW
LayerCount: 2
Fore
SplineSet
73 92 m 0
 73 156 127 205 191 205 c 0
 257 205 313 154 313 90 c 0
 313 23 257 -31 191 -31 c 0
 125 -31 73 25 73 92 c 0
EndSplineSet
Colour: ffffff
EndChar

StartChar: nbspace
Encoding: 160 160 253
Width: 383
VWidth: 0
Flags: HMW
LayerCount: 2
Fore
SplineSet
73 92 m 0
 73 156 127 205 191 205 c 0
 257 205 313 154 313 90 c 0
 313 23 257 -31 191 -31 c 0
 125 -31 73 25 73 92 c 0
EndSplineSet
Colour: ffffff
EndChar

StartChar: ncaron
Encoding: 328 328 254
Width: 383
VWidth: 0
Flags: HMW
LayerCount: 2
Fore
SplineSet
73 92 m 0
 73 156 127 205 191 205 c 0
 257 205 313 154 313 90 c 0
 313 23 257 -31 191 -31 c 0
 125 -31 73 25 73 92 c 0
EndSplineSet
Colour: ffffff
EndChar

StartChar: ncommaaccent
Encoding: 326 326 255
Width: 383
VWidth: 0
Flags: HMW
LayerCount: 2
Fore
SplineSet
73 92 m 0
 73 156 127 205 191 205 c 0
 257 205 313 154 313 90 c 0
 313 23 257 -31 191 -31 c 0
 125 -31 73 25 73 92 c 0
EndSplineSet
Colour: ffffff
EndChar

StartChar: nine
Encoding: 57 57 256
Width: 982
VWidth: 1651
Flags: MW
LayerCount: 2
Back
SplineSet
745 562 m 1
 730 545 713 530 692 517 c 0
 671 504 649 492 626 484 c 0
 603 476 580 467 555 462 c 0
 530 457 508 456 487 456 c 0
 444 456 406 464 373 479 c 0
 340 494 312 512 289 538 c 0
 266 564 250 596 238 631 c 0
 226 666 220 702 220 740 c 0
 220 801 235 859 261 912 c 0
 287 965 322 1010 365 1050 c 0
 408 1090 456 1123 509 1146 c 0
 562 1169 611 1182 662 1182 c 0
 718 1182 766 1173 806 1153 c 0
 846 1133 878 1106 903 1073 c 0
 928 1040 948 1003 960 958 c 0
 972 913 978 867 978 819 c 0
 978 718 960 621 925 527 c 0
 890 433 842 348 779 272 c 0
 716 196 643 132 555 79 c 0
 467 26 370 -8 266 -26 c 1
 253 46 l 1
 336 71 406 99 464 134 c 0
 522 169 571 208 611 251 c 0
 651 294 684 340 707 393 c 0
 730 446 748 503 761 562 c 1
 745 562 l 1
644 1103 m 0
 599 1103 561 1095 528 1078 c 0
 495 1061 470 1039 449 1011 c 0
 428 983 413 950 403 912 c 0
 393 874 388 833 388 788 c 0
 388 758 392 730 400 704 c 0
 408 678 419 652 434 631 c 0
 449 610 469 594 492 581 c 0
 515 568 542 562 573 562 c 0
 590 562 608 563 628 568 c 0
 648 573 667 578 685 585 c 0
 703 592 722 601 737 611 c 0
 752 621 765 634 775 647 c 1
 783 668 789 693 796 723 c 0
 803 753 806 791 806 837 c 0
 806 872 802 905 794 938 c 0
 786 971 776 997 761 1022 c 0
 746 1047 730 1065 710 1080 c 0
 690 1095 669 1103 644 1103 c 0
EndSplineSet
Fore
SplineSet
40 802 m 0
 40 1046 241 1211 432 1211 c 0
 695 1211 813 998 813 764 c 0
 813 365 574 39 198 -27 c 1
 175 47 l 1
 503 144 578 331 597 575 c 1
 584 575 l 1
 518 502 432 466 340 466 c 0
 149 466 40 585 40 802 c 0
240 845 m 0
 240 710 287 575 429 575 c 0
 499 575 569 612 600 662 c 1
 608 708 609 766 609 806 c 0
 609 970 542 1130 426 1130 c 0
 278 1130 240 1023 240 845 c 0
EndSplineSet
Substitution2: "'sups' Superscript lookup 0 subtable" nine.superior
Colour: ffffff
EndChar

StartChar: nine.osf
Encoding: 65542 -1 257
Width: 778
VWidth: 0
Flags: MW
LayerCount: 2
Fore
SplineSet
25 581 m 0
 25 800 199 972 390 972 c 0
 653 972 744 755 744 521 c 0
 744 186 479 -177 148 -282 c 1
 125 -208 l 1
 417 -84 504 140 544 338 c 1
 532 338 l 1
 483 271 401 230 314 230 c 0
 120 230 25 356 25 581 c 0
208 607 m 0
 208 424 262 338 387 338 c 0
 457 338 519 374 550 424 c 1
 558 470 557 525 557 565 c 0
 557 729 491 891 375 891 c 0
 275 891 208 813 208 607 c 0
EndSplineSet
Colour: ffffff
EndChar

StartChar: notequal
Encoding: 8800 8800 258
Width: 755
VWidth: 0
Flags: MW
LayerCount: 2
Fore
SplineSet
17 314 m 1
 29 419 l 1
 740 419 l 1
 729 314 l 1
 17 314 l 1
20 554 m 1
 32 659 l 1
 742 659 l 1
 731 554 l 1
 20 554 l 1
37 53 m 1
 254 369 l 1
 279 393 l 1
 435 612 l 1
 443 641 l 1
 600 868 l 1
 722 871 l 1
 565 641 l 1
 546 612 l 1
 375 382 l 1
 362 353 l 1
 159 58 l 1
 37 53 l 1
EndSplineSet
Colour: ffffff
EndChar

StartChar: ntilde
Encoding: 241 241 259
Width: 383
VWidth: 0
Flags: HMW
LayerCount: 2
Fore
SplineSet
73 92 m 0
 73 156 127 205 191 205 c 0
 257 205 313 154 313 90 c 0
 313 23 257 -31 191 -31 c 0
 125 -31 73 25 73 92 c 0
EndSplineSet
Colour: ffffff
EndChar

StartChar: numbersign
Encoding: 35 35 260
Width: 913
VWidth: 0
Flags: MW
LayerCount: 2
Fore
SplineSet
182 -26 m 9
 359 1149 l 17
 475 1159 l 9
 299 -19 l 17
 182 -26 l 9
49 711 m 17
 83 836 l 9
 992 836 l 17
 961 711 l 9
 49 711 l 17
-22 326 m 1
 11 451 l 9
 917 451 l 17
 886 326 l 1
 -22 326 l 1
487 -26 m 9
 663 1149 l 17
 781 1158 l 9
 604 -19 l 17
 487 -26 l 9
EndSplineSet
Colour: ffffff
EndChar

StartChar: o
Encoding: 111 111 261
Width: 934
VWidth: 0
Flags: MW
LayerCount: 2
Fore
SplineSet
52 426 m 4
 52 730 264 903 487 903 c 4
 733 903 882 716 882 441 c 4
 882 162 696 -27 463 -27 c 4
 199 -27 52 169 52 426 c 4
230 497 m 4
 230 291 300 70 497 70 c 4
 638 70 704 218 704 359 c 4
 704 557 635 798 445 798 c 4
 294 798 230 654 230 497 c 4
EndSplineSet
Colour: ffffff
EndChar

StartChar: oacute
Encoding: 243 243 262
Width: 383
VWidth: 0
Flags: HMW
LayerCount: 2
Fore
SplineSet
73 92 m 0
 73 156 127 205 191 205 c 0
 257 205 313 154 313 90 c 0
 313 23 257 -31 191 -31 c 0
 125 -31 73 25 73 92 c 0
EndSplineSet
Colour: ffffff
EndChar

StartChar: ocaron
Encoding: 466 466 263
Width: 383
VWidth: 0
Flags: HMW
LayerCount: 2
Fore
SplineSet
73 92 m 0
 73 156 127 205 191 205 c 0
 257 205 313 154 313 90 c 0
 313 23 257 -31 191 -31 c 0
 125 -31 73 25 73 92 c 0
EndSplineSet
Colour: ffffff
EndChar

StartChar: ocircumflex
Encoding: 244 244 264
Width: 383
VWidth: 0
Flags: HMW
LayerCount: 2
Fore
SplineSet
73 92 m 0
 73 156 127 205 191 205 c 0
 257 205 313 154 313 90 c 0
 313 23 257 -31 191 -31 c 0
 125 -31 73 25 73 92 c 0
EndSplineSet
Colour: ffffff
EndChar

StartChar: odieresis
Encoding: 246 246 265
Width: 383
VWidth: 0
Flags: HMW
LayerCount: 2
Fore
SplineSet
73 92 m 0
 73 156 127 205 191 205 c 0
 257 205 313 154 313 90 c 0
 313 23 257 -31 191 -31 c 0
 125 -31 73 25 73 92 c 0
EndSplineSet
Colour: ffffff
EndChar

StartChar: oe
Encoding: 339 339 266
Width: 383
VWidth: 0
Flags: HMW
LayerCount: 2
Fore
SplineSet
73 92 m 0
 73 156 127 205 191 205 c 0
 257 205 313 154 313 90 c 0
 313 23 257 -31 191 -31 c 0
 125 -31 73 25 73 92 c 0
EndSplineSet
Colour: ffffff
EndChar

StartChar: ogonek
Encoding: 731 731 267
Width: 383
VWidth: 0
Flags: HMW
LayerCount: 2
Fore
SplineSet
73 92 m 0
 73 156 127 205 191 205 c 0
 257 205 313 154 313 90 c 0
 313 23 257 -31 191 -31 c 0
 125 -31 73 25 73 92 c 0
EndSplineSet
Colour: ffffff
EndChar

StartChar: ograve
Encoding: 242 242 268
Width: 383
VWidth: 0
Flags: HMW
LayerCount: 2
Fore
SplineSet
73 92 m 0
 73 156 127 205 191 205 c 0
 257 205 313 154 313 90 c 0
 313 23 257 -31 191 -31 c 0
 125 -31 73 25 73 92 c 0
EndSplineSet
Colour: ffffff
EndChar

StartChar: ohungarumlaut
Encoding: 337 337 269
Width: 383
VWidth: 0
Flags: HMW
LayerCount: 2
Fore
SplineSet
73 92 m 0
 73 156 127 205 191 205 c 0
 257 205 313 154 313 90 c 0
 313 23 257 -31 191 -31 c 0
 125 -31 73 25 73 92 c 0
EndSplineSet
Colour: ffffff
EndChar

StartChar: omacron
Encoding: 333 333 270
Width: 383
VWidth: 0
Flags: HMW
LayerCount: 2
Fore
SplineSet
73 92 m 0
 73 156 127 205 191 205 c 0
 257 205 313 154 313 90 c 0
 313 23 257 -31 191 -31 c 0
 125 -31 73 25 73 92 c 0
EndSplineSet
Colour: ffffff
EndChar

StartChar: one
Encoding: 49 49 271
Width: 982
VWidth: 1651
Flags: MW
LayerCount: 2
Back
SplineSet
599 111 m 1
 860 81 l 1
 841 0 l 5
 130 0 l 1
 149 73 l 1
 431 117 l 1
 557 1006 l 1
 292 1006 l 1
 309 1082 l 1
 720 1156 l 1
 746 1156 l 1
 599 111 l 1
EndSplineSet
Fore
SplineSet
40 0 m 5
 47 74 l 5
 311 121 l 5
 311 1031 l 5
 61 1031 l 5
 67 1108 l 5
 488 1185 l 5
 515 1185 l 5
 515 114 l 5
 777 83 l 5
 767 0 l 5
 40 0 l 5
EndSplineSet
Substitution2: "'sups' Superscript lookup 0 subtable" one.superior
Colour: ffffff
EndChar

StartChar: one.osf
Encoding: 65543 -1 272
Width: 588
VWidth: 0
Flags: MW
LayerCount: 2
Fore
SplineSet
35 0 m 1
 44 74 l 1
 228 121 l 1
 228 802 l 1
 55 805 l 1
 64 882 l 1
 368 956 l 1
 396 956 l 1
 396 114 l 1
 585 80 l 1
 575 0 l 1
 35 0 l 1
EndSplineSet
Colour: ffffff
EndChar

StartChar: onehalf
Encoding: 189 189 273
Width: 383
VWidth: 0
Flags: HMW
LayerCount: 2
Fore
SplineSet
73 92 m 0
 73 156 127 205 191 205 c 0
 257 205 313 154 313 90 c 0
 313 23 257 -31 191 -31 c 0
 125 -31 73 25 73 92 c 0
EndSplineSet
Colour: ffffff
EndChar

StartChar: onequarter
Encoding: 188 188 274
Width: 383
VWidth: 0
Flags: HMW
LayerCount: 2
Fore
SplineSet
73 92 m 0
 73 156 127 205 191 205 c 0
 257 205 313 154 313 90 c 0
 313 23 257 -31 191 -31 c 0
 125 -31 73 25 73 92 c 0
EndSplineSet
Colour: ffffff
EndChar

StartChar: one.superior
Encoding: 185 185 275
Width: 383
VWidth: 0
Flags: HMW
LayerCount: 2
Fore
SplineSet
73 92 m 0
 73 156 127 205 191 205 c 0
 257 205 313 154 313 90 c 0
 313 23 257 -31 191 -31 c 0
 125 -31 73 25 73 92 c 0
EndSplineSet
Colour: ffffff
EndChar

StartChar: ordfeminine
Encoding: 170 170 276
Width: 383
VWidth: 0
Flags: HMW
LayerCount: 2
Back
SplineSet
128.2 378.4 m 0xba
 128.2 496 236.2 613.6 497 632 c 1
 497 676 l 2
 497 784 465.8 889.6 355.4 889.6 c 0
 278.6 889.6 277.8 848.8 266.6 717.6 c 1
 224.2 717.6 155.4 720.8 155.4 800 c 0
 155.4 887.2 318.6 964 429 964 c 0
 571.4 964 626.6 887.2 626.6 718.4 c 2
 626.6 428 l 2
 626.6 354.4 641.8 332.8 716.2 320.8 c 2
 756.2 313.6 l 1
 745.8 244.8 l 1x76
 708.2 240 684.2 229.6 637 229.6 c 0
 544.2 229.6 513 289.6 513 336.8 c 2
 513 348.8 l 1
 504.2 348.8 l 1
 482.6 306.4 416.2 224.8 285 224.8 c 0
 201 224.8 128.2 280.8 128.2 378.4 c 0xba
268.2 416 m 0xba
 268.2 376 298.6 323.2 357.8 323.2 c 0
 413.8 323.2 470.6 364.8 497 394.4 c 1
 497 586.4 l 1
 322.6 552 268.2 492.8 268.2 416 c 0xba
EndSplineSet
Fore
SplineSet
73 92 m 0
 73 156 127 205 191 205 c 0
 257 205 313 154 313 90 c 0
 313 23 257 -31 191 -31 c 0
 125 -31 73 25 73 92 c 0
EndSplineSet
Colour: ffffff
EndChar

StartChar: ordmasculine
Encoding: 186 186 277
Width: 383
VWidth: 0
Flags: HMW
LayerCount: 2
Fore
SplineSet
73 92 m 0
 73 156 127 205 191 205 c 0
 257 205 313 154 313 90 c 0
 313 23 257 -31 191 -31 c 0
 125 -31 73 25 73 92 c 0
EndSplineSet
Colour: ffffff
EndChar

StartChar: oslash
Encoding: 248 248 278
Width: 383
VWidth: 0
Flags: HMW
LayerCount: 2
Fore
SplineSet
73 92 m 0
 73 156 127 205 191 205 c 0
 257 205 313 154 313 90 c 0
 313 23 257 -31 191 -31 c 0
 125 -31 73 25 73 92 c 0
EndSplineSet
Colour: ffffff
EndChar

StartChar: otilde
Encoding: 245 245 279
Width: 383
VWidth: 0
Flags: HMW
LayerCount: 2
Fore
SplineSet
73 92 m 0
 73 156 127 205 191 205 c 0
 257 205 313 154 313 90 c 0
 313 23 257 -31 191 -31 c 0
 125 -31 73 25 73 92 c 0
EndSplineSet
Colour: ffffff
EndChar

StartChar: overline
Encoding: 8254 8254 280
Width: 517
VWidth: 0
Flags: MW
LayerCount: 2
Fore
SplineSet
33 1302 m 1
 46 1403 l 1
 487 1403 l 1
 474 1302 l 1
 33 1302 l 1
EndSplineSet
Colour: ffffff
EndChar

StartChar: p
Encoding: 112 112 281
Width: 968
VWidth: 0
Flags: MW
LayerCount: 2
Fore
SplineSet
13 -372 m 1
 19 -294 l 1
 172 -256 l 1
 172 722 l 1
 18 768 l 1
 30 845 l 1
 321 882 l 1
 342 863 l 1
 328 734 l 1
 335 734 l 1
 385 804 480 899 611 899 c 0
 782 899 914 771 914 467 c 0
 914 182 726 -19 469 -19 c 0
 439 -19 408 -16 375 -10 c 1
 369 111 l 1
 415 93 443 89 522 89 c 0
 660 89 731 218 731 406 c 0
 731 643 668 768 540 768 c 0
 454 768 379 712 335 666 c 1
 335 -257 l 1
 491 -292 l 1
 479 -372 l 1
 13 -372 l 1
EndSplineSet
Colour: ffffff
EndChar

StartChar: paragraph
Encoding: 182 182 282
Width: 383
VWidth: 0
Flags: HMW
LayerCount: 2
Back
SplineSet
307.25 1058.08 m 0
 307.25 1356.18 593.136 1561.69 904.456 1561.69 c 2
 1133.37 1561.69 l 1
 1133.37 1.01758 l 1
 728.449 1.01758 l 5
 735.57 52.9043 l 5
 1007.21 91.5645 l 1
 1007.21 1486.4 l 1
 955.326 1489.46 926.839 1489.46 915.647 1489.46 c 0
 596.189 1489.46 473.085 1349.05 473.085 1053 c 0
 473.085 838.326 635.867 662.319 905.475 662.319 c 1
 883.092 599.24 l 1
 556.511 599.24 307.25 691.823 307.25 1058.08 c 0
1203.57 1561.69 m 1
 1559.65 1561.69 l 1
 1553.55 1514.89 l 1
 1332.78 1485.38 l 1
 1332.78 80.373 l 1
 1572.88 57.9912 l 1
 1560.67 -2.03418 l 1
 1203.57 1.01758 l 1
 1203.57 1561.69 l 1
EndSplineSet
Fore
SplineSet
73 92 m 0
 73 156 127 205 191 205 c 0
 257 205 313 154 313 90 c 0
 313 23 257 -31 191 -31 c 0
 125 -31 73 25 73 92 c 0
EndSplineSet
Colour: ffffff
EndChar

StartChar: parenleft
Encoding: 40 40 283
Width: 477
VWidth: 0
Flags: MW
LayerCount: 2
Back
SplineSet
401 -317 m 1
 322 -375 l 1
 279 -327 40 -69 121 446 c 0
 204 971 511 1199 585 1255 c 1
 624 1189 l 1
 520 1077 369 880 301 456 c 0
 235 40 368 -244 401 -317 c 1
EndSplineSet
Fore
SplineSet
49 445 m 0
 49 970 320 1199 386 1255 c 1
 436 1189 l 1
 350 1076 227 879 227 455 c 0
 227 40 405 -244 449 -317 c 1
 381 -375 l 1
 331 -328 49 -70 49 445 c 0
EndSplineSet
Colour: ffffff
EndChar

StartChar: parenright
Encoding: 41 41 284
Width: 477
VWidth: 0
Flags: MW
LayerCount: 2
Back
SplineSet
-25 -317 m 1
 35 -375 l 1
 94 -327 416 -69 497 446 c 0
 580 971 345 1199 287 1255 c 1
 228 1189 l 1
 296 1077 388 880 320 456 c 0
 254 40 31 -244 -25 -317 c 1
EndSplineSet
Fore
SplineSet
44 1189 m 1
 93 1255 l 1
 159 1199 431 970 431 445 c 0
 431 -70 149 -328 99 -375 c 1
 30 -317 l 1
 74 -244 253 40 253 455 c 0
 253 879 130 1076 44 1189 c 1
EndSplineSet
Colour: ffffff
EndChar

StartChar: partialdiff
Encoding: 8706 8706 285
Width: 897
VWidth: 0
Flags: MW
LayerCount: 2
Fore
SplineSet
49 451 m 0
 49 746 229 948 442 948 c 0
 482 948 567 933 597 857 c 1
 604 859 l 1
 583 961 455 1185 317 1302 c 1
 433 1302 l 1
 713 1142 838 796 838 465 c 0
 838 157 658 -27 443 -27 c 0
 166 -27 49 208 49 451 c 0
227 498 m 0
 227 255.948 328 70 466 70 c 0
 621 70 664 209 664 424 c 0
 664 660.495 545.241 856 423 856 c 0
 282 856 227 748 227 498 c 0
EndSplineSet
Colour: ffffff
EndChar

StartChar: percent
Encoding: 37 37 286
Width: 1736
VWidth: 0
Flags: MW
LayerCount: 2
Fore
SplineSet
29 898 m 0
 29 1067 178 1211 301 1211 c 0
 319 1211 324 1210 330 1208 c 1
 340 1142 l 17
 325 1148 314 1154 295 1154 c 0
 216 1154 194 1012 194 898 c 0
 194 781 223 649 297 649 c 0
 381 649 402 778 402 898 c 0
 402 1041 384 1137 364 1198 c 9
 921 1210 l 25
 931 1121 l 25
 491 1137 l 17
 541 1085 566 948 566 898 c 0
 566 726 414 583 297 583 c 0
 170 583 29 706 29 898 c 0
123 -10 m 1
 530 588 l 1
 921 1210 l 1
 1087 1207 l 1
 1085 1178 l 1
 684 591 l 1
 313 -32 l 1
 123 -10 l 1
647 277 m 0
 647 446 794 590 917 590 c 0
 1059 590 1181 453 1181 274 c 0
 1181 105 1037 -36 920 -36 c 0
 793 -36 647 87 647 277 c 0
812 277 m 0
 812 160 846 32 920 32 c 0
 1004 32 1021 158 1021 279 c 0
 1021 399 993 534 917 534 c 0
 832 534 812 391 812 277 c 0
EndSplineSet
Colour: ffffff
EndChar

StartChar: period
Encoding: 46 46 287
Width: 383
VWidth: 0
Flags: MW
LayerCount: 2
Back
SplineSet
235 215 m 3
 298 215 335 161 335 107 c 0
 335 23 274 -33 198 -33 c 19
 145 -33 92 23 92 74 c 0
 92 153 157 215 235 215 c 3
EndSplineSet
Fore
SplineSet
73 92 m 0
 73 156 127 205 191 205 c 0
 257 205 313 154 313 90 c 0
 313 23 257 -31 191 -31 c 0
 125 -31 73 25 73 92 c 0
EndSplineSet
Colour: ffffff
EndChar

StartChar: periodcentered
Encoding: 183 183 288
Width: 383
VWidth: 0
Flags: HMW
LayerCount: 2
Back
SplineSet
390 1237 m 0
 331 1237 294 1181 286 1125 c 0
 276 1064 298 996 362 996 c 0
 416 996 452 1037 464 1110 c 0
 474 1173 453 1237 390 1237 c 0
408 1285 m 0
 504 1285 553 1217 538 1123 c 0
 523 1032 444 948 342 948 c 0
 250 948 196 1011 213 1113 c 0
 228 1205 314 1285 408 1285 c 0
EndSplineSet
Fore
SplineSet
73 92 m 0
 73 156 127 205 191 205 c 0
 257 205 313 154 313 90 c 0
 313 23 257 -31 191 -31 c 0
 125 -31 73 25 73 92 c 0
EndSplineSet
Colour: ffffff
EndChar

StartChar: perthousand
Encoding: 8240 8240 289
Width: 1853
VWidth: 0
Flags: MW
LayerCount: 2
Fore
SplineSet
29 898 m 0
 29 1067 178 1211 301 1211 c 0
 319 1211 324 1210 330 1208 c 1
 340 1142 l 17
 325 1148 314 1154 295 1154 c 0
 216 1154 194 1012 194 898 c 0
 194 781 223 649 297 649 c 0
 381 649 402 778 402 898 c 0
 402 1041 384 1137 364 1198 c 9
 921 1210 l 25
 931 1121 l 25
 491 1137 l 17
 541 1085 566 948 566 898 c 0
 566 726 414 583 297 583 c 0
 170 583 29 706 29 898 c 0
123 -10 m 1
 530 588 l 1
 921 1210 l 1
 1087 1207 l 1
 1085 1178 l 1
 684 591 l 1
 313 -32 l 1
 123 -10 l 1
647 277 m 0
 647 446 794 590 917 590 c 0
 1059 590 1181 453 1181 274 c 0
 1181 105 1037 -36 920 -36 c 0
 793 -36 647 87 647 277 c 0
812 277 m 0
 812 160 846 32 920 32 c 0
 1004 32 1021 158 1021 279 c 0
 1021 399 993 534 917 534 c 0
 832 534 812 391 812 277 c 0
1250 275 m 0
 1250 444 1398 588 1521 588 c 0
 1663 588 1785 450 1785 271 c 0
 1785 102 1640 -38 1523 -38 c 0
 1396 -38 1250 85 1250 275 c 0
1415 275 m 0
 1415 158 1449 30 1523 30 c 0
 1607 30 1624 156 1624 277 c 0
 1624 397 1597 531 1521 531 c 0
 1436 531 1415 389 1415 275 c 0
EndSplineSet
Colour: ffffff
EndChar

StartChar: plus
Encoding: 43 43 290
Width: 648
VWidth: 0
Flags: MW
LayerCount: 2
Back
SplineSet
477 410 m 1
 443 173 l 1
 334 185 l 1
 368 410 l 1
 147 410 l 1
 175 510 l 1
 385 510 l 1
 421 742 l 1
 527 730 l 1
 494 510 l 1
 713 510 l 1
 685 410 l 1
 477 410 l 1
EndSplineSet
Fore
SplineSet
50 409 m 1
 62 510 l 1
 271 510 l 1
 271 741 l 1
 380 729 l 1
 381 510 l 1
 601 510 l 1
 589 409 l 1
 381 409 l 1
 383 174 l 1
 271 185 l 1
 271 409 l 1
 50 409 l 1
EndSplineSet
Colour: ffffff
EndChar

StartChar: plusminus
Encoding: 177 177 291
Width: 383
VWidth: 0
Flags: HMW
LayerCount: 2
Back
SplineSet
117 117 m 5
 730 124 l 5
 697 20 l 5
 84 13 l 5
 117 117 l 5
576.938 476 m 1
 505.4 239 l 1
 398.301 251 l 1
 467.938 476 l 1
 246.938 476 l 1
 290.775 576 l 1
 500.775 576 l 1
 573.521 808 l 1
 677.62 796 l 1
 609.775 576 l 1
 828.775 576 l 1
 784.938 476 l 1
 576.938 476 l 1
EndSplineSet
Fore
SplineSet
73 92 m 0
 73 156 127 205 191 205 c 0
 257 205 313 154 313 90 c 0
 313 23 257 -31 191 -31 c 0
 125 -31 73 25 73 92 c 0
EndSplineSet
Colour: ffffff
EndChar

StartChar: product
Encoding: 8719 8719 292
Width: 1478
VWidth: 0
Flags: MW
LayerCount: 2
Fore
SplineSet
49 1168 m 1
 59 1244 l 1
 1426 1244 l 1
 1415 1168 l 1
 1248 1130 l 1
 1248 114 l 1
 1430 80 l 1
 1419 0 l 1
 876 0 l 1
 888 74 l 1
 1053 121 l 1
 1053 1140 l 1
 426 1139 l 1
 426 114 l 1
 611 80 l 1
 598 0 l 1
 56 0 l 1
 64 74 l 1
 231 121 l 1
 231 1126 l 1
 49 1168 l 1
EndSplineSet
Colour: ffffff
EndChar

StartChar: q
Encoding: 113 113 293
Width: 955
VWidth: 0
Flags: MW
LayerCount: 2
Fore
SplineSet
54 412 m 0
 54 683 284 900 494 900 c 0
 560 900 637 869 667 853 c 1
 784 892 l 1
 813 890 l 1
 813 -251 l 1
 973 -285 l 1
 962 -366 l 1
 486 -366 l 1
 496 -287 l 1
 647 -251 l 1
 647 663 l 1
 613 724 545 801 445 801 c 0
 323 801 228 677 228 474 c 0
 228 237 320 104 446 104 c 0
 476 104 569 118 618 148 c 1
 621 73 l 1
 559 14 451 -21 381 -21 c 0
 204 -21 54 115 54 412 c 0
EndSplineSet
Colour: ffffff
EndChar

StartChar: question
Encoding: 63 63 294
Width: 642
VWidth: 0
Flags: MW
LayerCount: 2
Fore
SplineSet
47 1152 m 0
 47 1205 86 1287 243 1287 c 0
 398 1287 587 1114 587 860 c 0
 587 623 299 656 299 508 c 0
 299 468 306 432 321 383 c 1
 246 366 l 1
 219 406 169 505 169 585 c 0
 169 809 476 734 476 939 c 0
 476 1031 372 1113 313 1113 c 0
 237 1113 164 1087 121 1041 c 1
 88 1054 47 1098 47 1152 c 0
159 92 m 0
 159 159 216 210 282 210 c 0
 349 210 406 157 406 90 c 0
 406 20 352 -36 282 -36 c 0
 212 -36 159 22 159 92 c 0
EndSplineSet
Colour: ffffff
EndChar

StartChar: questiondown
Encoding: 191 191 295
Width: 383
VWidth: 0
Flags: HMW
LayerCount: 2
Fore
SplineSet
73 92 m 0
 73 156 127 205 191 205 c 0
 257 205 313 154 313 90 c 0
 313 23 257 -31 191 -31 c 0
 125 -31 73 25 73 92 c 0
EndSplineSet
Colour: ffffff
EndChar

StartChar: quotedbl
Encoding: 34 34 296
Width: 497
VWidth: 0
Flags: MW
LayerCount: 2
Back
SplineSet
497 1303 m 1
 677 1286 l 1
 581 903 l 1
 486 892 l 1
 497 1303 l 1
289 1303 m 1
 469 1286 l 1
 373 903 l 1
 277 892 l 1
 289 1303 l 1
EndSplineSet
Fore
SplineSet
50 1302 m 1
 233 1286 l 1
 197 903 l 1
 104 892 l 1
 50 1302 l 1
258 1302 m 1
 442 1286 l 1
 406 903 l 1
 311 892 l 1
 258 1302 l 1
EndSplineSet
Colour: ffffff
EndChar

StartChar: quotedblbase
Encoding: 8222 8222 297
Width: 749
VWidth: 0
Flags: MW
LayerCount: 2
Fore
SplineSet
54 -254 m 1
 185 -220 236 -144 236 -80 c 0
 236 -24 190 27 120 27 c 0
 110 27 100 25 90 24 c 1
 82 45 76 64 76 87 c 0
 76 167 148 208 198 208 c 0
 268 208 372 151 372 0 c 0
 372 -93 340 -253 77 -323 c 1
 54 -254 l 1
372 -254 m 1
 503 -220 553 -144 553 -80 c 0
 553 -24 508 27 438 27 c 0
 428 27 418 25 408 24 c 1
 400 45 393 64 393 87 c 0
 393 167 466 208 516 208 c 0
 586 208 691 151 691 0 c 0
 691 -93 658 -253 395 -323 c 1
 372 -254 l 1
EndSplineSet
Colour: ffffff
EndChar

StartChar: quotedblleft
Encoding: 8220 8220 298
Width: 736
VWidth: 0
Flags: MW
LayerCount: 2
Fore
SplineSet
54 964 m 0
 54 1057 88 1217 351 1287 c 1
 372 1219 l 1
 241 1185 191 1109 191 1045 c 0
 191 989 238 938 308 938 c 0
 318 938 328 939 338 940 c 1
 346 919 352 901 352 878 c 0
 352 798 280 756 230 756 c 0
 160 756 54 813 54 964 c 0
369 964 m 0
 369 1057 403 1217 666 1287 c 1
 688 1219 l 1
 557 1185 507 1109 507 1045 c 0
 507 989 553 938 623 938 c 0
 633 938 642 939 652 940 c 1
 660 919 666 901 666 878 c 0
 666 798 594 756 544 756 c 0
 474 756 369 813 369 964 c 0
EndSplineSet
Colour: ffffff
EndChar

StartChar: quotedblright
Encoding: 8221 8221 299
Width: 741
VWidth: 0
Flags: MW
LayerCount: 2
Fore
SplineSet
62 824 m 1
 193 858 243 934 243 998 c 0
 243 1054 198 1104 128 1104 c 0
 118 1104 108 1104 98 1103 c 1
 90 1124 83 1143 83 1166 c 0
 83 1246 156 1286 206 1286 c 0
 276 1286 381 1229 381 1078 c 0
 381 985 348 825 85 755 c 1
 62 824 l 1
380 824 m 1
 511 858 561 934 561 998 c 0
 561 1054 515 1104 445 1104 c 0
 435 1104 425 1104 415 1103 c 1
 407 1124 400 1143 400 1166 c 0
 400 1246 473 1286 523 1286 c 0
 593 1286 698 1229 698 1078 c 0
 698 985 665 825 402 755 c 1
 380 824 l 1
EndSplineSet
Colour: ffffff
EndChar

StartChar: quoteleft
Encoding: 8216 8216 300
Width: 419
VWidth: 0
Flags: MW
LayerCount: 2
Fore
SplineSet
53 961 m 0
 53 1054 86 1214 349 1284 c 1
 372 1215 l 1
 241 1181 190 1105 190 1041 c 0
 190 985 236 934 306 934 c 0
 316 934 325 936 335 937 c 1
 343 916 351 898 351 875 c 0
 351 795 278 753 228 753 c 0
 158 753 53 810 53 961 c 0
EndSplineSet
Colour: ffffff
EndChar

StartChar: quotereversed
Encoding: 8219 8219 301
Width: 425
VWidth: 0
Flags: MW
LayerCount: 2
Fore
SplineSet
47 1081 m 0
 47 1232 152 1289 222 1289 c 0
 303 1289 371 1206 329 1109 c 1
 246 1103 184 1065 184 1001 c 0
 184 937 235 861 366 827 c 1
 343 758 l 1
 80 828 47 988 47 1081 c 0
EndSplineSet
Colour: ffffff
EndChar

StartChar: quoteright
Encoding: 8217 8217 302
Width: 425
VWidth: 0
Flags: MW
LayerCount: 2
Fore
SplineSet
62 819 m 1
 193 853 243 928 243 992 c 0
 243 1048 198 1100 128 1100 c 0
 118 1100 108 1098 98 1097 c 1
 90 1118 83 1137 83 1160 c 0
 83 1240 156 1281 206 1281 c 0
 276 1281 381 1224 381 1073 c 0
 381 980 348 820 85 750 c 1
 62 819 l 1
EndSplineSet
Colour: ffffff
EndChar

StartChar: quotesinglbase
Encoding: 8218 8218 303
Width: 434
VWidth: 0
Flags: MW
LayerCount: 2
Fore
SplineSet
54 -244 m 1
 185 -210 236 -134 236 -70 c 0
 236 -14 190 36 120 36 c 0
 110 36 100 35 90 34 c 1
 82 55 76 74 76 97 c 0
 76 177 148 218 198 218 c 0
 268 218 372 161 372 10 c 0
 372 -83 340 -243 77 -313 c 1
 54 -244 l 1
EndSplineSet
Colour: ffffff
EndChar

StartChar: quotesingle
Encoding: 39 39 304
Width: 289
VWidth: 0
Flags: MW
LayerCount: 2
Back
SplineSet
306 1303 m 1
 486 1286 l 1
 390 903 l 1
 294 892 l 1
 306 1303 l 1
EndSplineSet
Fore
SplineSet
50 1302 m 1
 233 1286 l 1
 197 903 l 1
 104 892 l 1
 50 1302 l 1
EndSplineSet
Colour: ffffff
EndChar

StartChar: r
Encoding: 114 114 305
Width: 735
VWidth: 0
Flags: MW
LayerCount: 2
Fore
SplineSet
40 0 m 1
 50 74 l 1
 203 114 l 1
 203 728 l 1
 40 777 l 1
 54 853 l 1
 341 890 l 1
 364 866 l 1
 344 636 l 1
 363 636 l 1
 416 817 515 906 598 906 c 0
 672 906 718 852 718 793 c 0
 718 750 693 709 640 673 c 1
 606 703 566 722 530 722 c 0
 477 722 390 655 369 504 c 1
 369 121 l 1
 602 87 l 1
 592 0 l 1
 40 0 l 1
EndSplineSet
Colour: ffffff
EndChar

StartChar: racute
Encoding: 341 341 306
Width: 383
VWidth: 0
Flags: HMW
LayerCount: 2
Fore
SplineSet
73 92 m 0
 73 156 127 205 191 205 c 0
 257 205 313 154 313 90 c 0
 313 23 257 -31 191 -31 c 0
 125 -31 73 25 73 92 c 0
EndSplineSet
Colour: ffffff
EndChar

StartChar: radical
Encoding: 8730 8730 307
Width: 953
VWidth: 0
Flags: MW
LayerCount: 2
Fore
SplineSet
-3 441 m 1
 6 517 l 1
 268 532 l 1
 415 89 l 1
 862 1296 l 1
 981 1302 l 1
 449 -114 l 1
 322 -132 l 1
 117 412 l 1
 -3 441 l 1
EndSplineSet
Colour: ffffff
EndChar

StartChar: rcaron
Encoding: 345 345 308
Width: 383
VWidth: 0
Flags: HMW
LayerCount: 2
Fore
SplineSet
73 92 m 0
 73 156 127 205 191 205 c 0
 257 205 313 154 313 90 c 0
 313 23 257 -31 191 -31 c 0
 125 -31 73 25 73 92 c 0
EndSplineSet
Colour: ffffff
EndChar

StartChar: rcommaaccent
Encoding: 343 343 309
Width: 383
VWidth: 0
Flags: HMW
LayerCount: 2
Fore
SplineSet
73 92 m 0
 73 156 127 205 191 205 c 0
 257 205 313 154 313 90 c 0
 313 23 257 -31 191 -31 c 0
 125 -31 73 25 73 92 c 0
EndSplineSet
Colour: ffffff
EndChar

StartChar: registered
Encoding: 174 174 310
Width: 383
VWidth: 0
Flags: HMW
LayerCount: 2
Fore
SplineSet
73 92 m 0
 73 156 127 205 191 205 c 0
 257 205 313 154 313 90 c 0
 313 23 257 -31 191 -31 c 0
 125 -31 73 25 73 92 c 0
EndSplineSet
Colour: ffffff
EndChar

StartChar: ring
Encoding: 730 730 311
Width: 383
VWidth: 0
Flags: HMW
LayerCount: 2
Fore
SplineSet
73 92 m 0
 73 156 127 205 191 205 c 0
 257 205 313 154 313 90 c 0
 313 23 257 -31 191 -31 c 0
 125 -31 73 25 73 92 c 0
EndSplineSet
Colour: ffffff
EndChar

StartChar: s
Encoding: 115 115 312
Width: 697
VWidth: 0
Flags: MW
LayerCount: 2
Fore
SplineSet
50 141 m 0
 50 208 99 265 182 271 c 1
 225 130 295 64 371 64 c 0
 441 64 503 91 503 165 c 0
 503 324 74 360 74 635 c 0
 74 751 170 900 372 900 c 0
 503 900 617 845 617 734 c 0
 617 651 564 595 477 589 c 1
 470 632 l 2
 442 780 380 816 321 816 c 0
 251 816 209 760 209 696 c 0
 209 509 648 487 648 220 c 0
 648 72 494 -34 340 -34 c 0
 162 -34 50 51 50 141 c 0
EndSplineSet
Colour: ffffff
EndChar

StartChar: sacute
Encoding: 347 347 313
Width: 383
VWidth: 0
Flags: HMW
LayerCount: 2
Fore
SplineSet
73 92 m 0
 73 156 127 205 191 205 c 0
 257 205 313 154 313 90 c 0
 313 23 257 -31 191 -31 c 0
 125 -31 73 25 73 92 c 0
EndSplineSet
Colour: ffffff
EndChar

StartChar: scaron
Encoding: 353 353 314
Width: 383
VWidth: 0
Flags: HMW
LayerCount: 2
Fore
SplineSet
73 92 m 0
 73 156 127 205 191 205 c 0
 257 205 313 154 313 90 c 0
 313 23 257 -31 191 -31 c 0
 125 -31 73 25 73 92 c 0
EndSplineSet
Colour: ffffff
EndChar

StartChar: scedilla
Encoding: 351 351 315
Width: 383
VWidth: 0
Flags: HMW
LayerCount: 2
Fore
SplineSet
73 92 m 0
 73 156 127 205 191 205 c 0
 257 205 313 154 313 90 c 0
 313 23 257 -31 191 -31 c 0
 125 -31 73 25 73 92 c 0
EndSplineSet
Colour: ffffff
EndChar

StartChar: scommaaccent
Encoding: 537 537 316
Width: 383
VWidth: 0
Flags: HMW
LayerCount: 2
Fore
SplineSet
73 92 m 0
 73 156 127 205 191 205 c 0
 257 205 313 154 313 90 c 0
 313 23 257 -31 191 -31 c 0
 125 -31 73 25 73 92 c 0
EndSplineSet
Colour: ffffff
EndChar

StartChar: section
Encoding: 167 167 317
Width: 383
VWidth: 0
Flags: HMW
LayerCount: 2
Fore
SplineSet
73 92 m 0
 73 156 127 205 191 205 c 0
 257 205 313 154 313 90 c 0
 313 23 257 -31 191 -31 c 0
 125 -31 73 25 73 92 c 0
EndSplineSet
Colour: ffffff
EndChar

StartChar: semicolon
Encoding: 59 59 318
Width: 462
VWidth: 0
Flags: MW
LayerCount: 2
Back
SplineSet
342 852 m 0
 403 852 446 806 436 745 c 0
 426 681 367 629 306 629 c 0
 243 629 203 682 213 746 c 0
 223 807 281 852 342 852 c 0
243 225 m 0
 304 225 347 176 337 117 c 0
 327 53 267 2 206 2 c 0
 143 2 102 55 112 119 c 0
 122 178 182 225 243 225 c 0
EndSplineSet
Fore
SplineSet
77 -230 m 1
 199 -198 246 -131 246 -70 c 0
 246 -18 204 31 138 31 c 0
 129 31 119 29 110 28 c 1
 102 47 96 66 96 87 c 0
 96 161 163 199 210 199 c 0
 274 199 372 145 372 6 c 0
 372 -81 342 -231 98 -295 c 1
 77 -230 l 1
126 744 m 0
 126 806 178 853 240 853 c 0
 304 853 356 805 356 743 c 0
 356 678 304 626 240 626 c 0
 176 626 126 679 126 744 c 0
EndSplineSet
Colour: ffffff
EndChar

StartChar: seven
Encoding: 55 55 319
Width: 982
VWidth: 1651
Flags: MW
LayerCount: 2
Back
SplineSet
390 1006 m 1
 320 872 l 1
 254 885 l 1
 315 1154 l 1
 1070 1154 l 1
 1065 1103 l 1
 486 -33 l 1
 398 -3 l 1
 892 1006 l 1
 390 1006 l 1
EndSplineSet
Fore
SplineSet
5 809 m 1
 29 1182 l 1
 817 1182 l 1
 817 1130 l 1
 380 -33 l 1
 173 -11 l 1
 662 1015 l 1
 149 1015 l 1
 74 796 l 1
 5 809 l 1
EndSplineSet
Substitution2: "'sups' Superscript lookup 0 subtable" seven.superior
Colour: ffffff
EndChar

StartChar: seven.osf
Encoding: 65544 -1 320
Width: 706
VWidth: 0
Flags: MW
LayerCount: 2
Back
SplineSet
38.2266 827.532 m 5
 69.2197 1157.1 l 5
 869.891 1157.1 l 5
 886.42 1037.26 l 5
 651.903 613.676 497.966 385.355 380.189 39.2588 c 4
 340.93 -76.4512 295.475 -265.513 295.475 -370.892 c 5
 281.01 -372.958 250.018 -381.224 237.619 -381.224 c 4
 159.101 -381.224 89.8818 -329.566 89.8818 -244.851 c 4
 89.8818 -201.459 103.312 -138.439 136.373 -64.0537 c 4
 288.24 277.909 511.396 616.774 710.789 967.005 c 5
 183.896 967.005 l 5
 125.008 811.004 l 5
 38.2266 827.532 l 5
EndSplineSet
Fore
SplineSet
15 617 m 1
 55 945 l 1
 693 945 l 1
 706 850 l 1
 484 448 305 139 252 -295 c 1
 241 -296 216 -304 206 -304 c 0
 121 -304 84 -253 84 -189 c 0
 84 -26 424 550 565 786 c 1
 147 786 l 1
 83 604 l 1
 15 617 l 1
EndSplineSet
Colour: ffffff
EndChar

StartChar: six
Encoding: 54 54 321
Width: 982
VWidth: 1651
Flags: MW
LayerCount: 2
Back
SplineSet
398 595 m 1
 411 608 428 619 446 631 c 0
 464 643 486 654 509 662 c 0
 532 670 555 679 580 684 c 0
 605 689 631 692 657 692 c 0
 700 692 740 684 773 667 c 0
 806 650 836 626 859 598 c 0
 882 570 900 538 912 502 c 0
 924 466 930 426 930 386 c 0
 930 332 917 280 892 230 c 0
 867 180 834 135 793 99 c 0
 752 63 704 33 651 12 c 0
 598 -9 542 -21 484 -21 c 256
 426 -21 377 -13 337 7 c 0
 297 27 264 53 238 84 c 0
 212 115 194 154 182 197 c 0
 170 240 165 286 165 334 c 0
 165 395 175 454 193 515 c 0
 211 576 238 634 271 692 c 0
 304 750 345 804 390 855 c 0
 435 906 482 954 535 997 c 0
 588 1040 642 1079 700 1110 c 0
 758 1141 816 1168 874 1186 c 1
 902 1130 l 1
 834 1100 773 1065 717 1024 c 0
 661 983 611 940 568 892 c 0
 525 844 489 794 459 743 c 0
 429 692 405 643 388 595 c 1
 398 595 l 1
504 59 m 0
 555 59 597 70 628 88 c 0
 659 106 686 130 704 160 c 0
 722 190 733 222 740 258 c 0
 747 294 748 329 748 362 c 0
 748 390 744 418 737 446 c 0
 730 474 720 498 705 519 c 0
 690 540 672 558 651 571 c 0
 630 584 603 591 573 591 c 0
 555 591 535 590 515 585 c 0
 495 580 475 574 457 566 c 0
 439 558 421 550 406 542 c 0
 391 534 382 523 375 515 c 1
 370 494 364 465 357 434 c 0
 350 403 347 370 347 335 c 0
 347 300 350 266 357 233 c 0
 364 200 373 171 386 145 c 0
 399 119 416 98 436 83 c 0
 456 68 479 59 504 59 c 0
EndSplineSet
Fore
SplineSet
59 421 m 0
 59 756 352 1112 666 1214 c 1
 703 1155 l 1
 442 1036 312 807 272 609 c 1
 283 609 l 1
 327 659 410 709 518 709 c 0
 712 709 849 589 849 370 c 0
 849 133 659 -21 442 -21 c 0
 171 -21 59 187 59 421 c 0
262 406 m 0
 262 235 327 61 449 61 c 0
 611 61 644 174 644 328 c 0
 644 463 587 606 445 606 c 0
 371 606 293 563 269 527 c 1
 266 494 262 440 262 406 c 0
EndSplineSet
Substitution2: "'sups' Superscript lookup 0 subtable" six.superior
Colour: ffffff
EndChar

StartChar: six.osf
Encoding: 65545 -1 322
Width: 796
VWidth: 0
Flags: MW
LayerCount: 2
Fore
SplineSet
37 421 m 0
 37 756 314 1127 628 1229 c 1
 663 1171 l 1
 402 1052 282 816 242 618 c 1
 252 618 l 1
 310 686 393 722 475 722 c 0
 653 722 759 577 759 390 c 0
 759 170 586 -21 385 -21 c 0
 129 -21 37 187 37 421 c 0
232 406 m 0
 232 235 285 61 402 61 c 0
 507 61 572 174 572 328 c 0
 572 463 538 615 396 615 c 0
 322 615 263 570 239 534 c 1
 236 501 232 440 232 406 c 0
EndSplineSet
Colour: ffffff
EndChar

StartChar: slash
Encoding: 47 47 323
Width: 676
VWidth: 0
Flags: MW
LayerCount: 2
Fore
SplineSet
44 -363 m 1
 506 1235 l 1
 638 1244 l 1
 172 -355 l 1
 44 -363 l 1
EndSplineSet
Colour: ffffff
EndChar

StartChar: softhyphen
Encoding: 173 173 324
Width: 383
VWidth: 0
Flags: HMW
LayerCount: 2
Back
SplineSet
170 522 m 1
 588 581 l 1
 562 466 l 1
 144 406 l 1
 170 522 l 1
EndSplineSet
Fore
SplineSet
73 92 m 0
 73 156 127 205 191 205 c 0
 257 205 313 154 313 90 c 0
 313 23 257 -31 191 -31 c 0
 125 -31 73 25 73 92 c 0
EndSplineSet
Colour: ffffff
EndChar

StartChar: sterling
Encoding: 163 163 326
Width: 383
VWidth: 0
Flags: HMW
LayerCount: 2
Back
SplineSet
1093 1211 m 1x70
 1012 895 l 1
 928 908 l 1
 922 1121 l 1
 902 1133 877 1144 841 1144 c 0
 674 1144 622 1038 563 704 c 1
 557 656 l 1
 778 669 l 1
 750 568 l 1
 538 555 l 1
 530 515 l 1
 502 356 468 196 405 99 c 1xb0
 864 96 l 1
 1034 348 l 1
 1118 330 l 1
 1027 0 l 1
 38 0 l 1
 58 74 l 1
 233 121 l 1
 281 222 299 312 325 461 c 2
 342 548 l 1
 162 538 l 1
 188 639 l 1
 360 649 l 1
 385 786 l 1
 446 1108 641 1250 867 1250 c 0
 948 1250 1019 1244 1093 1211 c 1x70
EndSplineSet
Fore
SplineSet
73 92 m 0
 73 156 127 205 191 205 c 0
 257 205 313 154 313 90 c 0
 313 23 257 -31 191 -31 c 0
 125 -31 73 25 73 92 c 0
EndSplineSet
Colour: ffffff
EndChar

StartChar: summation
Encoding: 8721 8721 327
Width: 1137
VWidth: 0
Flags: MW
LayerCount: 2
Fore
SplineSet
44 1185 m 1
 56 1244 l 1
 1045 1244 l 1
 1014 924 l 1
 927 937 l 1
 887 1152 l 1
 282 1152 l 1
 698 679 l 1
 695 633 l 1
 270 162 l 1
 895 162 l 1
 992 391 l 1
 1075 380 l 1
 1045 0 l 1
 54 0 l 1
 54 74 l 1
 534 606 l 1
 534 618 l 1
 44 1185 l 1
EndSplineSet
Colour: ffffff
EndChar

StartChar: t
Encoding: 116 116 328
Width: 649
VWidth: 0
Flags: MW
LayerCount: 2
Fore
SplineSet
28 783 m 1
 28 837 l 1
 111 901 205 998 275 1087 c 1
 328 1087 l 1
 328 869 l 1
 611 869 l 1
 602 781 l 1
 326 781 l 1
 323 319 l 2
 323 168 368 122 470 122 c 0
 544 122 614 178 614 178 c 1
 635 124 l 1
 574 35 478 -23 364 -23 c 0
 242 -23 149 37 151 260 c 2
 155 783 l 1
 28 783 l 1
EndSplineSet
Colour: ffffff
EndChar

StartChar: tbar
Encoding: 359 359 329
Width: 383
VWidth: 0
Flags: HMW
LayerCount: 2
Fore
SplineSet
73 92 m 0
 73 156 127 205 191 205 c 0
 257 205 313 154 313 90 c 0
 313 23 257 -31 191 -31 c 0
 125 -31 73 25 73 92 c 0
EndSplineSet
Colour: ffffff
EndChar

StartChar: tcaron
Encoding: 357 357 330
Width: 383
VWidth: 0
Flags: HMW
LayerCount: 2
Fore
SplineSet
73 92 m 0
 73 156 127 205 191 205 c 0
 257 205 313 154 313 90 c 0
 313 23 257 -31 191 -31 c 0
 125 -31 73 25 73 92 c 0
EndSplineSet
Colour: ffffff
EndChar

StartChar: tcedilla
Encoding: 355 355 331
Width: 383
VWidth: 0
Flags: HMW
LayerCount: 2
Fore
SplineSet
73 92 m 0
 73 156 127 205 191 205 c 0
 257 205 313 154 313 90 c 0
 313 23 257 -31 191 -31 c 0
 125 -31 73 25 73 92 c 0
EndSplineSet
Colour: ffffff
EndChar

StartChar: tcommaaccent
Encoding: 539 539 332
Width: 383
VWidth: 0
Flags: HMW
LayerCount: 2
Fore
SplineSet
73 92 m 0
 73 156 127 205 191 205 c 0
 257 205 313 154 313 90 c 0
 313 23 257 -31 191 -31 c 0
 125 -31 73 25 73 92 c 0
EndSplineSet
Colour: ffffff
EndChar

StartChar: thorn
Encoding: 254 254 333
Width: 383
VWidth: 0
Flags: HMW
LayerCount: 2
Fore
SplineSet
73 92 m 0
 73 156 127 205 191 205 c 0
 257 205 313 154 313 90 c 0
 313 23 257 -31 191 -31 c 0
 125 -31 73 25 73 92 c 0
EndSplineSet
Colour: ffffff
EndChar

StartChar: three
Encoding: 51 51 334
Width: 982
VWidth: 1651
Flags: MW
LayerCount: 2
Back
SplineSet
258 208 m 1xf8
 258 198 263 185 271 168 c 0
 279 151 289 134 304 117 c 0
 319 100 337 86 357 74 c 0
 377 62 398 56 421 56 c 0
 482 56 529 66 565 86 c 0
 601 106 629 131 647 159 c 0
 665 187 675 215 680 243 c 0
 685 271 689 293 689 310 c 0xf8
 689 336 682 363 670 391 c 0
 658 419 644 445 621 466 c 0
 598 487 570 506 537 519 c 0
 504 532 465 540 424 540 c 2
 408 540 l 1
 408 604 l 1
 415 606 428 611 446 618 c 0
 464 625 486 635 509 647 c 0
 532 659 558 673 583 690 c 0
 608 707 633 727 654 750 c 0
 675 773 694 796 707 822 c 0
 720 848 727 880 727 913 c 0
 727 931 725 947 720 964 c 0
 715 981 706 998 694 1011 c 0
 682 1024 667 1036 649 1044 c 0
 631 1052 608 1055 580 1055 c 0
 527 1055 484 1040 451 1014 c 0
 418 988 388 952 363 907 c 1
 294 931 l 1
 302 957 317 984 340 1014 c 0
 363 1044 390 1072 423 1097 c 0
 456 1122 492 1142 532 1159 c 0
 572 1176 614 1184 657 1184 c 0
 692 1184 724 1180 755 1168 c 0
 786 1156 813 1143 836 1123 c 0
 859 1103 875 1080 888 1054 c 0
 901 1028 908 995 908 964 c 0xf4
 908 921 902 884 885 849 c 0
 868 814 847 784 822 758 c 0
 797 732 768 710 735 690 c 0
 702 670 669 654 634 642 c 1
 633 631 l 1
 673 626 707 615 737 598 c 0
 767 581 791 561 811 538 c 0
 831 515 845 490 855 462 c 0
 865 434 870 405 870 377 c 0
 870 323 857 270 829 220 c 0
 801 170 764 125 718 89 c 0
 672 53 618 24 555 3 c 0
 492 -18 427 -30 358 -30 c 0
 317 -30 283 -26 253 -18 c 0
 223 -10 198 0 178 12 c 0
 158 24 144 38 134 53 c 0
 124 68 119 84 119 99 c 0
 119 124 130 147 155 168 c 0
 180 189 215 203 258 208 c 1xf8
EndSplineSet
Fore
SplineSet
37 74 m 1
 88 373 l 1
 173 360 l 1
 186 157 l 1
 209 115 279 72 349 72 c 0
 505 72 597 148 597 297 c 0
 597 423 463 545 266 545 c 1
 256 611 l 1
 338 637 556 742 556 918 c 0
 556 1018 495 1124 371 1124 c 0
 317 1124 263 1101 227 1068 c 1
 181 812 l 1
 96 823 l 1
 78 1090 l 1
 122 1138 284 1213 429 1213 c 0
 619 1213 768 1125 768 960 c 0
 768 798 604 693 483 649 c 1
 483 637 l 1
 661 613 813 522 813 357 c 0
 813 139 592 -30 328 -30 c 0
 194 -30 65 29 37 74 c 1
EndSplineSet
Substitution2: "'sups' Superscript lookup 0 subtable" three.superior
Colour: ffffff
EndChar

StartChar: three.osf
Encoding: 65546 -1 335
Width: 692
VWidth: 0
Flags: MW
LayerCount: 2
Fore
SplineSet
-44 -159 m 0
 -44 -110 9 -46 92 -38 c 1
 98 -81 139 -210 235 -210 c 0
 420 -210 466 -86 466 30 c 0
 466 156 366 298 179 303 c 1
 169 370 l 1
 298 411 436 506 436 687 c 0
 436 774 400 857 310 857 c 0
 202 857 149 788 112 698 c 1
 34 725 l 1
 53 830 190 991 368 991 c 0
 519 991 623 884 623 739 c 0
 623 582 469 450 381 412 c 1
 381 401 l 1
 531 384 654 241 654 83 c 0
 654 -107 461 -297 215 -297 c 0
 41 -297 -44 -225 -44 -159 c 0
EndSplineSet
Colour: ffffff
EndChar

StartChar: threequarters
Encoding: 190 190 336
Width: 383
VWidth: 0
Flags: HMW
LayerCount: 2
Fore
SplineSet
73 92 m 0
 73 156 127 205 191 205 c 0
 257 205 313 154 313 90 c 0
 313 23 257 -31 191 -31 c 0
 125 -31 73 25 73 92 c 0
EndSplineSet
Colour: ffffff
EndChar

StartChar: three.superior
Encoding: 179 179 337
Width: 383
VWidth: 0
Flags: HMW
LayerCount: 2
Fore
SplineSet
73 92 m 0
 73 156 127 205 191 205 c 0
 257 205 313 154 313 90 c 0
 313 23 257 -31 191 -31 c 0
 125 -31 73 25 73 92 c 0
EndSplineSet
Colour: ffffff
EndChar

StartChar: tilde
Encoding: 732 732 338
Width: 383
VWidth: 0
Flags: HMW
LayerCount: 2
Fore
SplineSet
73 92 m 0
 73 156 127 205 191 205 c 0
 257 205 313 154 313 90 c 0
 313 23 257 -31 191 -31 c 0
 125 -31 73 25 73 92 c 0
EndSplineSet
Colour: ffffff
EndChar

StartChar: trademark
Encoding: 8482 8482 339
Width: 1146
VWidth: 0
Flags: MW
LayerCount: 2
Fore
SplineSet
540.25 684.2 m 1
 545.2 737.5 l 1
 620.35 758.65 l 1
 653.2 1170.9 l 1
 570.85 1189.8 l 1
 575.35 1244 l 1
 814.8 1244 l 1
 849.9 1156.7 l 1
 948.35 852.8 l 1
 1056.85 1171.55 l 1
 1088.8 1244 l 1
 1316.55 1244 l 1
 1312.05 1189.8 l 1
 1236.45 1172.7 l 1
 1259.85 755.5 l 1
 1341.75 740.2 l 1
 1337.25 684.2 l 1
 1066.05 684.2 l 1
 1071 737.5 l 1
 1145.7 758.65 l 1
 1120.5 1136 l 1
 980.05 707.7 l 1
 883.45 699.15 l 1
 728.1 1119.35 l 1
 699.75 755.5 l 1
 782.1 740.2 l 1
 776.25 684.2 l 1
 540.25 684.2 l 1
3 1244 m 1
 542.95 1244 l 1
 527.65 1071.9 l 1
 464.9 1078.65 l 1
 447.8 1182.6 l 1
 325.55 1182.6 l 1
 325.55 755.5 l 1
 408.8 740.2 l 1
 402.5 684.2 l 1
 129.95 684.2 l 1
 133.1 737.5 l 1
 209.15 758.65 l 1
 209.15 1182.6 l 1
 91.4004 1182.6 l 1
 67.5498 1073.25 l 1
 6.59961 1079.1 l 1
 3 1244 l 1
EndSplineSet
Colour: ffffff
EndChar

StartChar: two
Encoding: 50 50 340
Width: 982
VWidth: 1651
Flags: MW
LayerCount: 2
Back
SplineSet
94 2 m 1
 102 102 l 1
 363 302 l 2
 434 356 435 357 509 418 c 0
 559 459 604 502 644 548 c 0
 684 594 717 643 742 694 c 0
 767 745 779 799 779 857 c 0
 779 883 777 908 770 931 c 0
 763 954 755 975 742 993 c 0
 729 1011 710 1024 689 1034 c 0
 668 1044 639 1049 606 1049 c 0
 571 1049 542 1041 512 1026 c 0
 482 1011 456 991 433 966 c 0
 410 941 387 915 367 885 c 0
 347 855 330 827 315 799 c 1
 239 829 l 1
 254 870 277 912 307 953 c 0
 337 994 370 1032 410 1067 c 0
 450 1102 492 1128 538 1149 c 0
 584 1170 633 1181 684 1181 c 0
 778 1181 846 1158 892 1110 c 0
 938 1062 961 995 961 907 c 0
 961 826 939 753 898 685 c 0
 857 617 805 557 746 499 c 0
 687 441 621 388 555 340 c 0
 489 292 431 249 381 208 c 2
 296 135 l 1
 750 135 l 1
 867 306 l 1
 935 296 l 1
 839 0 l 1
 94 2 l 1
EndSplineSet
Fore
SplineSet
40 102 m 1
 275 299 l 2
 454 448 603 618 603 820 c 0
 603 958 577 1105 415 1105 c 0
 331 1105 260 1052 235 987 c 1
 198 726 l 1
 121 736 l 1
 94 1020 l 1
 152 1120 340 1209 483 1209 c 0
 701 1209 826 1084 826 866 c 0
 826 583 513 343 321 205 c 2
 246 151 l 1
 700 151 l 1
 804 368 l 1
 874 358 l 1
 826 0 l 1
 46 0 l 1
 40 102 l 1
EndSplineSet
Substitution2: "'sups' Superscript lookup 0 subtable" two.superior
Colour: ffffff
EndChar

StartChar: two.osf
Encoding: 65547 -1 341
Width: 791
VWidth: 0
Flags: MW
LayerCount: 2
Fore
SplineSet
40 102 m 1
 295 300 l 1
 463 432 497 561 497 658 c 0
 497 796 436 867 343 867 c 0
 257 867 166 782 133 675 c 1
 58 704 l 1
 74 800 209 987 417 991 c 0
 606 994 702 860 702 703 c 0
 702 509 522 348 328 206 c 1
 244 147 l 1
 615 147 l 1
 693 301 l 1
 764 292 l 1
 710 0 l 1
 47 0 l 1
 40 102 l 1
EndSplineSet
Colour: ffffff
EndChar

StartChar: two.superior
Encoding: 178 178 342
Width: 383
VWidth: 0
Flags: HMW
LayerCount: 2
Fore
SplineSet
73 92 m 0
 73 156 127 205 191 205 c 0
 257 205 313 154 313 90 c 0
 313 23 257 -31 191 -31 c 0
 125 -31 73 25 73 92 c 0
EndSplineSet
Colour: ffffff
EndChar

StartChar: u
Encoding: 117 117 343
Width: 1002
VWidth: 0
Flags: MW
LayerCount: 2
Fore
SplineSet
19 783 m 1
 33 862 l 1
 301 883 l 1
 326 859 l 1
 326 317 l 2
 326 166 390 114 480 114 c 0
 570 114 623 147 666 191 c 1
 666 722 l 1
 507 764 l 1
 517 856 l 1
 811 883 l 1
 832 859 l 1
 832 215 l 2
 832 115 874 104 940 89 c 2
 986 79 l 1
 977 -4 l 1
 915 -19 885 -23 826 -23 c 0
 726 -23 679 39 679 122 c 2
 679 131 l 1
 666 131 l 1
 596 29 501 -23 380 -23 c 0
 251 -23 157 52 157 267 c 2
 157 728 l 1
 19 783 l 1
EndSplineSet
Colour: ffffff
EndChar

StartChar: uacute
Encoding: 250 250 344
Width: 383
VWidth: 0
Flags: HMW
LayerCount: 2
Fore
SplineSet
73 92 m 0
 73 156 127 205 191 205 c 0
 257 205 313 154 313 90 c 0
 313 23 257 -31 191 -31 c 0
 125 -31 73 25 73 92 c 0
EndSplineSet
Colour: ffffff
EndChar

StartChar: ucaron
Encoding: 468 468 345
Width: 383
VWidth: 0
Flags: HMW
LayerCount: 2
Fore
SplineSet
73 92 m 0
 73 156 127 205 191 205 c 0
 257 205 313 154 313 90 c 0
 313 23 257 -31 191 -31 c 0
 125 -31 73 25 73 92 c 0
EndSplineSet
Colour: ffffff
EndChar

StartChar: ucircumflex
Encoding: 251 251 346
Width: 383
VWidth: 0
Flags: HMW
LayerCount: 2
Fore
SplineSet
73 92 m 0
 73 156 127 205 191 205 c 0
 257 205 313 154 313 90 c 0
 313 23 257 -31 191 -31 c 0
 125 -31 73 25 73 92 c 0
EndSplineSet
Colour: ffffff
EndChar

StartChar: udieresis
Encoding: 252 252 347
Width: 383
VWidth: 0
Flags: HMW
LayerCount: 2
Fore
SplineSet
73 92 m 0
 73 156 127 205 191 205 c 0
 257 205 313 154 313 90 c 0
 313 23 257 -31 191 -31 c 0
 125 -31 73 25 73 92 c 0
EndSplineSet
Colour: ffffff
EndChar

StartChar: udieresisacute
Encoding: 472 472 348
Width: 383
VWidth: 0
Flags: HMW
LayerCount: 2
Fore
SplineSet
73 92 m 0
 73 156 127 205 191 205 c 0
 257 205 313 154 313 90 c 0
 313 23 257 -31 191 -31 c 0
 125 -31 73 25 73 92 c 0
EndSplineSet
Colour: ffffff
EndChar

StartChar: udieresiscaron
Encoding: 474 474 349
Width: 383
VWidth: 0
Flags: HMW
LayerCount: 2
Fore
SplineSet
73 92 m 0
 73 156 127 205 191 205 c 0
 257 205 313 154 313 90 c 0
 313 23 257 -31 191 -31 c 0
 125 -31 73 25 73 92 c 0
EndSplineSet
Colour: ffffff
EndChar

StartChar: udieresisgrave
Encoding: 476 476 350
Width: 383
VWidth: 0
Flags: HMW
LayerCount: 2
Fore
SplineSet
73 92 m 0
 73 156 127 205 191 205 c 0
 257 205 313 154 313 90 c 0
 313 23 257 -31 191 -31 c 0
 125 -31 73 25 73 92 c 0
EndSplineSet
Colour: ffffff
EndChar

StartChar: udieresismacron
Encoding: 470 470 351
Width: 383
VWidth: 0
Flags: HMW
LayerCount: 2
Fore
SplineSet
73 92 m 0
 73 156 127 205 191 205 c 0
 257 205 313 154 313 90 c 0
 313 23 257 -31 191 -31 c 0
 125 -31 73 25 73 92 c 0
EndSplineSet
Colour: ffffff
EndChar

StartChar: ugrave
Encoding: 249 249 352
Width: 383
VWidth: 0
Flags: HMW
LayerCount: 2
Fore
SplineSet
73 92 m 0
 73 156 127 205 191 205 c 0
 257 205 313 154 313 90 c 0
 313 23 257 -31 191 -31 c 0
 125 -31 73 25 73 92 c 0
EndSplineSet
Colour: ffffff
EndChar

StartChar: uhungarumlaut
Encoding: 369 369 353
Width: 383
VWidth: 0
Flags: HMW
LayerCount: 2
Fore
SplineSet
73 92 m 0
 73 156 127 205 191 205 c 0
 257 205 313 154 313 90 c 0
 313 23 257 -31 191 -31 c 0
 125 -31 73 25 73 92 c 0
EndSplineSet
Colour: ffffff
EndChar

StartChar: umacron
Encoding: 363 363 354
Width: 383
VWidth: 0
Flags: HMW
LayerCount: 2
Fore
SplineSet
73 92 m 0
 73 156 127 205 191 205 c 0
 257 205 313 154 313 90 c 0
 313 23 257 -31 191 -31 c 0
 125 -31 73 25 73 92 c 0
EndSplineSet
Colour: ffffff
EndChar

StartChar: underscore
Encoding: 95 95 355
Width: 838
VWidth: 0
Flags: MW
LayerCount: 2
Fore
SplineSet
-1 -132 m 1
 11 -27 l 1
 839 -27 l 1
 828 -132 l 1
 -1 -132 l 1
EndSplineSet
Colour: ffffff
EndChar

StartChar: uniF001
Encoding: 61441 61441 356
Width: 1159
VWidth: 0
Flags: MW
LayerCount: 2
Fore
SplineSet
35 0 m 1
 47 73 l 1
 199 116 l 1
 199 784 l 1
 50 784 l 1
 62 857 l 1
 200 879 l 1
 233 1167 423 1304 565 1304 c 0
 670 1304 746 1269 746 1189 c 0
 746 1140 690 1090 657 1077 c 1
 608 1156 550 1198 494 1198 c 0
 420 1198 370 1153 368 981 c 2
 366 873 l 1
 623 873 l 1
 611 784 l 1
 366 784 l 1
 366 121 l 1
 611 83 l 1
 604 0 l 1
 35 0 l 1
658 0 m 1
 670 79 l 1
 821 116 l 1
 821 731 l 1
 670 786 l 1
 683 862 l 1
 964 885 l 1
 989 860 l 1
 989 116 l 1
 1149 80 l 1
 1137 0 l 1
 658 0 l 1
777 1194 m 0
 777 1258 833 1306 895 1306 c 0
 961 1306 1019 1256 1019 1192 c 0
 1019 1125 961 1070 895 1070 c 0
 829 1070 777 1127 777 1194 c 0
EndSplineSet
Colour: ffffff
EndChar

StartChar: uniF002
Encoding: 61442 61442 357
Width: 1143
VWidth: 0
Flags: MW
LayerCount: 2
Fore
SplineSet
641 0 m 1
 653 79 l 1
 805 116 l 1
 805 1117 l 1
 648 1171 l 1
 660 1247 l 1
 947 1269 l 1
 972 1245 l 1
 972 116 l 1
 1131 80 l 1
 1120 0 l 1
 641 0 l 1
35 0 m 1
 47 73 l 1
 199 116 l 1
 199 784 l 1
 50 784 l 1
 62 857 l 1
 200 879 l 1
 203 1153 401 1302 494 1302 c 0
 581 1302 638 1281 638 1214 c 0
 638 1174 604 1136 574 1120 c 1
 550 1147 476 1185 432 1185 c 0
 370 1185 359 1065 363 948 c 2
 366 873 l 1
 623 873 l 1
 611 784 l 1
 366 784 l 1
 366 121 l 1
 611 83 l 1
 604 0 l 1
 35 0 l 1
EndSplineSet
Colour: ffffff
EndChar

StartChar: uogonek
Encoding: 371 371 358
Width: 383
VWidth: 0
Flags: HMW
LayerCount: 2
Fore
SplineSet
73 92 m 0
 73 156 127 205 191 205 c 0
 257 205 313 154 313 90 c 0
 313 23 257 -31 191 -31 c 0
 125 -31 73 25 73 92 c 0
EndSplineSet
Colour: ffffff
EndChar

StartChar: uring
Encoding: 367 367 359
Width: 383
VWidth: 0
Flags: HMW
LayerCount: 2
Fore
SplineSet
73 92 m 0
 73 156 127 205 191 205 c 0
 257 205 313 154 313 90 c 0
 313 23 257 -31 191 -31 c 0
 125 -31 73 25 73 92 c 0
EndSplineSet
Colour: ffffff
EndChar

StartChar: v
Encoding: 118 118 360
Width: 904
VWidth: 0
Flags: MW
LayerCount: 2
Fore
SplineSet
-6 798 m 1
 4 873 l 1
 451 873 l 1
 443 799 l 1
 298 758 l 1
 486 194 l 1
 678 756 l 1
 517 798 l 1
 531 873 l 1
 914 873 l 1
 902 799 l 1
 794 758 l 1
 521 -10 l 1
 394 -28 l 1
 116 756 l 1
 -6 798 l 1
EndSplineSet
Colour: ffffff
EndChar

StartChar: w
Encoding: 119 119 361
Width: 1234
VWidth: 0
Flags: MW
LayerCount: 2
Fore
SplineSet
-2 799 m 1
 8 875 l 1
 423 875 l 1
 414 801 l 1
 279 760 l 1
 390 360 l 1
 414 240 l 1
 565 811 l 1
 704 829 l 1
 841 345 l 1
 862 234 l 1
 998 758 l 1
 848 799 l 1
 858 875 l 1
 1241 875 l 1
 1229 801 l 1
 1121 760 l 1
 909 -10 l 1
 790 -28 l 1
 617 586 l 1
 460 -10 l 1
 341 -28 l 1
 113 758 l 1
 -2 799 l 1
EndSplineSet
Colour: ffffff
EndChar

StartChar: wcircumflex
Encoding: 373 373 363
Width: 383
VWidth: 0
Flags: HMW
LayerCount: 2
Fore
SplineSet
73 92 m 0
 73 156 127 205 191 205 c 0
 257 205 313 154 313 90 c 0
 313 23 257 -31 191 -31 c 0
 125 -31 73 25 73 92 c 0
EndSplineSet
Colour: ffffff
EndChar

StartChar: wdieresis
Encoding: 7813 7813 364
Width: 1234
VWidth: 0
Flags: MW
LayerCount: 2
Fore
SplineSet
-2 799 m 1
 8 875 l 1
 423 875 l 1
 414 801 l 1
 279 760 l 1
 390 360 l 1
 414 240 l 1
 565 811 l 1
 704 829 l 1
 841 345 l 1
 862 234 l 1
 998 758 l 1
 848 799 l 1
 858 875 l 1
 1241 875 l 1
 1229 801 l 1
 1121 760 l 1
 909 -10 l 1
 790 -28 l 1
 617 586 l 1
 460 -10 l 1
 341 -28 l 1
 113 758 l 1
 -2 799 l 1
417 1084 m 0
 417 1131 460 1163 500 1163 c 0
 544 1163 586 1130 586 1084 c 0
 586 1035 544 1004 500 1004 c 0
 457 1004 417 1035 417 1084 c 0
684 1084 m 0
 684 1131 728 1163 768 1163 c 0
 812 1163 856 1130 856 1084 c 0
 856 1035 812 1004 768 1004 c 0
 725 1004 684 1035 684 1084 c 0
EndSplineSet
Colour: ffffff
EndChar

StartChar: x
Encoding: 120 120 366
Width: 958
VWidth: 0
Flags: MW
LayerCount: 2
Fore
SplineSet
21 0 m 1
 31 73 l 1
 138 114 l 1
 383 436 l 1
 154 764 l 1
 36 806 l 1
 46 882 l 1
 480 882 l 1
 467 807 l 1
 352 767 l 1
 508 549 l 1
 675 764 l 1
 538 806 l 1
 552 882 l 1
 927 882 l 1
 914 807 l 1
 810 767 l 1
 580 467 l 1
 823 114 l 1
 936 74 l 1
 927 0 l 1
 482 0 l 1
 495 73 l 1
 623 114 l 1
 458 351 l 1
 277 114 l 1
 419 74 l 1
 409 0 l 1
 21 0 l 1
EndSplineSet
Colour: ffffff
EndChar

StartChar: y
Encoding: 121 121 367
Width: 931
VWidth: 0
Flags: MW
LayerCount: 2
Fore
SplineSet
8 -261 m 0
 8 -221 18 -181 64 -141 c 1
 118 -178 162 -194 215 -194 c 0
 264 -194 332 -183 386 -49 c 2
 406 0 l 1
 121 758 l 1
 -3 796 l 1
 8 873 l 1
 428 873 l 1
 419 799 l 1
 292 761 l 1
 496 222 l 1
 712 756 l 1
 581 798 l 1
 595 873 l 1
 937 873 l 1
 930 799 l 1
 829 758 l 1
 498 -53 l 2
 394 -309 313 -380 162 -380 c 0
 70 -380 8 -318 8 -261 c 0
EndSplineSet
Colour: ffffff
EndChar

StartChar: yacute
Encoding: 253 253 368
Width: 383
VWidth: 0
Flags: HMW
LayerCount: 2
Fore
SplineSet
73 92 m 0
 73 156 127 205 191 205 c 0
 257 205 313 154 313 90 c 0
 313 23 257 -31 191 -31 c 0
 125 -31 73 25 73 92 c 0
EndSplineSet
Colour: ffffff
EndChar

StartChar: ycircumflex
Encoding: 375 375 369
Width: 383
VWidth: 0
Flags: HMW
LayerCount: 2
Fore
SplineSet
73 92 m 0
 73 156 127 205 191 205 c 0
 257 205 313 154 313 90 c 0
 313 23 257 -31 191 -31 c 0
 125 -31 73 25 73 92 c 0
EndSplineSet
Colour: ffffff
EndChar

StartChar: ydieresis
Encoding: 255 255 370
Width: 383
VWidth: 0
Flags: HMW
LayerCount: 2
Fore
SplineSet
73 92 m 0
 73 156 127 205 191 205 c 0
 257 205 313 154 313 90 c 0
 313 23 257 -31 191 -31 c 0
 125 -31 73 25 73 92 c 0
EndSplineSet
Colour: ffffff
EndChar

StartChar: yen
Encoding: 165 165 371
Width: 383
VWidth: 0
Flags: HMW
LayerCount: 2
Back
SplineSet
596 472 m 1
 289 472 l 1
 317 578 l 1
 581 578 l 1
 428 1126 l 1
 297 1168 l 1
 322 1244 l 1
 789 1244 l 1
 766 1168 l 1
 628 1130 l 1
 760 641 l 1
 1055 1126 l 1
 905 1168 l 1
 926 1244 l 1
 1323 1244 l 1
 1301 1168 l 1
 1171 1130 l 1
 829 578 l 1
 1133 578 l 1
 1105 472 l 1
 789 472 l 1
 770 345 l 1
 1093 345 l 1
 1065 239 l 1
 753 239 l 1
 733 114 l 1
 892 81 l 1
 869 0 l 1
 362 0 l 1
 383 74 l 1
 542 121 l 1
 560 239 l 1
 249 239 l 1
 277 345 l 1
 576 345 l 1
 596 472 l 1
EndSplineSet
Fore
SplineSet
73 92 m 0
 73 156 127 205 191 205 c 0
 257 205 313 154 313 90 c 0
 313 23 257 -31 191 -31 c 0
 125 -31 73 25 73 92 c 0
EndSplineSet
Colour: ffffff
EndChar

StartChar: z
Encoding: 122 122 373
Width: 818
VWidth: 0
Flags: MW
LayerCount: 2
Fore
SplineSet
53 87 m 1
 543 780 l 1
 206 780 l 1
 147 595 l 1
 70 608 l 1
 78 873 l 1
 750 873 l 1
 750 799 l 1
 248 99 l 1
 608 99 l 1
 703 275 l 1
 770 267 l 1
 728 0 l 1
 57 0 l 1
 53 87 l 1
EndSplineSet
Colour: ffffff
EndChar

StartChar: zacute
Encoding: 378 378 374
Width: 383
VWidth: 0
Flags: HMW
LayerCount: 2
Fore
SplineSet
73 92 m 0
 73 156 127 205 191 205 c 0
 257 205 313 154 313 90 c 0
 313 23 257 -31 191 -31 c 0
 125 -31 73 25 73 92 c 0
EndSplineSet
Colour: ffffff
EndChar

StartChar: zcaron
Encoding: 382 382 375
Width: 383
VWidth: 0
Flags: HMW
LayerCount: 2
Fore
SplineSet
73 92 m 0
 73 156 127 205 191 205 c 0
 257 205 313 154 313 90 c 0
 313 23 257 -31 191 -31 c 0
 125 -31 73 25 73 92 c 0
EndSplineSet
Colour: ffffff
EndChar

StartChar: zdotaccent
Encoding: 380 380 376
Width: 383
VWidth: 0
Flags: HMW
LayerCount: 2
Fore
SplineSet
73 92 m 0
 73 156 127 205 191 205 c 0
 257 205 313 154 313 90 c 0
 313 23 257 -31 191 -31 c 0
 125 -31 73 25 73 92 c 0
EndSplineSet
Colour: ffffff
EndChar

StartChar: zero
Encoding: 48 48 377
Width: 982
VWidth: 1651
Flags: MW
LayerCount: 2
Back
SplineSet
317 411 m 0
 317 292 335 205 370 152 c 0
 405 99 451 73 510 73 c 0
 551 73 593 82 631 102 c 0
 669 122 703 158 733 208 c 0
 763 258 785 324 803 410 c 0
 821 496 829 603 829 733 c 0
 829 840 814 925 784 984 c 0
 754 1043 710 1075 649 1075 c 0
 601 1075 558 1063 522 1042 c 0
 486 1021 458 991 433 955 c 0
 408 919 388 878 373 832 c 0
 358 786 345 737 337 687 c 0
 329 637 323 590 320 542 c 0
 317 494 317 451 317 411 c 0
991 699 m 0
 991 580 976 476 945 385 c 0
 914 294 874 220 826 159 c 0
 778 98 726 51 667 20 c 0
 608 -11 549 -26 495 -26 c 0
 447 -26 403 -17 362 3 c 0
 321 23 284 52 253 92 c 0
 222 132 198 180 180 239 c 0
 162 298 154 369 154 448 c 0
 154 557 168 656 198 745 c 0
 228 834 266 911 314 974 c 0
 362 1037 417 1085 476 1120 c 0
 535 1155 598 1173 659 1173 c 0
 710 1173 755 1161 796 1140 c 0
 837 1119 872 1086 902 1045 c 0
 932 1004 953 955 968 897 c 0
 983 839 991 773 991 699 c 0
EndSplineSet
Fore
SplineSet
67 586 m 0
 67 1017 271 1203 492 1203 c 0
 732 1203 900 1020 900 586 c 0
 900 110 685 -27 487 -27 c 0
 263 -27 67 94 67 586 c 0
283 583 m 0
 283 236 321 70 492 70 c 0
 639 70 683 235 683 586 c 0
 683 928 644 1098 485 1098 c 0
 323 1098 283 926 283 583 c 0
EndSplineSet
Substitution2: "'sups' Superscript lookup 0 subtable" zero.superior
Colour: ffffff
EndChar

StartChar: zero.osf
Encoding: 65548 -1 378
Width: 974
VWidth: 0
Flags: MW
LayerCount: 2
Fore
SplineSet
99 482 m 0
 99 746 265 987 488 985 c 0
 732 982 875 772 875 492 c 0
 875 160 680 -23 487 -23 c 0
 285 -23 99 147 99 482 c 0
297 492 m 0
 297 133 389 71 488 71 c 0
 587 71 677 130 677 487 c 0
 677 842 586 900 487 900 c 0
 388 900 297 849 297 492 c 0
EndSplineSet
Colour: ffffff
EndChar

StartChar: Euro.osf
Encoding: 65549 -1 379
Width: 1161
VWidth: 0
Flags: MW
LayerCount: 2
Fore
SplineSet
11 341 m 1
 21 440 l 1
 626 440 l 1
 605 341 l 1
 11 341 l 1
11 516 m 1
 20 615 l 1
 665 615 l 1
 644 516 l 1
 11 516 l 1
140 472 m 0
 140 753 313 995 608 995 c 0
 740 995 824 958 892 896 c 1
 861 598 l 1
 773 611 l 1
 731 828 l 1
 692 867 654 900 568 900 c 0
 423 900 352 790 352 503 c 3
 352 180 447 83 615 83 c 0
 668 83 724 124 747 158 c 1
 781 371 l 1
 869 384 l 1
 900 111 l 1
 774 12 730 -24 566 -24 c 0
 316 -24 140 143 140 472 c 0
EndSplineSet
Colour: ffffff
EndChar

StartChar: ampersand.osf
Encoding: 65550 -1 380
Width: 1281
VWidth: 0
Flags: MW
LayerCount: 2
Back
SplineSet
622.641 602.293 m 5
 458.832 500.555 421.199 431.372 421.199 297.077 c 4
 421.199 219.756 486.311 134.295 573.807 134.295 c 4
 750.832 134.295 799.666 186.182 1049.94 614.502 c 5
 859.692 667.406 l 5
 871.9 763.04 l 5
 1415.19 763.04 l 5
 1401.96 667.406 l 5
 1188.31 618.572 l 5
 897.335 137.348 830.188 -24.417 497.502 -24.417 c 4
 305.216 -24.417 194.574 89.5303 194.574 254.31 c 4
 194.574 443.58 316.397 549.389 556.501 675.545 c 5
 692.841 750.832 756.733 850.866 756.733 936.742 c 4
 756.733 1065.31 683.711 1112 611.449 1112 c 4
 554.871 1112 507.276 1071.49 507.276 996.838 c 4
 507.276 933.224 528.023 869.866 619.589 759.987 c 6
 978.727 321.494 l 6
 1104.88 167.869 1254.62 118.062 1310.4 101.738 c 6
 1352.11 89.5303 l 5
 1333.79 2.03418 l 5
 1287 -14.2432 1236.12 -22.3828 1182.2 -22.3828 c 4
 1042.82 -22.3828 959.396 64.0957 891.23 146.504 c 6
 449.685 679.615 l 6
 392.712 746.762 344.02 845.062 344.02 935.646 c 4
 344.02 1090.1 456.683 1216.79 636.885 1216.79 c 4
 817.403 1216.79 929.81 1105.88 929.81 968.704 c 4
 929.81 853.846 806.244 704.295 622.641 602.293 c 5
EndSplineSet
Fore
SplineSet
147 202 m 0
 147 493 594 515 594 762 c 0
 594 864 544 906 487 906 c 0
 442 906 403 853 403 794 c 0
 403 743 420 700 493 613 c 2
 779 256 l 2
 878 132 975 100 1043 81 c 2
 1076 71 l 1
 1062 2 l 1
 1025 -11 986 -18 943 -18 c 0
 826 -18 715 65 662 131 c 2
 326 549 l 2
 282 603 241 673 241 745 c 0
 241 868 364 989 507 989 c 0
 650 989 742 904 740 795 c 0
 734 493 335 522 335 236 c 0
 335 174 387 99 457 99 c 0
 591 99 700 192 836 497 c 1
 692 539 l 1
 702 607 l 1
 1126 607 l 1
 1116 539 l 1
 946 500 l 1
 773 182 668 -19 396 -19 c 0
 243 -19 147 71 147 202 c 0
EndSplineSet
Colour: ffffff
EndChar

StartChar: dollar.osf
Encoding: 65551 -1 381
Width: 859
VWidth: 0
Flags: MW
LayerCount: 2
Back
SplineSet
114.965 223.824 m 0
 114.965 295.042 169.903 326.582 214.669 336.755 c 1
 246.207 115.981 316.407 19.3301 487.329 19.3301 c 0
 613.484 19.3301 696.91 128.19 696.91 211.616 c 0
 696.91 447.65 178.043 515.814 178.043 842.396 c 0
 178.043 989.918 273.678 1128.28 497.502 1128.28 c 0
 660.285 1128.28 769.145 1013.32 769.145 898.354 c 0
 769.145 809.841 721.327 791.527 680.632 787.458 c 1
 669.44 832.222 l 2
 617.554 1031.63 542.268 1072.33 465.963 1072.33 c 0
 345.912 1072.33 275.712 1018.41 275.712 912.597 c 0
 275.712 624.676 809.841 566.685 809.841 271.642 c 0
 809.841 85.46 640.953 -44.7656 446.633 -44.7656 c 0
 269.607 -44.7656 114.965 64.0957 114.965 223.824 c 0
404.92 -247.225 m 1
 421.199 -19.3301 l 1
 534.128 -7.12109 l 1
 549.389 -224.843 l 1
 404.92 -247.225 l 1
414.076 1307.34 m 1
 549.389 1328.71 l 1
 534.128 1117.09 l 1
 429.338 1117.09 l 1
 414.076 1307.34 l 1
EndSplineSet
Fore
SplineSet
50 141 m 0
 50 208 99 265 182 271 c 1
 225 130 295 64 371 64 c 0
 441 64 503 91 503 165 c 0
 503 324 74 354 74 624 c 0
 74 740 170 900 372 900 c 0
 503 900 617 845 617 734 c 0
 617 651 564 595 477 589 c 1
 470 632 l 2
 442 780 380 816 321 816 c 0
 251 816 209 760 209 696 c 0
 209 509 648 487 648 220 c 0
 648 72 494 -34 340 -34 c 0
 162 -34 50 51 50 141 c 0
298 -197 m 1
 315 -15 l 1
 421 -6 l 1
 437 -179 l 1
 298 -197 l 1
305 1041 m 1
 437 1058 l 1
 421 889 l 1
 321 889 l 1
 305 1041 l 1
EndSplineSet
Colour: ffffff
EndChar

StartChar: paragraph.osf
Encoding: 65552 -1 382
Width: 1289
VWidth: 0
Flags: MW
LayerCount: 2
Back
SplineSet
428.32 790.509 m 0
 428.32 1029.59 677.58 1194.41 927.856 1194.41 c 2
 1129.3 1194.41 l 1
 1129.3 1.01758 l 1
 727.432 1.01758 l 1
 734.554 52.9043 l 1
 1005.18 91.5645 l 1
 1008.23 1122.18 l 1
 966.518 1125.23 946.169 1125.23 934.979 1125.23 c 0
 676.562 1125.23 580.928 1025.53 580.928 787.458 c 0
 580.928 616.536 712.171 493.434 928.875 493.434 c 1
 909.544 425.268 l 1
 647.058 425.268 428.32 498.521 428.32 790.509 c 0
1204.59 -3.05273 m 1
 1204.59 1197.46 l 1
 1559.65 1197.46 l 1
 1553.55 1148.63 l 1
 1332.78 1121.16 l 1
 1332.78 80.373 l 1
 1572.88 57.9912 l 1
 1560.67 -3.05273 l 1
 1204.59 -3.05273 l 1
EndSplineSet
Fore
SplineSet
149 650 m 0
 149 878 358 994 601 994 c 2
 841 994 l 1
 841 0 l 1
 435 0 l 1
 442 74 l 1
 683 121 l 1
 683 902 l 1
 643 903 611 904 601 904 c 0
 488 904 355 864 355 686 c 0
 355 525 441 447 635 441 c 9
 617 343 l 1
 321 343 149 411 149 650 c 0
920 0 m 1
 920 994 l 1
 1241 994 l 1
 1231 917 l 1
 1061 879 l 1
 1061 114 l 1
 1242 80 l 1
 1232 0 l 1
 920 0 l 1
EndSplineSet
Colour: ffffff
EndChar

StartChar: percent.osf
Encoding: 65553 -1 383
Width: 1736
VWidth: 0
Flags: MW
LayerCount: 2
Back
SplineSet
102.756 878.005 m 4
 102.756 1044.86 213.651 1190.34 368.295 1190.34 c 4
 387.625 1190.34 412.042 1189.33 423.233 1186.27 c 5
 412.042 1125.23 l 21
 393.729 1137.44 391.694 1141.51 368.295 1141.51 c 4xefe0
 261.469 1141.51 216.703 986.865 216.703 875.971 c 4
 216.703 761.005 277.747 621.623 371.346 621.623 c 4
 477.154 621.623 534.128 759.987 534.128 878.005 c 4
 534.128 1003.14 486.311 1126.25 464.946 1171.01 c 13
 1087.59 1188.31 l 29
 1099.79 1125.23 l 29
 586.015 1125.23 l 21xf7e0
 622.641 1083.52 649.094 925.822 649.094 875.971 c 4
 649.094 706.066 518.867 565.668 371.346 565.668 c 4
 211.616 565.668 102.756 688.771 102.756 878.005 c 4
256.382 -41.7129 m 5
 690.807 575.841 l 5
 1087.59 1188.31 l 5
 1219.85 1183.22 l 5
 790.509 580.928 l 5
 394.746 -46.7998 l 5
 256.382 -41.7129 l 5
823.066 266.556 m 4
 823.066 433.407 935.996 580.928 1090.64 580.928 c 4
 1268.68 580.928 1372.46 441.546 1372.46 264.521 c 4
 1372.46 97.6689 1241.21 -44.7656 1093.69 -44.7656 c 4
 933.961 -44.7656 823.066 80.373 823.066 266.556 c 4
939.048 266.556 m 4xe7e0
 939.048 151.59 1000.09 8.13867 1093.69 8.13867 c 4
 1199.5 8.13867 1256.47 148.539 1256.47 269.607 c 4
 1256.47 387.625 1186.27 533.11 1090.64 533.11 c 4
 983.813 533.11 939.048 377.45 939.048 266.556 c 4xe7e0
EndSplineSet
Fore
SplineSet
-35 725 m 0
 -35 877 99 991 210 991 c 0
 226 991 231 990 236 988 c 1
 245 928 l 17
 232 934 221 939 204 939 c 0
 133 939 114 828 114 725 c 0
 114 620 139 517 206 517 c 0
 282 517 300 617 300 725 c 0
 300 853 284 924 266 979 c 9
 816 989 l 25
 825 909 l 25
 381 924 l 17
 426 877 449 770 449 725 c 0
 449 570 311 458 206 458 c 0
 92 458 -35 553 -35 725 c 0
46 -9 m 1
 434 468 l 1
 816 989 l 1
 965 986 l 1
 964 960 l 1
 573 471 l 1
 217 -28 l 1
 46 -9 l 1
566 233 m 0
 566 385 699 499 810 499 c 0
 937 499 1047 391 1047 230 c 0
 1047 78 916 -32 811 -32 c 0
 697 -32 566 61 566 233 c 0
715 233 m 0
 715 128 744 29 811 29 c 0
 887 29 903 126 903 235 c 0
 903 343 879 448 810 448 c 0
 734 448 715 336 715 233 c 0
EndSplineSet
Colour: ffffff
EndChar

StartChar: perthousand.osf
Encoding: 65554 -1 384
Width: 1736
VWidth: 0
Flags: MW
LayerCount: 2
Back
SplineSet
102.756 878.005 m 0
 102.756 1044.86 213.651 1190.34 368.295 1190.34 c 0
 387.625 1190.34 412.042 1189.33 423.233 1186.27 c 1
 412.042 1125.23 l 17
 393.729 1137.44 391.694 1141.51 368.295 1141.51 c 0xefe0
 261.469 1141.51 216.703 986.865 216.703 875.971 c 0
 216.703 761.005 277.747 621.623 371.346 621.623 c 0
 477.154 621.623 534.128 759.987 534.128 878.005 c 0
 534.128 1003.14 486.311 1126.25 464.946 1171.01 c 9
 1087.59 1188.31 l 25
 1099.79 1125.23 l 25
 586.015 1125.23 l 17xf7e0
 622.641 1083.52 649.094 925.822 649.094 875.971 c 0
 649.094 706.066 518.867 565.668 371.346 565.668 c 0
 211.616 565.668 102.756 688.771 102.756 878.005 c 0
256.382 -41.7129 m 1
 690.807 575.841 l 1
 1087.59 1188.31 l 1
 1219.85 1183.22 l 1
 790.509 580.928 l 1
 394.746 -46.7998 l 1
 256.382 -41.7129 l 1
823.066 266.556 m 0
 823.066 433.407 935.996 580.928 1090.64 580.928 c 0
 1268.68 580.928 1372.46 441.546 1372.46 264.521 c 0
 1372.46 97.6689 1241.21 -44.7656 1093.69 -44.7656 c 0
 933.961 -44.7656 823.066 80.373 823.066 266.556 c 0
939.048 266.556 m 0xe7e0
 939.048 151.59 1000.09 8.13867 1093.69 8.13867 c 0
 1199.5 8.13867 1256.47 148.539 1256.47 269.607 c 0
 1256.47 387.625 1186.27 533.11 1090.64 533.11 c 0
 983.813 533.11 939.048 377.45 939.048 266.556 c 0xe7e0
1497.59 265.537 m 0
 1497.59 432.389 1613.58 576.859 1768.22 576.859 c 0
 1946.26 576.859 2046.98 441.546 2046.98 264.521 c 0
 2046.98 97.6689 1916.76 -42.7305 1769.24 -42.7305 c 0
 1609.51 -42.7305 1497.59 79.3555 1497.59 265.537 c 0
1616.63 265.537 m 0
 1616.63 150.573 1675.64 10.1738 1769.24 10.1738 c 0
 1875.04 10.1738 1933.04 147.521 1933.04 268.59 c 0
 1933.04 386.607 1863.85 530.059 1768.22 530.059 c 0
 1661.39 530.059 1616.63 376.434 1616.63 265.537 c 0
EndSplineSet
Fore
SplineSet
-35 725 m 0
 -35 877 99 991 210 991 c 0
 226 991 231 990 236 988 c 1
 245 928 l 17
 232 934 221 939 204 939 c 0
 133 939 114 828 114 725 c 0
 114 620 139 517 206 517 c 0
 282 517 300 617 300 725 c 0
 300 853 284 924 266 979 c 9
 816 989 l 25
 825 909 l 25
 381 924 l 17
 426 877 449 770 449 725 c 0
 449 570 311 458 206 458 c 0
 92 458 -35 553 -35 725 c 0
46 -9 m 1
 434 468 l 1
 816 989 l 1
 965 986 l 1
 964 960 l 1
 573 471 l 1
 217 -28 l 1
 46 -9 l 1
566 233 m 0
 566 385 699 499 810 499 c 0
 937 499 1047 391 1047 230 c 0
 1047 78 916 -32 811 -32 c 0
 697 -32 566 61 566 233 c 0
715 233 m 0
 715 128 744 29 811 29 c 0
 887 29 903 126 903 235 c 0
 903 343 879 448 810 448 c 0
 734 448 715 336 715 233 c 0
1113 233 m 0
 1113 385 1246 499 1357 499 c 0
 1485 499 1594 391 1594 230 c 0
 1594 78 1465 -32 1360 -32 c 0
 1246 -32 1113 61 1113 233 c 0
1262 233 m 0
 1262 128 1293 29 1360 29 c 0
 1436 29 1450 126 1450 235 c 0
 1450 343 1426 448 1357 448 c 0
 1281 448 1262 336 1262 233 c 0
EndSplineSet
Colour: ffffff
EndChar

StartChar: sterling.osf
Encoding: 65555 -1 385
Width: 1283
VWidth: 0
Flags: MW
LayerCount: 2
Back
SplineSet
104.791 0 m 1x7c
 113.947 92.583 l 1x7c
 324.546 151.59 l 1
 363.207 277.747 370.329 392.712 374.398 578.894 c 2
 377.45 689.789 l 1
 151.59 676.562 l 1
 166.852 802.718 l 1
 381.521 814.928 l 1
 385.59 987.882 l 1
 397.799 1392.8 611.449 1570.85 896.317 1570.85 c 0
 997.039 1570.85 1089.62 1562.71 1189.33 1520.99 c 1
 1150.67 1124.21 l 1
 1042.82 1139.47 l 1
 990.935 1408.06 l 1
 964.483 1422.31 929.892 1436.55 884.109 1436.55 c 0
 674.527 1436.55 633.832 1303.27 625.693 883.092 c 1
 625.693 823.066 l 1
 900.388 840.362 l 1
 887.162 714.206 l 1
 622.641 697.928 l 1
 621.623 647.058 l 1
 617.554 447.65 603.311 246.207 544.302 124.121 c 1xbc
 1011.28 120.052 l 5
 1175.08 438.493 l 5
 1282.92 416.111 l 5
 1235.11 0 l 5
 104.791 0 l 1x7c
EndSplineSet
Fore
SplineSet
90 0 m 1
 96 74 l 1
 264 113 l 1
 294 177 304 259 304 344 c 2
 304 416 l 1
 126 406 l 1
 138 498 l 1
 308 508 l 1
 310 621 l 2
 316 871 455 998 682 998 c 0
 846 998 963 913 963 841 c 0
 963 751 874 703 804 697 c 1
 793 816 746 913 664 913 c 0
 511 913 494 832 494 570 c 2
 494 516 l 1
 751 530 l 1
 741 439 l 1
 492 422 l 1
 492 398 l 2
 492 264 473 155 428 98 c 1
 821 98 l 1
 928 334 l 1
 1010 313 l 1
 985 0 l 1
 90 0 l 1
EndSplineSet
Colour: ffffff
EndChar

StartChar: yen.osf
Encoding: 65556 -1 386
Width: 1170
VWidth: 0
Flags: MW
LayerCount: 2
Back
SplineSet
242.139 1120.14 m 1
 249.26 1162.87 l 1
 720.311 1162.87 l 1
 716.24 1120.14 l 1
 557.527 1084.54 l 1
 803.736 523.955 l 1
 1046.89 1080.46 l 1
 875.971 1120.14 l 1
 879.022 1161.86 l 1
 1308.36 1161.86 l 1
 1303.27 1120.14 l 1
 1143.54 1083.52 l 1
 841.379 457.824 l 1
 1300.22 457.824 l 1
 1287 397.799 l 1
 841.379 397.799 l 1
 841.379 84.4434 l 1
 1071.31 57.9912 l 1
 1060.12 0 l 1
 482.242 0 l 1
 489.363 51.8867 l 1
 709.119 90.5469 l 1
 709.119 397.799 l 1
 279.781 397.799 l 1
 291.99 457.824 l 1
 709.119 457.824 l 1
 419.163 1080.46 l 1
 242.139 1120.14 l 1
279.781 692.841 m 1
 291.99 750.832 l 1
 651.128 750.832 l 9
 669.44 692.841 l 17
 279.781 692.841 l 1
923.788 692.841 m 9
 957.36 750.832 l 17
 1300.22 750.832 l 1
 1287 692.841 l 1
 923.788 692.841 l 9
EndSplineSet
Fore
SplineSet
147 918 m 1
 160 994 l 1
 620 994 l 1
 609 918 l 1
 476 880 l 1
 662 450 l 1
 846 877 l 1
 689 918 l 1
 699 994 l 1
 1095 994 l 1
 1085 918 l 1
 962 880 l 1
 740 393 l 1
 1041 393 l 1
 1030 295 l 1
 713 295 l 1
 713 113 l 1
 877 78 l 1
 867 0 l 1
 367 0 l 1
 377 71 l 1
 526 119 l 1
 526 295 l 1
 219 295 l 1
 232 393 l 1
 499 393 l 1
 283 877 l 1
 147 918 l 1
219 498 m 1
 232 596 l 1
 515 596 l 9
 554 498 l 17
 219 498 l 1
721 498 m 9
 764 596 l 17
 1041 596 l 1
 1030 498 l 1
 721 498 l 9
EndSplineSet
Colour: ffffff
EndChar

StartChar: zero.superior
Encoding: 65558 -1 388
Width: 691
VWidth: 0
Flags: HMW
LayerCount: 2
Fore
SplineSet
39 883 m 0
 39 1157 189 1275 352 1275 c 0
 529 1275 652 1159 652 883 c 0
 652 581 494 494 348 494 c 0
 183 494 39 571 39 883 c 0
229 880 m 0
 229 685 251 572 350 572 c 0
 435 572 461 685 461 882 c 0
 461 1074 438 1189 346 1189 c 0
 252 1189 229 1073 229 880 c 0
EndSplineSet
Colour: ffffff
EndChar

StartChar: four.superior
Encoding: 65559 -1 389
Width: 601
VWidth: 0
Flags: HMW
LayerCount: 2
Fore
SplineSet
-12 801 m 1
 398 1268 l 1
 455 1257 l 1
 450 1186 446 1070 446 961 c 2
 446 803 l 1
 594 803 l 1
 585 706 l 1
 446 706 l 1
 446 614 l 1
 567 596 l 1
 561 531 l 1
 147 531 l 1
 151 589 l 1
 288 616 l 1
 288 709 l 1
 1 709 l 1
 -12 801 l 1
95 803 m 1
 285 803 l 1
 285 1039 l 1
 95 803 l 1
EndSplineSet
Colour: ffffff
EndChar

StartChar: five.superior
Encoding: 65560 -1 390
Width: 610
VWidth: 0
Flags: HMW
LayerCount: 2
Fore
SplineSet
-11 578 m 1
 4 770 l 1
 79 760 l 1
 91 646 l 1
 114 612 164 588 212 588 c 0
 279.144 588 319.237 644.426 319.237 701.835 c 0
 319.237 776.098 248.783 867.72 48 879 c 1
 111 1258 l 1
 439 1287 l 1
 416 1121 l 1
 160 1112 l 1
 139 1005 l 5
 392 1002 480 882 482 740 c 0
 483.662 622.012 351 497 182 497 c 0
 107 497 44 514 -11 578 c 1
EndSplineSet
Colour: ffffff
EndChar

StartChar: six.superior
Encoding: 65561 -1 391
Width: 632
VWidth: 0
Flags: HMW
LayerCount: 2
Fore
SplineSet
34 777 m 0
 34 986 238 1208 455 1272 c 1
 487 1212 l 1
 325 1139 244 1028 219 906 c 1
 225 906 l 1
 255 956 305 977 379 977 c 0
 513 977 597 899 597 756 c 0
 597 601 468 501 308 501 c 0
 109 501 34 631 34 777 c 0
213 767 m 0
 213 676 243 584 314 584 c 0
 408 584 417 644 417 726 c 0
 417 798 395 873 312 873 c 0
 269 873 231 850 217 831 c 1
 215 814 213 785 213 767 c 0
EndSplineSet
Colour: ffffff
EndChar

StartChar: seven.superior
Encoding: 65562 -1 392
Width: 485
VWidth: 0
Flags: HMW
LayerCount: 2
Fore
SplineSet
-17 982 m 1
 -3 1274 l 1
 534 1274 l 1
 534 1222 l 1
 250 477 l 1
 50 490 l 1
 384 1106 l 1
 86 1106 l 1
 43 975 l 1
 -17 982 l 1
EndSplineSet
Colour: ffffff
EndChar

StartChar: eight.superior
Encoding: 65563 -1 393
Width: 576
VWidth: 0
Flags: HMW
LayerCount: 2
Fore
SplineSet
21 691 m 0
 21 763 46 819 180 878 c 1
 180 883 l 1
 120 926 59 975 59 1067 c 0
 59 1172 161 1268 287 1268 c 0
 410 1268 504 1180 504 1085 c 0
 504 1011 463 955 372 930 c 1
 371 924 l 1
 491 856 537 796 537 702 c 0
 537 586 440 496 261 496 c 0
 137 496 21 570 21 691 c 0
167 723 m 0
 167 631 250 585 302 585 c 0
 347 585 392 613 392 682 c 0
 392 737 272 821 224 844 c 1
 190 810 167 802 167 723 c 0
205 1094 m 0
 205 1041 268 994 321 962 c 1
 352.36 997.727 360 1002 360.608 1078.28 c 0
 361.09 1138.72 327.726 1190 272 1190 c 0
 224 1190 205 1140 205 1094 c 0
EndSplineSet
Colour: ffffff
EndChar

StartChar: nine.superior
Encoding: 65564 -1 394
Width: 627
VWidth: 0
Flags: HMW
LayerCount: 2
Fore
SplineSet
31 1008 m 0
 31 1168 171 1275 312 1275 c 0
 506 1275 593 1142 593 995 c 0
 593 722 440 522 102 499 c 1
 82 574 l 1
 328 626 391 724 403 854 c 1
 399 854 l 1
 353 809 304 788 240 788 c 0
 108 788 31 866 31 1008 c 0
199 1042 m 0
 199 970 227 898 309 898 c 0
 350 898 390 917 408 944 c 1
 412.378 965.016 414.539 987.26 414.539 1009.46 c 0
 414.539 1101.59 377.339 1193 307 1193 c 0
 221 1193 199 1137 199 1042 c 0
EndSplineSet
Colour: ffffff
EndChar

StartChar: micro
Encoding: 181 181 395
Width: 383
VWidth: 0
Flags: HMW
LayerCount: 2
Back
SplineSet
372 1480 m 1
 813 1480 l 1
 783 1379 l 1
 342 1379 l 1
 372 1480 l 1
545 1239 m 0
EndSplineSet
Fore
SplineSet
73 92 m 0
 73 156 127 205 191 205 c 0
 257 205 313 154 313 90 c 0
 313 23 257 -31 191 -31 c 0
 125 -31 73 25 73 92 c 0
EndSplineSet
EndChar

StartChar: Ccircumflex
Encoding: 264 264 396
Width: 383
VWidth: 0
Flags: HW
LayerCount: 2
Fore
SplineSet
73 92 m 0
 73 156 127 205 191 205 c 0
 257 205 313 154 313 90 c 0
 313 23 257 -31 191 -31 c 0
 125 -31 73 25 73 92 c 0
EndSplineSet
EndChar

StartChar: ccircumflex
Encoding: 265 265 397
Width: 383
VWidth: 0
Flags: HW
LayerCount: 2
Fore
SplineSet
73 92 m 0
 73 156 127 205 191 205 c 0
 257 205 313 154 313 90 c 0
 313 23 257 -31 191 -31 c 0
 125 -31 73 25 73 92 c 0
EndSplineSet
EndChar

StartChar: Ebreve
Encoding: 276 276 398
Width: 383
VWidth: 0
Flags: HW
LayerCount: 2
Fore
SplineSet
73 92 m 0
 73 156 127 205 191 205 c 0
 257 205 313 154 313 90 c 0
 313 23 257 -31 191 -31 c 0
 125 -31 73 25 73 92 c 0
EndSplineSet
EndChar

StartChar: ebreve
Encoding: 277 277 399
Width: 383
VWidth: 0
Flags: HW
LayerCount: 2
Fore
SplineSet
73 92 m 0
 73 156 127 205 191 205 c 0
 257 205 313 154 313 90 c 0
 313 23 257 -31 191 -31 c 0
 125 -31 73 25 73 92 c 0
EndSplineSet
EndChar

StartChar: Gcircumflex
Encoding: 284 284 400
Width: 383
VWidth: 0
Flags: HW
LayerCount: 2
Fore
SplineSet
73 92 m 0
 73 156 127 205 191 205 c 0
 257 205 313 154 313 90 c 0
 313 23 257 -31 191 -31 c 0
 125 -31 73 25 73 92 c 0
EndSplineSet
EndChar

StartChar: gcircumflex
Encoding: 285 285 401
Width: 383
VWidth: 0
Flags: HW
LayerCount: 2
Fore
SplineSet
73 92 m 0
 73 156 127 205 191 205 c 0
 257 205 313 154 313 90 c 0
 313 23 257 -31 191 -31 c 0
 125 -31 73 25 73 92 c 0
EndSplineSet
EndChar

StartChar: Hcircumflex
Encoding: 292 292 402
Width: 383
VWidth: 0
Flags: HW
LayerCount: 2
Fore
SplineSet
73 92 m 0
 73 156 127 205 191 205 c 0
 257 205 313 154 313 90 c 0
 313 23 257 -31 191 -31 c 0
 125 -31 73 25 73 92 c 0
EndSplineSet
EndChar

StartChar: hcircumflex
Encoding: 293 293 403
Width: 383
VWidth: 0
Flags: HW
LayerCount: 2
Fore
SplineSet
73 92 m 0
 73 156 127 205 191 205 c 0
 257 205 313 154 313 90 c 0
 313 23 257 -31 191 -31 c 0
 125 -31 73 25 73 92 c 0
EndSplineSet
EndChar

StartChar: Itilde
Encoding: 296 296 404
Width: 383
VWidth: 0
Flags: HW
LayerCount: 2
Fore
SplineSet
73 92 m 0
 73 156 127 205 191 205 c 0
 257 205 313 154 313 90 c 0
 313 23 257 -31 191 -31 c 0
 125 -31 73 25 73 92 c 0
EndSplineSet
EndChar

StartChar: itilde
Encoding: 297 297 405
Width: 383
VWidth: 0
Flags: HW
LayerCount: 2
Fore
SplineSet
73 92 m 0
 73 156 127 205 191 205 c 0
 257 205 313 154 313 90 c 0
 313 23 257 -31 191 -31 c 0
 125 -31 73 25 73 92 c 0
EndSplineSet
EndChar

StartChar: Ibreve
Encoding: 300 300 406
Width: 383
VWidth: 0
Flags: HW
LayerCount: 2
Fore
SplineSet
73 92 m 0
 73 156 127 205 191 205 c 0
 257 205 313 154 313 90 c 0
 313 23 257 -31 191 -31 c 0
 125 -31 73 25 73 92 c 0
EndSplineSet
EndChar

StartChar: ibreve
Encoding: 301 301 407
Width: 383
VWidth: 0
Flags: HW
LayerCount: 2
Fore
SplineSet
73 92 m 0
 73 156 127 205 191 205 c 0
 257 205 313 154 313 90 c 0
 313 23 257 -31 191 -31 c 0
 125 -31 73 25 73 92 c 0
EndSplineSet
EndChar

StartChar: IJ
Encoding: 306 306 408
Width: 383
VWidth: 0
Flags: HW
LayerCount: 2
Fore
SplineSet
73 92 m 0
 73 156 127 205 191 205 c 0
 257 205 313 154 313 90 c 0
 313 23 257 -31 191 -31 c 0
 125 -31 73 25 73 92 c 0
EndSplineSet
EndChar

StartChar: ij
Encoding: 307 307 409
Width: 383
VWidth: 0
Flags: HW
LayerCount: 2
Fore
SplineSet
73 92 m 0
 73 156 127 205 191 205 c 0
 257 205 313 154 313 90 c 0
 313 23 257 -31 191 -31 c 0
 125 -31 73 25 73 92 c 0
EndSplineSet
EndChar

StartChar: Jcircumflex
Encoding: 308 308 410
Width: 383
VWidth: 0
Flags: HW
LayerCount: 2
Fore
SplineSet
73 92 m 0
 73 156 127 205 191 205 c 0
 257 205 313 154 313 90 c 0
 313 23 257 -31 191 -31 c 0
 125 -31 73 25 73 92 c 0
EndSplineSet
EndChar

StartChar: jcircumflex
Encoding: 309 309 411
Width: 383
VWidth: 0
Flags: HW
LayerCount: 2
Fore
SplineSet
73 92 m 0
 73 156 127 205 191 205 c 0
 257 205 313 154 313 90 c 0
 313 23 257 -31 191 -31 c 0
 125 -31 73 25 73 92 c 0
EndSplineSet
EndChar

StartChar: kgreenlandic
Encoding: 312 312 412
Width: 383
VWidth: 0
Flags: HW
LayerCount: 2
Fore
SplineSet
73 92 m 0
 73 156 127 205 191 205 c 0
 257 205 313 154 313 90 c 0
 313 23 257 -31 191 -31 c 0
 125 -31 73 25 73 92 c 0
EndSplineSet
EndChar

StartChar: Ldot
Encoding: 319 319 413
Width: 383
VWidth: 0
Flags: HW
LayerCount: 2
Fore
SplineSet
73 92 m 0
 73 156 127 205 191 205 c 0
 257 205 313 154 313 90 c 0
 313 23 257 -31 191 -31 c 0
 125 -31 73 25 73 92 c 0
EndSplineSet
EndChar

StartChar: ldot
Encoding: 320 320 414
Width: 383
VWidth: 0
Flags: HW
LayerCount: 2
Fore
SplineSet
73 92 m 0
 73 156 127 205 191 205 c 0
 257 205 313 154 313 90 c 0
 313 23 257 -31 191 -31 c 0
 125 -31 73 25 73 92 c 0
EndSplineSet
EndChar

StartChar: napostrophe
Encoding: 329 329 415
Width: 383
VWidth: 0
Flags: HW
LayerCount: 2
Fore
SplineSet
73 92 m 0
 73 156 127 205 191 205 c 0
 257 205 313 154 313 90 c 0
 313 23 257 -31 191 -31 c 0
 125 -31 73 25 73 92 c 0
EndSplineSet
EndChar

StartChar: Obreve
Encoding: 334 334 416
Width: 383
VWidth: 0
Flags: HW
LayerCount: 2
Fore
SplineSet
73 92 m 0
 73 156 127 205 191 205 c 0
 257 205 313 154 313 90 c 0
 313 23 257 -31 191 -31 c 0
 125 -31 73 25 73 92 c 0
EndSplineSet
EndChar

StartChar: obreve
Encoding: 335 335 417
Width: 383
VWidth: 0
Flags: HW
LayerCount: 2
Fore
SplineSet
73 92 m 0
 73 156 127 205 191 205 c 0
 257 205 313 154 313 90 c 0
 313 23 257 -31 191 -31 c 0
 125 -31 73 25 73 92 c 0
EndSplineSet
EndChar

StartChar: Scircumflex
Encoding: 348 348 418
Width: 383
VWidth: 0
Flags: HW
LayerCount: 2
Fore
SplineSet
73 92 m 0
 73 156 127 205 191 205 c 0
 257 205 313 154 313 90 c 0
 313 23 257 -31 191 -31 c 0
 125 -31 73 25 73 92 c 0
EndSplineSet
EndChar

StartChar: scircumflex
Encoding: 349 349 419
Width: 383
VWidth: 0
Flags: HW
LayerCount: 2
Fore
SplineSet
73 92 m 0
 73 156 127 205 191 205 c 0
 257 205 313 154 313 90 c 0
 313 23 257 -31 191 -31 c 0
 125 -31 73 25 73 92 c 0
EndSplineSet
EndChar

StartChar: Utilde
Encoding: 360 360 420
Width: 383
VWidth: 0
Flags: HW
LayerCount: 2
Fore
SplineSet
73 92 m 0
 73 156 127 205 191 205 c 0
 257 205 313 154 313 90 c 0
 313 23 257 -31 191 -31 c 0
 125 -31 73 25 73 92 c 0
EndSplineSet
EndChar

StartChar: utilde
Encoding: 361 361 421
Width: 383
VWidth: 0
Flags: HW
LayerCount: 2
Fore
SplineSet
73 92 m 0
 73 156 127 205 191 205 c 0
 257 205 313 154 313 90 c 0
 313 23 257 -31 191 -31 c 0
 125 -31 73 25 73 92 c 0
EndSplineSet
EndChar

StartChar: Ubreve
Encoding: 364 364 422
Width: 383
VWidth: 0
Flags: HW
LayerCount: 2
Fore
SplineSet
73 92 m 0
 73 156 127 205 191 205 c 0
 257 205 313 154 313 90 c 0
 313 23 257 -31 191 -31 c 0
 125 -31 73 25 73 92 c 0
EndSplineSet
EndChar

StartChar: ubreve
Encoding: 365 365 423
Width: 383
VWidth: 0
Flags: HW
LayerCount: 2
Fore
SplineSet
73 92 m 0
 73 156 127 205 191 205 c 0
 257 205 313 154 313 90 c 0
 313 23 257 -31 191 -31 c 0
 125 -31 73 25 73 92 c 0
EndSplineSet
EndChar

StartChar: longs
Encoding: 383 383 424
Width: 383
VWidth: 0
Flags: HW
LayerCount: 2
Fore
SplineSet
73 92 m 0
 73 156 127 205 191 205 c 0
 257 205 313 154 313 90 c 0
 313 23 257 -31 191 -31 c 0
 125 -31 73 25 73 92 c 0
EndSplineSet
EndChar

StartChar: uni0180
Encoding: 384 384 425
Width: 383
VWidth: 0
Flags: HW
LayerCount: 2
Fore
SplineSet
73 92 m 0
 73 156 127 205 191 205 c 0
 257 205 313 154 313 90 c 0
 313 23 257 -31 191 -31 c 0
 125 -31 73 25 73 92 c 0
EndSplineSet
EndChar

StartChar: uni0181
Encoding: 385 385 426
Width: 383
VWidth: 0
Flags: HW
LayerCount: 2
Fore
SplineSet
73 92 m 0
 73 156 127 205 191 205 c 0
 257 205 313 154 313 90 c 0
 313 23 257 -31 191 -31 c 0
 125 -31 73 25 73 92 c 0
EndSplineSet
EndChar

StartChar: uni0182
Encoding: 386 386 427
Width: 383
VWidth: 0
Flags: HW
LayerCount: 2
Fore
SplineSet
73 92 m 0
 73 156 127 205 191 205 c 0
 257 205 313 154 313 90 c 0
 313 23 257 -31 191 -31 c 0
 125 -31 73 25 73 92 c 0
EndSplineSet
EndChar

StartChar: uni0183
Encoding: 387 387 428
Width: 383
VWidth: 0
Flags: HW
LayerCount: 2
Fore
SplineSet
73 92 m 0
 73 156 127 205 191 205 c 0
 257 205 313 154 313 90 c 0
 313 23 257 -31 191 -31 c 0
 125 -31 73 25 73 92 c 0
EndSplineSet
EndChar

StartChar: uni0184
Encoding: 388 388 429
Width: 383
VWidth: 0
Flags: HW
LayerCount: 2
Fore
SplineSet
73 92 m 0
 73 156 127 205 191 205 c 0
 257 205 313 154 313 90 c 0
 313 23 257 -31 191 -31 c 0
 125 -31 73 25 73 92 c 0
EndSplineSet
EndChar

StartChar: uni0185
Encoding: 389 389 430
Width: 383
VWidth: 0
Flags: HW
LayerCount: 2
Fore
SplineSet
73 92 m 0
 73 156 127 205 191 205 c 0
 257 205 313 154 313 90 c 0
 313 23 257 -31 191 -31 c 0
 125 -31 73 25 73 92 c 0
EndSplineSet
EndChar

StartChar: uni0186
Encoding: 390 390 431
Width: 383
VWidth: 0
Flags: HW
LayerCount: 2
Fore
SplineSet
73 92 m 0
 73 156 127 205 191 205 c 0
 257 205 313 154 313 90 c 0
 313 23 257 -31 191 -31 c 0
 125 -31 73 25 73 92 c 0
EndSplineSet
EndChar

StartChar: uni0187
Encoding: 391 391 432
Width: 383
VWidth: 0
Flags: HW
LayerCount: 2
Fore
SplineSet
73 92 m 0
 73 156 127 205 191 205 c 0
 257 205 313 154 313 90 c 0
 313 23 257 -31 191 -31 c 0
 125 -31 73 25 73 92 c 0
EndSplineSet
EndChar

StartChar: uni0188
Encoding: 392 392 433
Width: 383
VWidth: 0
Flags: HW
LayerCount: 2
Fore
SplineSet
73 92 m 0
 73 156 127 205 191 205 c 0
 257 205 313 154 313 90 c 0
 313 23 257 -31 191 -31 c 0
 125 -31 73 25 73 92 c 0
EndSplineSet
EndChar

StartChar: uni0189
Encoding: 393 393 434
Width: 383
VWidth: 0
Flags: HW
LayerCount: 2
Fore
SplineSet
73 92 m 0
 73 156 127 205 191 205 c 0
 257 205 313 154 313 90 c 0
 313 23 257 -31 191 -31 c 0
 125 -31 73 25 73 92 c 0
EndSplineSet
EndChar

StartChar: uni018A
Encoding: 394 394 435
Width: 383
VWidth: 0
Flags: HW
LayerCount: 2
Fore
SplineSet
73 92 m 0
 73 156 127 205 191 205 c 0
 257 205 313 154 313 90 c 0
 313 23 257 -31 191 -31 c 0
 125 -31 73 25 73 92 c 0
EndSplineSet
EndChar

StartChar: uni018B
Encoding: 395 395 436
Width: 383
VWidth: 0
Flags: HW
LayerCount: 2
Fore
SplineSet
73 92 m 0
 73 156 127 205 191 205 c 0
 257 205 313 154 313 90 c 0
 313 23 257 -31 191 -31 c 0
 125 -31 73 25 73 92 c 0
EndSplineSet
EndChar

StartChar: uni018C
Encoding: 396 396 437
Width: 383
VWidth: 0
Flags: HW
LayerCount: 2
Fore
SplineSet
73 92 m 0
 73 156 127 205 191 205 c 0
 257 205 313 154 313 90 c 0
 313 23 257 -31 191 -31 c 0
 125 -31 73 25 73 92 c 0
EndSplineSet
EndChar

StartChar: uni018D
Encoding: 397 397 438
Width: 383
VWidth: 0
Flags: HW
LayerCount: 2
Fore
SplineSet
73 92 m 0
 73 156 127 205 191 205 c 0
 257 205 313 154 313 90 c 0
 313 23 257 -31 191 -31 c 0
 125 -31 73 25 73 92 c 0
EndSplineSet
EndChar

StartChar: uni018E
Encoding: 398 398 439
Width: 383
VWidth: 0
Flags: HW
LayerCount: 2
Fore
SplineSet
73 92 m 0
 73 156 127 205 191 205 c 0
 257 205 313 154 313 90 c 0
 313 23 257 -31 191 -31 c 0
 125 -31 73 25 73 92 c 0
EndSplineSet
EndChar

StartChar: uni018F
Encoding: 399 399 440
Width: 383
VWidth: 0
Flags: HW
LayerCount: 2
Fore
SplineSet
73 92 m 0
 73 156 127 205 191 205 c 0
 257 205 313 154 313 90 c 0
 313 23 257 -31 191 -31 c 0
 125 -31 73 25 73 92 c 0
EndSplineSet
EndChar

StartChar: uni0190
Encoding: 400 400 441
Width: 383
VWidth: 0
Flags: HW
LayerCount: 2
Fore
SplineSet
73 92 m 0
 73 156 127 205 191 205 c 0
 257 205 313 154 313 90 c 0
 313 23 257 -31 191 -31 c 0
 125 -31 73 25 73 92 c 0
EndSplineSet
EndChar

StartChar: uni0191
Encoding: 401 401 442
Width: 383
VWidth: 0
Flags: HW
LayerCount: 2
Fore
SplineSet
73 92 m 0
 73 156 127 205 191 205 c 0
 257 205 313 154 313 90 c 0
 313 23 257 -31 191 -31 c 0
 125 -31 73 25 73 92 c 0
EndSplineSet
EndChar

StartChar: florin
Encoding: 402 402 443
Width: 383
VWidth: 0
Flags: HW
LayerCount: 2
Fore
SplineSet
73 92 m 0
 73 156 127 205 191 205 c 0
 257 205 313 154 313 90 c 0
 313 23 257 -31 191 -31 c 0
 125 -31 73 25 73 92 c 0
EndSplineSet
EndChar

StartChar: uni0193
Encoding: 403 403 444
Width: 383
VWidth: 0
Flags: HW
LayerCount: 2
Fore
SplineSet
73 92 m 0
 73 156 127 205 191 205 c 0
 257 205 313 154 313 90 c 0
 313 23 257 -31 191 -31 c 0
 125 -31 73 25 73 92 c 0
EndSplineSet
EndChar

StartChar: uni0194
Encoding: 404 404 445
Width: 383
VWidth: 0
Flags: HW
LayerCount: 2
Fore
SplineSet
73 92 m 0
 73 156 127 205 191 205 c 0
 257 205 313 154 313 90 c 0
 313 23 257 -31 191 -31 c 0
 125 -31 73 25 73 92 c 0
EndSplineSet
EndChar

StartChar: uni0195
Encoding: 405 405 446
Width: 383
VWidth: 0
Flags: HW
LayerCount: 2
Fore
SplineSet
73 92 m 0
 73 156 127 205 191 205 c 0
 257 205 313 154 313 90 c 0
 313 23 257 -31 191 -31 c 0
 125 -31 73 25 73 92 c 0
EndSplineSet
EndChar

StartChar: uni0196
Encoding: 406 406 447
Width: 383
VWidth: 0
Flags: HW
LayerCount: 2
Fore
SplineSet
73 92 m 0
 73 156 127 205 191 205 c 0
 257 205 313 154 313 90 c 0
 313 23 257 -31 191 -31 c 0
 125 -31 73 25 73 92 c 0
EndSplineSet
EndChar

StartChar: uni0197
Encoding: 407 407 448
Width: 383
VWidth: 0
Flags: HW
LayerCount: 2
Fore
SplineSet
73 92 m 0
 73 156 127 205 191 205 c 0
 257 205 313 154 313 90 c 0
 313 23 257 -31 191 -31 c 0
 125 -31 73 25 73 92 c 0
EndSplineSet
EndChar

StartChar: uni0198
Encoding: 408 408 449
Width: 383
VWidth: 0
Flags: HW
LayerCount: 2
Fore
SplineSet
73 92 m 0
 73 156 127 205 191 205 c 0
 257 205 313 154 313 90 c 0
 313 23 257 -31 191 -31 c 0
 125 -31 73 25 73 92 c 0
EndSplineSet
EndChar

StartChar: uni0199
Encoding: 409 409 450
Width: 383
VWidth: 0
Flags: HW
LayerCount: 2
Fore
SplineSet
73 92 m 0
 73 156 127 205 191 205 c 0
 257 205 313 154 313 90 c 0
 313 23 257 -31 191 -31 c 0
 125 -31 73 25 73 92 c 0
EndSplineSet
EndChar

StartChar: uni019A
Encoding: 410 410 451
Width: 383
VWidth: 0
Flags: HW
LayerCount: 2
Fore
SplineSet
73 92 m 0
 73 156 127 205 191 205 c 0
 257 205 313 154 313 90 c 0
 313 23 257 -31 191 -31 c 0
 125 -31 73 25 73 92 c 0
EndSplineSet
EndChar

StartChar: uni019B
Encoding: 411 411 452
Width: 383
VWidth: 0
Flags: HW
LayerCount: 2
Fore
SplineSet
73 92 m 0
 73 156 127 205 191 205 c 0
 257 205 313 154 313 90 c 0
 313 23 257 -31 191 -31 c 0
 125 -31 73 25 73 92 c 0
EndSplineSet
EndChar

StartChar: uni019C
Encoding: 412 412 453
Width: 383
VWidth: 0
Flags: HW
LayerCount: 2
Fore
SplineSet
73 92 m 0
 73 156 127 205 191 205 c 0
 257 205 313 154 313 90 c 0
 313 23 257 -31 191 -31 c 0
 125 -31 73 25 73 92 c 0
EndSplineSet
EndChar

StartChar: uni019D
Encoding: 413 413 454
Width: 383
VWidth: 0
Flags: HW
LayerCount: 2
Fore
SplineSet
73 92 m 0
 73 156 127 205 191 205 c 0
 257 205 313 154 313 90 c 0
 313 23 257 -31 191 -31 c 0
 125 -31 73 25 73 92 c 0
EndSplineSet
EndChar

StartChar: uni019E
Encoding: 414 414 455
Width: 383
VWidth: 0
Flags: HW
LayerCount: 2
Fore
SplineSet
73 92 m 0
 73 156 127 205 191 205 c 0
 257 205 313 154 313 90 c 0
 313 23 257 -31 191 -31 c 0
 125 -31 73 25 73 92 c 0
EndSplineSet
EndChar

StartChar: uni019F
Encoding: 415 415 456
Width: 383
VWidth: 0
Flags: HW
LayerCount: 2
Fore
SplineSet
73 92 m 0
 73 156 127 205 191 205 c 0
 257 205 313 154 313 90 c 0
 313 23 257 -31 191 -31 c 0
 125 -31 73 25 73 92 c 0
EndSplineSet
EndChar

StartChar: Ohorn
Encoding: 416 416 457
Width: 383
VWidth: 0
Flags: HW
LayerCount: 2
Fore
SplineSet
73 92 m 0
 73 156 127 205 191 205 c 0
 257 205 313 154 313 90 c 0
 313 23 257 -31 191 -31 c 0
 125 -31 73 25 73 92 c 0
EndSplineSet
EndChar

StartChar: ohorn
Encoding: 417 417 458
Width: 383
VWidth: 0
Flags: HW
LayerCount: 2
Fore
SplineSet
73 92 m 0
 73 156 127 205 191 205 c 0
 257 205 313 154 313 90 c 0
 313 23 257 -31 191 -31 c 0
 125 -31 73 25 73 92 c 0
EndSplineSet
EndChar

StartChar: uni01A2
Encoding: 418 418 459
Width: 383
VWidth: 0
Flags: HW
LayerCount: 2
Fore
SplineSet
73 92 m 0
 73 156 127 205 191 205 c 0
 257 205 313 154 313 90 c 0
 313 23 257 -31 191 -31 c 0
 125 -31 73 25 73 92 c 0
EndSplineSet
EndChar

StartChar: uni01A3
Encoding: 419 419 460
Width: 383
VWidth: 0
Flags: HW
LayerCount: 2
Fore
SplineSet
73 92 m 0
 73 156 127 205 191 205 c 0
 257 205 313 154 313 90 c 0
 313 23 257 -31 191 -31 c 0
 125 -31 73 25 73 92 c 0
EndSplineSet
EndChar

StartChar: uni01A4
Encoding: 420 420 461
Width: 383
VWidth: 0
Flags: HW
LayerCount: 2
Fore
SplineSet
73 92 m 0
 73 156 127 205 191 205 c 0
 257 205 313 154 313 90 c 0
 313 23 257 -31 191 -31 c 0
 125 -31 73 25 73 92 c 0
EndSplineSet
EndChar

StartChar: uni01A5
Encoding: 421 421 462
Width: 383
VWidth: 0
Flags: HW
LayerCount: 2
Fore
SplineSet
73 92 m 0
 73 156 127 205 191 205 c 0
 257 205 313 154 313 90 c 0
 313 23 257 -31 191 -31 c 0
 125 -31 73 25 73 92 c 0
EndSplineSet
EndChar

StartChar: uni01A6
Encoding: 422 422 463
Width: 383
VWidth: 0
Flags: HW
LayerCount: 2
Fore
SplineSet
73 92 m 0
 73 156 127 205 191 205 c 0
 257 205 313 154 313 90 c 0
 313 23 257 -31 191 -31 c 0
 125 -31 73 25 73 92 c 0
EndSplineSet
EndChar

StartChar: uni01A7
Encoding: 423 423 464
Width: 383
VWidth: 0
Flags: HW
LayerCount: 2
Fore
SplineSet
73 92 m 0
 73 156 127 205 191 205 c 0
 257 205 313 154 313 90 c 0
 313 23 257 -31 191 -31 c 0
 125 -31 73 25 73 92 c 0
EndSplineSet
EndChar

StartChar: uni01A8
Encoding: 424 424 465
Width: 383
VWidth: 0
Flags: HW
LayerCount: 2
Fore
SplineSet
73 92 m 0
 73 156 127 205 191 205 c 0
 257 205 313 154 313 90 c 0
 313 23 257 -31 191 -31 c 0
 125 -31 73 25 73 92 c 0
EndSplineSet
EndChar

StartChar: uni01A9
Encoding: 425 425 466
Width: 383
VWidth: 0
Flags: HW
LayerCount: 2
Fore
SplineSet
73 92 m 0
 73 156 127 205 191 205 c 0
 257 205 313 154 313 90 c 0
 313 23 257 -31 191 -31 c 0
 125 -31 73 25 73 92 c 0
EndSplineSet
EndChar

StartChar: uni01AA
Encoding: 426 426 467
Width: 383
VWidth: 0
Flags: HW
LayerCount: 2
Fore
SplineSet
73 92 m 0
 73 156 127 205 191 205 c 0
 257 205 313 154 313 90 c 0
 313 23 257 -31 191 -31 c 0
 125 -31 73 25 73 92 c 0
EndSplineSet
EndChar

StartChar: uni01AB
Encoding: 427 427 468
Width: 383
VWidth: 0
Flags: HW
LayerCount: 2
Fore
SplineSet
73 92 m 0
 73 156 127 205 191 205 c 0
 257 205 313 154 313 90 c 0
 313 23 257 -31 191 -31 c 0
 125 -31 73 25 73 92 c 0
EndSplineSet
EndChar

StartChar: uni01AC
Encoding: 428 428 469
Width: 383
VWidth: 0
Flags: HW
LayerCount: 2
Fore
SplineSet
73 92 m 0
 73 156 127 205 191 205 c 0
 257 205 313 154 313 90 c 0
 313 23 257 -31 191 -31 c 0
 125 -31 73 25 73 92 c 0
EndSplineSet
EndChar

StartChar: uni01AD
Encoding: 429 429 470
Width: 383
VWidth: 0
Flags: HW
LayerCount: 2
Fore
SplineSet
73 92 m 0
 73 156 127 205 191 205 c 0
 257 205 313 154 313 90 c 0
 313 23 257 -31 191 -31 c 0
 125 -31 73 25 73 92 c 0
EndSplineSet
EndChar

StartChar: uni01AE
Encoding: 430 430 471
Width: 383
VWidth: 0
Flags: HW
LayerCount: 2
Fore
SplineSet
73 92 m 0
 73 156 127 205 191 205 c 0
 257 205 313 154 313 90 c 0
 313 23 257 -31 191 -31 c 0
 125 -31 73 25 73 92 c 0
EndSplineSet
EndChar

StartChar: Uhorn
Encoding: 431 431 472
Width: 383
VWidth: 0
Flags: HW
LayerCount: 2
Fore
SplineSet
73 92 m 0
 73 156 127 205 191 205 c 0
 257 205 313 154 313 90 c 0
 313 23 257 -31 191 -31 c 0
 125 -31 73 25 73 92 c 0
EndSplineSet
EndChar

StartChar: uhorn
Encoding: 432 432 473
Width: 383
VWidth: 0
Flags: HW
LayerCount: 2
Fore
SplineSet
73 92 m 0
 73 156 127 205 191 205 c 0
 257 205 313 154 313 90 c 0
 313 23 257 -31 191 -31 c 0
 125 -31 73 25 73 92 c 0
EndSplineSet
EndChar

StartChar: uni01B1
Encoding: 433 433 474
Width: 383
VWidth: 0
Flags: HW
LayerCount: 2
Fore
SplineSet
73 92 m 0
 73 156 127 205 191 205 c 0
 257 205 313 154 313 90 c 0
 313 23 257 -31 191 -31 c 0
 125 -31 73 25 73 92 c 0
EndSplineSet
EndChar

StartChar: uni01B2
Encoding: 434 434 475
Width: 383
VWidth: 0
Flags: HW
LayerCount: 2
Fore
SplineSet
73 92 m 0
 73 156 127 205 191 205 c 0
 257 205 313 154 313 90 c 0
 313 23 257 -31 191 -31 c 0
 125 -31 73 25 73 92 c 0
EndSplineSet
EndChar

StartChar: uni01B3
Encoding: 435 435 476
Width: 383
VWidth: 0
Flags: HW
LayerCount: 2
Fore
SplineSet
73 92 m 0
 73 156 127 205 191 205 c 0
 257 205 313 154 313 90 c 0
 313 23 257 -31 191 -31 c 0
 125 -31 73 25 73 92 c 0
EndSplineSet
EndChar

StartChar: uni01B4
Encoding: 436 436 477
Width: 383
VWidth: 0
Flags: HW
LayerCount: 2
Fore
SplineSet
73 92 m 0
 73 156 127 205 191 205 c 0
 257 205 313 154 313 90 c 0
 313 23 257 -31 191 -31 c 0
 125 -31 73 25 73 92 c 0
EndSplineSet
EndChar

StartChar: uni01B5
Encoding: 437 437 478
Width: 383
VWidth: 0
Flags: HW
LayerCount: 2
Fore
SplineSet
73 92 m 0
 73 156 127 205 191 205 c 0
 257 205 313 154 313 90 c 0
 313 23 257 -31 191 -31 c 0
 125 -31 73 25 73 92 c 0
EndSplineSet
EndChar

StartChar: uni01B6
Encoding: 438 438 479
Width: 383
VWidth: 0
Flags: HW
LayerCount: 2
Fore
SplineSet
73 92 m 0
 73 156 127 205 191 205 c 0
 257 205 313 154 313 90 c 0
 313 23 257 -31 191 -31 c 0
 125 -31 73 25 73 92 c 0
EndSplineSet
EndChar

StartChar: uni01B7
Encoding: 439 439 480
Width: 383
VWidth: 0
Flags: HW
LayerCount: 2
Fore
SplineSet
73 92 m 0
 73 156 127 205 191 205 c 0
 257 205 313 154 313 90 c 0
 313 23 257 -31 191 -31 c 0
 125 -31 73 25 73 92 c 0
EndSplineSet
EndChar

StartChar: uni01B8
Encoding: 440 440 481
Width: 383
VWidth: 0
Flags: HW
LayerCount: 2
Fore
SplineSet
73 92 m 0
 73 156 127 205 191 205 c 0
 257 205 313 154 313 90 c 0
 313 23 257 -31 191 -31 c 0
 125 -31 73 25 73 92 c 0
EndSplineSet
EndChar

StartChar: uni01B9
Encoding: 441 441 482
Width: 383
VWidth: 0
Flags: HW
LayerCount: 2
Fore
SplineSet
73 92 m 0
 73 156 127 205 191 205 c 0
 257 205 313 154 313 90 c 0
 313 23 257 -31 191 -31 c 0
 125 -31 73 25 73 92 c 0
EndSplineSet
EndChar

StartChar: uni01BA
Encoding: 442 442 483
Width: 383
VWidth: 0
Flags: HW
LayerCount: 2
Fore
SplineSet
73 92 m 0
 73 156 127 205 191 205 c 0
 257 205 313 154 313 90 c 0
 313 23 257 -31 191 -31 c 0
 125 -31 73 25 73 92 c 0
EndSplineSet
EndChar

StartChar: uni01BB
Encoding: 443 443 484
Width: 383
VWidth: 0
Flags: HW
LayerCount: 2
Fore
SplineSet
73 92 m 0
 73 156 127 205 191 205 c 0
 257 205 313 154 313 90 c 0
 313 23 257 -31 191 -31 c 0
 125 -31 73 25 73 92 c 0
EndSplineSet
EndChar

StartChar: uni01BC
Encoding: 444 444 485
Width: 383
VWidth: 0
Flags: HW
LayerCount: 2
Fore
SplineSet
73 92 m 0
 73 156 127 205 191 205 c 0
 257 205 313 154 313 90 c 0
 313 23 257 -31 191 -31 c 0
 125 -31 73 25 73 92 c 0
EndSplineSet
EndChar

StartChar: uni01BD
Encoding: 445 445 486
Width: 383
VWidth: 0
Flags: HW
LayerCount: 2
Fore
SplineSet
73 92 m 0
 73 156 127 205 191 205 c 0
 257 205 313 154 313 90 c 0
 313 23 257 -31 191 -31 c 0
 125 -31 73 25 73 92 c 0
EndSplineSet
EndChar

StartChar: uni01BE
Encoding: 446 446 487
Width: 383
VWidth: 0
Flags: HW
LayerCount: 2
Fore
SplineSet
73 92 m 0
 73 156 127 205 191 205 c 0
 257 205 313 154 313 90 c 0
 313 23 257 -31 191 -31 c 0
 125 -31 73 25 73 92 c 0
EndSplineSet
EndChar

StartChar: uni01BF
Encoding: 447 447 488
Width: 383
VWidth: 0
Flags: HW
LayerCount: 2
Fore
SplineSet
73 92 m 0
 73 156 127 205 191 205 c 0
 257 205 313 154 313 90 c 0
 313 23 257 -31 191 -31 c 0
 125 -31 73 25 73 92 c 0
EndSplineSet
EndChar

StartChar: uni01C0
Encoding: 448 448 489
Width: 383
VWidth: 0
Flags: HW
LayerCount: 2
Fore
SplineSet
73 92 m 0
 73 156 127 205 191 205 c 0
 257 205 313 154 313 90 c 0
 313 23 257 -31 191 -31 c 0
 125 -31 73 25 73 92 c 0
EndSplineSet
EndChar

StartChar: uni01C1
Encoding: 449 449 490
Width: 383
VWidth: 0
Flags: HW
LayerCount: 2
Fore
SplineSet
73 92 m 0
 73 156 127 205 191 205 c 0
 257 205 313 154 313 90 c 0
 313 23 257 -31 191 -31 c 0
 125 -31 73 25 73 92 c 0
EndSplineSet
EndChar

StartChar: uni01C2
Encoding: 450 450 491
Width: 383
VWidth: 0
Flags: HW
LayerCount: 2
Fore
SplineSet
73 92 m 0
 73 156 127 205 191 205 c 0
 257 205 313 154 313 90 c 0
 313 23 257 -31 191 -31 c 0
 125 -31 73 25 73 92 c 0
EndSplineSet
EndChar

StartChar: uni01C3
Encoding: 451 451 492
Width: 383
VWidth: 0
Flags: HW
LayerCount: 2
Fore
SplineSet
73 92 m 0
 73 156 127 205 191 205 c 0
 257 205 313 154 313 90 c 0
 313 23 257 -31 191 -31 c 0
 125 -31 73 25 73 92 c 0
EndSplineSet
EndChar

StartChar: uni01C4
Encoding: 452 452 493
Width: 383
VWidth: 0
Flags: HW
LayerCount: 2
Fore
SplineSet
73 92 m 0
 73 156 127 205 191 205 c 0
 257 205 313 154 313 90 c 0
 313 23 257 -31 191 -31 c 0
 125 -31 73 25 73 92 c 0
EndSplineSet
EndChar

StartChar: uni01C5
Encoding: 453 453 494
Width: 383
VWidth: 0
Flags: HW
LayerCount: 2
Fore
SplineSet
73 92 m 0
 73 156 127 205 191 205 c 0
 257 205 313 154 313 90 c 0
 313 23 257 -31 191 -31 c 0
 125 -31 73 25 73 92 c 0
EndSplineSet
EndChar

StartChar: uni01C6
Encoding: 454 454 495
Width: 383
VWidth: 0
Flags: HW
LayerCount: 2
Fore
SplineSet
73 92 m 0
 73 156 127 205 191 205 c 0
 257 205 313 154 313 90 c 0
 313 23 257 -31 191 -31 c 0
 125 -31 73 25 73 92 c 0
EndSplineSet
EndChar

StartChar: uni01C7
Encoding: 455 455 496
Width: 383
VWidth: 0
Flags: HW
LayerCount: 2
Fore
SplineSet
73 92 m 0
 73 156 127 205 191 205 c 0
 257 205 313 154 313 90 c 0
 313 23 257 -31 191 -31 c 0
 125 -31 73 25 73 92 c 0
EndSplineSet
EndChar

StartChar: uni01C8
Encoding: 456 456 497
Width: 383
VWidth: 0
Flags: HW
LayerCount: 2
Fore
SplineSet
73 92 m 0
 73 156 127 205 191 205 c 0
 257 205 313 154 313 90 c 0
 313 23 257 -31 191 -31 c 0
 125 -31 73 25 73 92 c 0
EndSplineSet
EndChar

StartChar: uni01C9
Encoding: 457 457 498
Width: 383
VWidth: 0
Flags: HW
LayerCount: 2
Fore
SplineSet
73 92 m 0
 73 156 127 205 191 205 c 0
 257 205 313 154 313 90 c 0
 313 23 257 -31 191 -31 c 0
 125 -31 73 25 73 92 c 0
EndSplineSet
EndChar

StartChar: uni01CA
Encoding: 458 458 499
Width: 383
VWidth: 0
Flags: HW
LayerCount: 2
Fore
SplineSet
73 92 m 0
 73 156 127 205 191 205 c 0
 257 205 313 154 313 90 c 0
 313 23 257 -31 191 -31 c 0
 125 -31 73 25 73 92 c 0
EndSplineSet
EndChar

StartChar: uni01CB
Encoding: 459 459 500
Width: 383
VWidth: 0
Flags: HW
LayerCount: 2
Fore
SplineSet
73 92 m 0
 73 156 127 205 191 205 c 0
 257 205 313 154 313 90 c 0
 313 23 257 -31 191 -31 c 0
 125 -31 73 25 73 92 c 0
EndSplineSet
EndChar

StartChar: uni01CC
Encoding: 460 460 501
Width: 383
VWidth: 0
Flags: HW
LayerCount: 2
Fore
SplineSet
73 92 m 0
 73 156 127 205 191 205 c 0
 257 205 313 154 313 90 c 0
 313 23 257 -31 191 -31 c 0
 125 -31 73 25 73 92 c 0
EndSplineSet
EndChar

StartChar: uni01DD
Encoding: 477 477 502
Width: 383
VWidth: 0
Flags: HW
LayerCount: 2
Fore
SplineSet
73 92 m 0
 73 156 127 205 191 205 c 0
 257 205 313 154 313 90 c 0
 313 23 257 -31 191 -31 c 0
 125 -31 73 25 73 92 c 0
EndSplineSet
EndChar

StartChar: uni01DE
Encoding: 478 478 503
Width: 383
VWidth: 0
Flags: HW
LayerCount: 2
Fore
SplineSet
73 92 m 0
 73 156 127 205 191 205 c 0
 257 205 313 154 313 90 c 0
 313 23 257 -31 191 -31 c 0
 125 -31 73 25 73 92 c 0
EndSplineSet
EndChar

StartChar: uni01DF
Encoding: 479 479 504
Width: 383
VWidth: 0
Flags: HW
LayerCount: 2
Fore
SplineSet
73 92 m 0
 73 156 127 205 191 205 c 0
 257 205 313 154 313 90 c 0
 313 23 257 -31 191 -31 c 0
 125 -31 73 25 73 92 c 0
EndSplineSet
EndChar

StartChar: uni01E0
Encoding: 480 480 505
Width: 383
VWidth: 0
Flags: HW
LayerCount: 2
Fore
SplineSet
73 92 m 0
 73 156 127 205 191 205 c 0
 257 205 313 154 313 90 c 0
 313 23 257 -31 191 -31 c 0
 125 -31 73 25 73 92 c 0
EndSplineSet
EndChar

StartChar: uni01E1
Encoding: 481 481 506
Width: 383
VWidth: 0
Flags: HW
LayerCount: 2
Fore
SplineSet
73 92 m 0
 73 156 127 205 191 205 c 0
 257 205 313 154 313 90 c 0
 313 23 257 -31 191 -31 c 0
 125 -31 73 25 73 92 c 0
EndSplineSet
EndChar

StartChar: uni01E2
Encoding: 482 482 507
Width: 383
VWidth: 0
Flags: HW
LayerCount: 2
Fore
SplineSet
73 92 m 0
 73 156 127 205 191 205 c 0
 257 205 313 154 313 90 c 0
 313 23 257 -31 191 -31 c 0
 125 -31 73 25 73 92 c 0
EndSplineSet
EndChar

StartChar: uni01E3
Encoding: 483 483 508
Width: 383
VWidth: 0
Flags: HW
LayerCount: 2
Fore
SplineSet
73 92 m 0
 73 156 127 205 191 205 c 0
 257 205 313 154 313 90 c 0
 313 23 257 -31 191 -31 c 0
 125 -31 73 25 73 92 c 0
EndSplineSet
EndChar

StartChar: uni01E4
Encoding: 484 484 509
Width: 383
VWidth: 0
Flags: HW
LayerCount: 2
Fore
SplineSet
73 92 m 0
 73 156 127 205 191 205 c 0
 257 205 313 154 313 90 c 0
 313 23 257 -31 191 -31 c 0
 125 -31 73 25 73 92 c 0
EndSplineSet
EndChar

StartChar: uni01E5
Encoding: 485 485 510
Width: 383
VWidth: 0
Flags: HW
LayerCount: 2
Fore
SplineSet
73 92 m 0
 73 156 127 205 191 205 c 0
 257 205 313 154 313 90 c 0
 313 23 257 -31 191 -31 c 0
 125 -31 73 25 73 92 c 0
EndSplineSet
EndChar

StartChar: Gcaron
Encoding: 486 486 511
Width: 383
VWidth: 0
Flags: HW
LayerCount: 2
Fore
SplineSet
73 92 m 0
 73 156 127 205 191 205 c 0
 257 205 313 154 313 90 c 0
 313 23 257 -31 191 -31 c 0
 125 -31 73 25 73 92 c 0
EndSplineSet
EndChar

StartChar: gcaron
Encoding: 487 487 512
Width: 383
VWidth: 0
Flags: HW
LayerCount: 2
Fore
SplineSet
73 92 m 0
 73 156 127 205 191 205 c 0
 257 205 313 154 313 90 c 0
 313 23 257 -31 191 -31 c 0
 125 -31 73 25 73 92 c 0
EndSplineSet
EndChar

StartChar: uni01E8
Encoding: 488 488 513
Width: 383
VWidth: 0
Flags: HW
LayerCount: 2
Fore
SplineSet
73 92 m 0
 73 156 127 205 191 205 c 0
 257 205 313 154 313 90 c 0
 313 23 257 -31 191 -31 c 0
 125 -31 73 25 73 92 c 0
EndSplineSet
EndChar

StartChar: uni01E9
Encoding: 489 489 514
Width: 383
VWidth: 0
Flags: HW
LayerCount: 2
Fore
SplineSet
73 92 m 0
 73 156 127 205 191 205 c 0
 257 205 313 154 313 90 c 0
 313 23 257 -31 191 -31 c 0
 125 -31 73 25 73 92 c 0
EndSplineSet
EndChar

StartChar: uni01EA
Encoding: 490 490 515
Width: 383
VWidth: 0
Flags: HW
LayerCount: 2
Fore
SplineSet
73 92 m 0
 73 156 127 205 191 205 c 0
 257 205 313 154 313 90 c 0
 313 23 257 -31 191 -31 c 0
 125 -31 73 25 73 92 c 0
EndSplineSet
EndChar

StartChar: uni01EB
Encoding: 491 491 516
Width: 383
VWidth: 0
Flags: HW
LayerCount: 2
Fore
SplineSet
73 92 m 0
 73 156 127 205 191 205 c 0
 257 205 313 154 313 90 c 0
 313 23 257 -31 191 -31 c 0
 125 -31 73 25 73 92 c 0
EndSplineSet
EndChar

StartChar: uni01EC
Encoding: 492 492 517
Width: 383
VWidth: 0
Flags: HW
LayerCount: 2
Fore
SplineSet
73 92 m 0
 73 156 127 205 191 205 c 0
 257 205 313 154 313 90 c 0
 313 23 257 -31 191 -31 c 0
 125 -31 73 25 73 92 c 0
EndSplineSet
EndChar

StartChar: uni01ED
Encoding: 493 493 518
Width: 383
VWidth: 0
Flags: HW
LayerCount: 2
Fore
SplineSet
73 92 m 0
 73 156 127 205 191 205 c 0
 257 205 313 154 313 90 c 0
 313 23 257 -31 191 -31 c 0
 125 -31 73 25 73 92 c 0
EndSplineSet
EndChar

StartChar: uni01EE
Encoding: 494 494 519
Width: 383
VWidth: 0
Flags: HW
LayerCount: 2
Fore
SplineSet
73 92 m 0
 73 156 127 205 191 205 c 0
 257 205 313 154 313 90 c 0
 313 23 257 -31 191 -31 c 0
 125 -31 73 25 73 92 c 0
EndSplineSet
EndChar

StartChar: uni01EF
Encoding: 495 495 520
Width: 383
VWidth: 0
Flags: HW
LayerCount: 2
Fore
SplineSet
73 92 m 0
 73 156 127 205 191 205 c 0
 257 205 313 154 313 90 c 0
 313 23 257 -31 191 -31 c 0
 125 -31 73 25 73 92 c 0
EndSplineSet
EndChar

StartChar: uni01F0
Encoding: 496 496 521
Width: 383
VWidth: 0
Flags: HW
LayerCount: 2
Fore
SplineSet
73 92 m 0
 73 156 127 205 191 205 c 0
 257 205 313 154 313 90 c 0
 313 23 257 -31 191 -31 c 0
 125 -31 73 25 73 92 c 0
EndSplineSet
EndChar

StartChar: uni01F1
Encoding: 497 497 522
Width: 383
VWidth: 0
Flags: HW
LayerCount: 2
Fore
SplineSet
73 92 m 0
 73 156 127 205 191 205 c 0
 257 205 313 154 313 90 c 0
 313 23 257 -31 191 -31 c 0
 125 -31 73 25 73 92 c 0
EndSplineSet
EndChar

StartChar: uni01F2
Encoding: 498 498 523
Width: 383
VWidth: 0
Flags: HW
LayerCount: 2
Fore
SplineSet
73 92 m 0
 73 156 127 205 191 205 c 0
 257 205 313 154 313 90 c 0
 313 23 257 -31 191 -31 c 0
 125 -31 73 25 73 92 c 0
EndSplineSet
EndChar

StartChar: uni01F3
Encoding: 499 499 524
Width: 383
VWidth: 0
Flags: HW
LayerCount: 2
Fore
SplineSet
73 92 m 0
 73 156 127 205 191 205 c 0
 257 205 313 154 313 90 c 0
 313 23 257 -31 191 -31 c 0
 125 -31 73 25 73 92 c 0
EndSplineSet
EndChar

StartChar: uni01F4
Encoding: 500 500 525
Width: 383
VWidth: 0
Flags: HW
LayerCount: 2
Fore
SplineSet
73 92 m 0
 73 156 127 205 191 205 c 0
 257 205 313 154 313 90 c 0
 313 23 257 -31 191 -31 c 0
 125 -31 73 25 73 92 c 0
EndSplineSet
EndChar

StartChar: uni01F5
Encoding: 501 501 526
Width: 383
VWidth: 0
Flags: HW
LayerCount: 2
Fore
SplineSet
73 92 m 0
 73 156 127 205 191 205 c 0
 257 205 313 154 313 90 c 0
 313 23 257 -31 191 -31 c 0
 125 -31 73 25 73 92 c 0
EndSplineSet
EndChar

StartChar: uni01F6
Encoding: 502 502 527
Width: 383
VWidth: 0
Flags: HW
LayerCount: 2
Fore
SplineSet
73 92 m 0
 73 156 127 205 191 205 c 0
 257 205 313 154 313 90 c 0
 313 23 257 -31 191 -31 c 0
 125 -31 73 25 73 92 c 0
EndSplineSet
EndChar

StartChar: uni01F7
Encoding: 503 503 528
Width: 383
VWidth: 0
Flags: HW
LayerCount: 2
Fore
SplineSet
73 92 m 0
 73 156 127 205 191 205 c 0
 257 205 313 154 313 90 c 0
 313 23 257 -31 191 -31 c 0
 125 -31 73 25 73 92 c 0
EndSplineSet
EndChar

StartChar: uni01F8
Encoding: 504 504 529
Width: 383
VWidth: 0
Flags: HW
LayerCount: 2
Fore
SplineSet
73 92 m 0
 73 156 127 205 191 205 c 0
 257 205 313 154 313 90 c 0
 313 23 257 -31 191 -31 c 0
 125 -31 73 25 73 92 c 0
EndSplineSet
EndChar

StartChar: uni01F9
Encoding: 505 505 530
Width: 383
VWidth: 0
Flags: HW
LayerCount: 2
Fore
SplineSet
73 92 m 0
 73 156 127 205 191 205 c 0
 257 205 313 154 313 90 c 0
 313 23 257 -31 191 -31 c 0
 125 -31 73 25 73 92 c 0
EndSplineSet
EndChar

StartChar: Aringacute
Encoding: 506 506 531
Width: 383
VWidth: 0
Flags: HW
LayerCount: 2
Fore
SplineSet
73 92 m 0
 73 156 127 205 191 205 c 0
 257 205 313 154 313 90 c 0
 313 23 257 -31 191 -31 c 0
 125 -31 73 25 73 92 c 0
EndSplineSet
EndChar

StartChar: aringacute
Encoding: 507 507 532
Width: 383
VWidth: 0
Flags: HW
LayerCount: 2
Fore
SplineSet
73 92 m 0
 73 156 127 205 191 205 c 0
 257 205 313 154 313 90 c 0
 313 23 257 -31 191 -31 c 0
 125 -31 73 25 73 92 c 0
EndSplineSet
EndChar

StartChar: AEacute
Encoding: 508 508 533
Width: 383
VWidth: 0
Flags: HW
LayerCount: 2
Fore
SplineSet
73 92 m 0
 73 156 127 205 191 205 c 0
 257 205 313 154 313 90 c 0
 313 23 257 -31 191 -31 c 0
 125 -31 73 25 73 92 c 0
EndSplineSet
EndChar

StartChar: aeacute
Encoding: 509 509 534
Width: 383
VWidth: 0
Flags: HW
LayerCount: 2
Fore
SplineSet
73 92 m 0
 73 156 127 205 191 205 c 0
 257 205 313 154 313 90 c 0
 313 23 257 -31 191 -31 c 0
 125 -31 73 25 73 92 c 0
EndSplineSet
EndChar

StartChar: Oslashacute
Encoding: 510 510 535
Width: 383
VWidth: 0
Flags: HW
LayerCount: 2
Fore
SplineSet
73 92 m 0
 73 156 127 205 191 205 c 0
 257 205 313 154 313 90 c 0
 313 23 257 -31 191 -31 c 0
 125 -31 73 25 73 92 c 0
EndSplineSet
EndChar

StartChar: oslashacute
Encoding: 511 511 536
Width: 383
VWidth: 0
Flags: HW
LayerCount: 2
Fore
SplineSet
73 92 m 0
 73 156 127 205 191 205 c 0
 257 205 313 154 313 90 c 0
 313 23 257 -31 191 -31 c 0
 125 -31 73 25 73 92 c 0
EndSplineSet
EndChar

StartChar: uni0200
Encoding: 512 512 537
Width: 383
VWidth: 0
Flags: HW
LayerCount: 2
Fore
SplineSet
73 92 m 0
 73 156 127 205 191 205 c 0
 257 205 313 154 313 90 c 0
 313 23 257 -31 191 -31 c 0
 125 -31 73 25 73 92 c 0
EndSplineSet
EndChar

StartChar: uni0201
Encoding: 513 513 538
Width: 383
VWidth: 0
Flags: HW
LayerCount: 2
Fore
SplineSet
73 92 m 0
 73 156 127 205 191 205 c 0
 257 205 313 154 313 90 c 0
 313 23 257 -31 191 -31 c 0
 125 -31 73 25 73 92 c 0
EndSplineSet
EndChar

StartChar: uni0202
Encoding: 514 514 539
Width: 383
VWidth: 0
Flags: HW
LayerCount: 2
Fore
SplineSet
73 92 m 0
 73 156 127 205 191 205 c 0
 257 205 313 154 313 90 c 0
 313 23 257 -31 191 -31 c 0
 125 -31 73 25 73 92 c 0
EndSplineSet
EndChar

StartChar: uni0203
Encoding: 515 515 540
Width: 383
VWidth: 0
Flags: HW
LayerCount: 2
Fore
SplineSet
73 92 m 0
 73 156 127 205 191 205 c 0
 257 205 313 154 313 90 c 0
 313 23 257 -31 191 -31 c 0
 125 -31 73 25 73 92 c 0
EndSplineSet
EndChar

StartChar: uni0204
Encoding: 516 516 541
Width: 383
VWidth: 0
Flags: HW
LayerCount: 2
Fore
SplineSet
73 92 m 0
 73 156 127 205 191 205 c 0
 257 205 313 154 313 90 c 0
 313 23 257 -31 191 -31 c 0
 125 -31 73 25 73 92 c 0
EndSplineSet
EndChar

StartChar: uni0205
Encoding: 517 517 542
Width: 383
VWidth: 0
Flags: HW
LayerCount: 2
Fore
SplineSet
73 92 m 0
 73 156 127 205 191 205 c 0
 257 205 313 154 313 90 c 0
 313 23 257 -31 191 -31 c 0
 125 -31 73 25 73 92 c 0
EndSplineSet
EndChar

StartChar: uni0206
Encoding: 518 518 543
Width: 383
VWidth: 0
Flags: HW
LayerCount: 2
Fore
SplineSet
73 92 m 0
 73 156 127 205 191 205 c 0
 257 205 313 154 313 90 c 0
 313 23 257 -31 191 -31 c 0
 125 -31 73 25 73 92 c 0
EndSplineSet
EndChar

StartChar: uni0207
Encoding: 519 519 544
Width: 383
VWidth: 0
Flags: HW
LayerCount: 2
Fore
SplineSet
73 92 m 0
 73 156 127 205 191 205 c 0
 257 205 313 154 313 90 c 0
 313 23 257 -31 191 -31 c 0
 125 -31 73 25 73 92 c 0
EndSplineSet
EndChar

StartChar: uni0208
Encoding: 520 520 545
Width: 383
VWidth: 0
Flags: HW
LayerCount: 2
Fore
SplineSet
73 92 m 0
 73 156 127 205 191 205 c 0
 257 205 313 154 313 90 c 0
 313 23 257 -31 191 -31 c 0
 125 -31 73 25 73 92 c 0
EndSplineSet
EndChar

